<?xml version="1.0" encoding="UTF-8" standalone="no"?>
<svg
   xmlns:dc="http://purl.org/dc/elements/1.1/"
   xmlns:cc="http://creativecommons.org/ns#"
   xmlns:rdf="http://www.w3.org/1999/02/22-rdf-syntax-ns#"
   xmlns:svg="http://www.w3.org/2000/svg"
   xmlns="http://www.w3.org/2000/svg"
   viewBox="0 0 2000 2000"
   height="2000"
   width="2000"
   xml:space="preserve"
   id="svg2"
   version="1.1"><metadata
     id="metadata8"><rdf:RDF><cc:Work
         rdf:about=""><dc:format>image/svg+xml</dc:format><dc:type
           rdf:resource="http://purl.org/dc/dcmitype/StillImage" /></cc:Work></rdf:RDF></metadata><defs
     id="defs6"><clipPath
       id="clipPath26"
       clipPathUnits="userSpaceOnUse"><path
         id="path24"
         d="M 0,1500 H 1500 V 0 H 0 Z" /></clipPath></defs><g
     transform="matrix(1.3333333,0,0,-1.3333333,0,2000)"
     id="g10"><g
       transform="translate(1127.8677,1101.3845)"
       id="g12"><path
         id="path14"
         style="fill:#1d1d1b;fill-opacity:1;fill-rule:nonzero;stroke:none"
         d="m 0,0 -755.735,-252.876 v -29.439 L -479.908,-374.61 0,-214.028 Z" /></g><g
       transform="translate(372.1324,779.4361)"
       id="g16"><path
         id="path18"
         style="fill:#1d1d1b;fill-opacity:1;fill-rule:nonzero;stroke:none"
         d="m 0,0 v -144.956 -29.439 -39.633 l 755.735,-252.876 v 39.633 174.395 z" /></g><g
       id="g20"><g
         clip-path="url(#clipPath26)"
         id="g22"><g
           transform="translate(825.7555,1239.6149)"
           id="g28"><path
             id="path30"
             style="fill:#1d1d1b;fill-opacity:1;fill-rule:nonzero;stroke:none"
             d="M 0,0 C -4.689,-9.485 -9.725,-19.637 -16.239,-32.785 7.077,-44.501 31.249,-56.649 55.579,-68.869 l -322.837,-106.202 c 13.694,26.158 25.928,49.549 37.625,71.907 -11.537,6.186 -21.362,11.472 -29.317,15.745 -21.936,-42.484 -43.756,-84.746 -65.136,-126.138 42.063,-21.18 84.256,-42.429 125.316,-63.104 4.69,9.485 9.724,19.642 16.24,32.788 -23.317,11.716 -47.489,23.863 -71.819,36.081 l 322.837,106.205 c -13.694,-26.158 -25.927,-49.549 -37.625,-71.908 11.536,-6.184 21.363,-11.474 29.318,-15.744 21.935,42.485 43.755,84.745 65.135,126.138 C 83.252,-41.921 41.06,-20.672 0,0" /></g></g></g></g></svg>