<?xml version="1.0" encoding="UTF-8" standalone="no"?>
<svg
   xmlns:dc="http://purl.org/dc/elements/1.1/"
   xmlns:cc="http://creativecommons.org/ns#"
   xmlns:rdf="http://www.w3.org/1999/02/22-rdf-syntax-ns#"
   xmlns:svg="http://www.w3.org/2000/svg"
   xmlns="http://www.w3.org/2000/svg"
   viewBox="0 0 266.66666 266.66666"
   height="266.66666"
   width="266.66666"
   xml:space="preserve"
   id="svg2"
   version="1.1"><metadata
     id="metadata8"><rdf:RDF><cc:Work
         rdf:about=""><dc:format>image/svg+xml</dc:format><dc:type
           rdf:resource="http://purl.org/dc/dcmitype/StillImage" /></cc:Work></rdf:RDF></metadata><defs
     id="defs6"><clipPath
       id="clipPath22"
       clipPathUnits="userSpaceOnUse"><path
         id="path20"
         d="M 0,200 H 200 V 0 H 0 Z" /></clipPath></defs><g
     transform="matrix(1.3333333,0,0,-1.3333333,0,266.66667)"
     id="g10"><g
       transform="translate(28.4565,95.8028)"
       id="g12"><path
         id="path14"
         style="fill:#1d1d1b;fill-opacity:1;fill-rule:nonzero;stroke:none"
         d="M 0,0 H 13.412 L 6.664,21.032 Z m 21.72,-25.615 -4.496,13.847 H -3.722 l -4.413,-13.847 h -14.538 l 22.065,59.627 h 14.8 l 21.982,-59.627 z" /></g><g
       id="g16"><g
         clip-path="url(#clipPath22)"
         id="g18"><g
           transform="translate(66.1223,99.9534)"
           id="g24"><path
             id="path26"
             style="fill:#1d1d1b;fill-opacity:1;fill-rule:nonzero;stroke:none"
             d="m 0,0 c 0,16.968 13.412,30.901 30.635,30.901 9.434,0 17.652,-3.981 22.846,-10.214 L 43.439,12.293 c -3.197,3.722 -7.7,5.974 -12.804,5.974 -9.606,0 -16.961,-8.308 -16.961,-18.267 0,-9.779 7.182,-18.688 17.39,-18.688 6.664,0 14.026,3.723 14.026,9.607 H 28.294 V 1.906 h 31.589 c 0,-22.583 -12.549,-32.714 -28.467,-32.714 C 13.066,-30.808 0,-16.789 0,0" /></g><g
           transform="translate(178.9885,100.0432)"
           id="g28"><path
             id="path30"
             style="fill:#1d1d1b;fill-opacity:1;fill-rule:nonzero;stroke:none"
             d="m 0,0 c 0,9.952 -6.837,18.004 -16.789,18.004 -10.034,0 -16.699,-8.052 -16.699,-18.004 0,-9.952 6.665,-18.087 16.699,-18.087 C -6.837,-18.087 0,-9.952 0,0 m -47.162,0 c 0,16.878 13.412,30.812 30.463,30.812 16.789,0 30.373,-13.934 30.373,-30.812 0,-16.878 -13.584,-30.898 -30.373,-30.898 -17.051,0 -30.463,14.02 -30.463,30.898" /></g></g></g></g></svg>