<svg xmlns="http://www.w3.org/2000/svg" xmlns:xlink="http://www.w3.org/1999/xlink" width="400" zoomAndPan="magnify" viewBox="0 0 300 299.999988" height="400" preserveAspectRatio="xMidYMid meet" version="1.0"><defs><clipPath id="207deef610"><path d="M 67.128906 75.761719 L 232.871094 75.761719 L 232.871094 241.5 L 67.128906 241.5 Z M 67.128906 75.761719 " clip-rule="nonzero"/></clipPath><clipPath id="86bc58ab5b"><path d="M 150 75.761719 C 104.234375 75.761719 67.128906 112.863281 67.128906 158.632812 C 67.128906 204.398438 104.234375 241.5 150 241.5 C 195.765625 241.5 232.871094 204.398438 232.871094 158.632812 C 232.871094 112.863281 195.765625 75.761719 150 75.761719 " clip-rule="nonzero"/></clipPath><clipPath id="1812d121c1"><path d="M 98 175 L 113 175 L 113 193.988281 L 98 193.988281 Z M 98 175 " clip-rule="nonzero"/></clipPath><clipPath id="d11be5fde0"><path d="M 76.972656 123.488281 L 97 123.488281 L 97 178 L 76.972656 178 Z M 76.972656 123.488281 " clip-rule="nonzero"/></clipPath><clipPath id="155ca23074"><path d="M 115 123.488281 L 134.722656 123.488281 L 134.722656 178 L 115 178 Z M 115 123.488281 " clip-rule="nonzero"/></clipPath><clipPath id="9dc71f36f7"><path d="M 60.40625 69.039062 L 239.65625 69.039062 L 239.65625 248.289062 L 60.40625 248.289062 Z M 60.40625 69.039062 " clip-rule="nonzero"/></clipPath><clipPath id="0c9ac04a91"><path d="M 97 123.488281 L 215 123.488281 L 215 191.738281 L 97 191.738281 Z M 97 123.488281 " clip-rule="nonzero"/></clipPath></defs><g clip-path="url(#207deef610)"><g clip-path="url(#86bc58ab5b)"><path fill="#ffffff" d="M 67.128906 75.761719 L 232.871094 75.761719 L 232.871094 241.5 L 67.128906 241.5 Z M 67.128906 75.761719 " fill-opacity="1" fill-rule="nonzero"/></g></g><path fill="#ffffff" d="M 99.789062 159.960938 L 96.3125 160.347656 C 96.589844 162.890625 96.816406 165.574219 96.957031 168.3125 L 97.132812 168.292969 L 97.132812 168.277344 C 97.414062 166.382812 98.304688 164.699219 99.578125 163.398438 C 99.738281 163.242188 99.910156 163.085938 100.085938 162.960938 L 100.085938 162.945312 C 100 161.925781 99.894531 160.945312 99.789062 159.960938 Z M 88.671875 127.261719 L 86.085938 129.613281 C 87.605469 131.296875 89.003906 133.417969 90.226562 135.945312 L 93.375 134.402344 C 91.992188 131.59375 90.417969 129.191406 88.671875 127.261719 Z M 94.71875 137.472656 L 91.484375 138.769531 C 92.378906 141.015625 93.183594 143.523438 93.863281 146.261719 L 97.253906 145.382812 C 96.519531 142.507812 95.679688 139.839844 94.71875 137.472656 Z M 98.007812 148.609375 L 94.582031 149.332031 C 95.105469 151.785156 95.558594 154.417969 95.925781 157.171875 L 99.386719 156.714844 C 99.003906 153.875 98.546875 151.136719 98.007812 148.609375 Z M 98.007812 148.609375 " fill-opacity="1" fill-rule="nonzero"/><path fill="#ffffff" d="M 111.746094 159.960938 C 111.640625 160.945312 111.535156 161.925781 111.449219 162.945312 L 111.449219 162.960938 C 113.003906 164.277344 114.089844 166.15625 114.402344 168.277344 L 114.402344 168.292969 L 114.578125 168.3125 C 114.71875 165.574219 114.945312 162.890625 115.226562 160.347656 Z M 122.863281 127.261719 C 121.117188 129.191406 119.542969 131.59375 118.160156 134.402344 L 121.308594 135.945312 C 122.53125 133.417969 123.929688 131.296875 125.453125 129.613281 Z M 116.816406 137.472656 C 115.855469 139.839844 115.015625 142.507812 114.28125 145.382812 L 117.671875 146.261719 C 118.355469 143.523438 119.160156 141.015625 120.050781 138.769531 Z M 113.53125 148.609375 C 112.988281 151.136719 112.53125 153.875 112.148438 156.714844 L 115.609375 157.171875 C 115.976562 154.417969 116.429688 151.785156 116.957031 149.332031 Z M 113.53125 148.609375 " fill-opacity="1" fill-rule="nonzero"/><path fill="#ffffff" d="M 110.105469 185.820312 C 109.84375 185.820312 109.585938 185.753906 109.351562 185.625 C 108.902344 185.378906 108.597656 184.925781 108.542969 184.417969 L 107.703125 176.800781 C 107.695312 176.742188 107.691406 176.6875 107.691406 176.628906 L 107.691406 171.1875 L 103.84375 171.1875 L 103.84375 176.628906 C 103.84375 176.6875 103.839844 176.742188 103.835938 176.800781 L 102.996094 184.417969 C 102.9375 184.925781 102.636719 185.378906 102.183594 185.625 C 101.730469 185.875 101.1875 185.882812 100.730469 185.652344 C 100.375 185.472656 100.058594 185.257812 99.75 185.035156 C 99.648438 184.964844 99.546875 184.878906 99.414062 184.742188 L 98.648438 184.089844 C 98.542969 184.019531 98.449219 183.9375 98.363281 183.84375 L 97.855469 183.265625 C 97.671875 183.054688 97.527344 182.863281 97.382812 182.648438 C 97.371094 182.644531 97.277344 182.503906 97.191406 182.367188 C 97.058594 182.183594 96.929688 181.964844 96.804688 181.742188 C 96.683594 181.554688 96.539062 181.261719 96.414062 180.96875 C 96.324219 180.8125 96.195312 180.484375 96.078125 180.167969 C 96.074219 180.152344 96.03125 180.03125 96.023438 180.015625 C 95.972656 179.914062 95.976562 179.90625 95.949219 179.792969 L 95.71875 178.953125 C 95.640625 178.65625 95.59375 178.378906 95.582031 178.113281 C 95.539062 177.859375 95.511719 177.675781 95.496094 177.480469 C 95.476562 177.199219 95.457031 176.914062 95.457031 176.628906 L 95.457031 169.609375 C 95.457031 169.335938 95.472656 169.074219 95.492188 168.820312 C 95.515625 168.605469 95.53125 168.425781 95.558594 168.257812 C 95.558594 168.214844 95.5625 168.171875 95.566406 168.128906 C 95.570312 168.101562 95.574219 168.074219 95.578125 168.046875 C 95.898438 165.875 96.894531 163.886719 98.460938 162.292969 C 98.628906 162.125 98.804688 161.964844 98.984375 161.820312 C 99.007812 161.796875 99.035156 161.773438 99.0625 161.75 C 100.917969 160.144531 103.296875 159.261719 105.769531 159.261719 C 108.238281 159.261719 110.621094 160.144531 112.476562 161.75 C 112.527344 161.792969 112.574219 161.839844 112.617188 161.890625 C 114.421875 163.480469 115.605469 165.65625 115.957031 168.046875 C 115.960938 168.070312 115.964844 168.09375 115.96875 168.117188 C 116.042969 168.59375 116.078125 169.097656 116.078125 169.609375 L 116.078125 176.628906 C 116.078125 177.402344 115.996094 178.164062 115.832031 178.890625 L 115.550781 179.910156 C 115.539062 179.949219 115.527344 179.988281 115.511719 180.03125 C 115.507812 180.042969 115.503906 180.054688 115.5 180.070312 C 114.980469 181.527344 114.183594 182.8125 113.132812 183.890625 C 113.054688 183.96875 112.96875 184.039062 112.878906 184.097656 L 112.035156 184.824219 C 111.988281 184.878906 111.890625 184.964844 111.753906 185.058594 C 111.476562 185.257812 111.160156 185.472656 110.804688 185.652344 C 110.585938 185.765625 110.34375 185.820312 110.105469 185.820312 Z M 110.835938 176.542969 L 111.34375 181.164062 C 111.851562 180.535156 112.25 179.816406 112.535156 179.023438 L 112.785156 178.117188 C 112.878906 177.691406 112.9375 177.167969 112.9375 176.628906 L 112.9375 169.609375 C 112.9375 169.242188 112.910156 168.886719 112.855469 168.554688 C 112.847656 168.519531 112.84375 168.480469 112.839844 168.445312 C 112.574219 166.773438 111.722656 165.257812 110.4375 164.167969 C 110.386719 164.125 110.335938 164.074219 110.292969 164.027344 C 107.757812 161.941406 103.765625 161.945312 101.234375 164.035156 C 101.164062 164.113281 101.082031 164.1875 100.992188 164.25 C 100.886719 164.324219 100.785156 164.421875 100.6875 164.519531 C 99.628906 165.59375 98.941406 166.9375 98.703125 168.402344 C 98.703125 168.496094 98.691406 168.59375 98.671875 168.6875 C 98.648438 168.8125 98.636719 168.941406 98.625 169.066406 C 98.613281 169.234375 98.597656 169.417969 98.597656 169.609375 L 98.597656 176.628906 C 98.597656 176.832031 98.617188 177.039062 98.628906 177.230469 C 98.640625 177.347656 98.660156 177.472656 98.683594 177.605469 C 98.699219 177.6875 98.722656 177.875 98.722656 177.960938 C 98.722656 177.960938 98.722656 178.007812 98.753906 178.125 L 98.960938 178.894531 C 98.976562 178.941406 98.992188 178.980469 99.003906 179.007812 C 99.09375 179.253906 99.160156 179.449219 99.253906 179.621094 C 99.371094 179.886719 99.433594 180.015625 99.507812 180.132812 C 99.609375 180.308594 99.65625 180.402344 99.714844 180.484375 C 99.742188 180.519531 99.820312 180.640625 99.84375 180.675781 C 99.875 180.714844 99.964844 180.847656 99.992188 180.890625 C 100.054688 180.984375 100.117188 181.070312 100.191406 181.152344 L 100.699219 176.542969 L 100.699219 169.609375 C 100.699219 168.738281 101.402344 168.03125 102.273438 168.03125 L 109.265625 168.03125 C 110.132812 168.03125 110.835938 168.738281 110.835938 169.609375 Z M 110.835938 176.542969 " fill-opacity="1" fill-rule="nonzero"/><path fill="#ffffff" d="M 108.542969 184.417969 L 107.703125 176.800781 C 107.695312 176.742188 107.691406 176.6875 107.691406 176.628906 L 107.691406 171.1875 L 103.84375 171.1875 L 103.84375 176.628906 C 103.84375 176.6875 103.839844 176.742188 103.835938 176.800781 L 102.996094 184.417969 L 99.871094 184.066406 L 100.699219 176.542969 L 100.699219 169.609375 C 100.699219 168.738281 101.402344 168.03125 102.273438 168.03125 L 109.265625 168.03125 C 110.132812 168.03125 110.835938 168.738281 110.835938 169.609375 L 110.835938 176.542969 L 111.667969 184.066406 Z M 108.542969 184.417969 " fill-opacity="1" fill-rule="nonzero"/><path fill="#ffffff" d="M 109.265625 178.203125 L 102.273438 178.203125 C 101.402344 178.203125 100.699219 177.5 100.699219 176.628906 L 100.699219 169.609375 C 100.699219 168.738281 101.402344 168.03125 102.273438 168.03125 L 109.265625 168.03125 C 110.132812 168.03125 110.835938 168.738281 110.835938 169.609375 L 110.835938 176.628906 C 110.835938 177.5 110.132812 178.203125 109.265625 178.203125 Z M 103.84375 175.050781 L 107.691406 175.050781 L 107.691406 171.1875 L 103.84375 171.1875 Z M 103.84375 175.050781 " fill-opacity="1" fill-rule="nonzero"/><g clip-path="url(#1812d121c1)"><path fill="#ffffff" d="M 111.011719 193.992188 L 100.523438 193.992188 C 100.078125 193.992188 99.652344 193.800781 99.351562 193.46875 C 99.054688 193.132812 98.914062 192.6875 98.960938 192.242188 L 100.710938 176.453125 C 100.796875 175.65625 101.472656 175.050781 102.273438 175.050781 L 109.265625 175.050781 C 110.066406 175.050781 110.738281 175.65625 110.828125 176.453125 L 112.574219 192.242188 C 112.625 192.6875 112.480469 193.132812 112.183594 193.46875 C 111.886719 193.800781 111.460938 193.992188 111.011719 193.992188 Z M 102.28125 190.839844 L 109.253906 190.839844 L 107.855469 178.203125 L 103.679688 178.203125 Z M 102.28125 190.839844 " fill-opacity="1" fill-rule="nonzero"/></g><g clip-path="url(#d11be5fde0)"><path fill="#ffffff" d="M 96.339844 177.902344 L 90.050781 177.902344 L 90.050781 176.324219 C 90.050781 141.648438 78.324219 133.570312 78.207031 133.492188 L 76.9375 132.660156 L 77.703125 131.351562 L 82.417969 123.464844 L 85.113281 125.089844 L 81.101562 131.800781 C 84.34375 134.800781 92.890625 145.464844 93.1875 174.746094 L 96.339844 174.746094 Z M 96.339844 177.902344 " fill-opacity="1" fill-rule="nonzero"/></g><g clip-path="url(#155ca23074)"><path fill="#ffffff" d="M 121.484375 177.902344 L 115.199219 177.902344 L 115.199219 174.746094 L 118.347656 174.746094 C 118.644531 145.464844 127.191406 134.800781 130.4375 131.800781 L 126.421875 125.089844 L 129.117188 123.464844 L 134.625 132.679688 L 133.316406 133.5 C 133.210938 133.570312 121.484375 141.648438 121.484375 176.324219 Z M 121.484375 177.902344 " fill-opacity="1" fill-rule="nonzero"/></g><g clip-path="url(#9dc71f36f7)"><path fill="#000000" d="M 150.046875 69.039062 C 148.582031 69.039062 147.113281 69.074219 145.648438 69.144531 C 144.183594 69.21875 142.722656 69.328125 141.261719 69.46875 C 139.800781 69.613281 138.347656 69.792969 136.894531 70.007812 C 135.445312 70.222656 134 70.472656 132.558594 70.761719 C 131.121094 71.046875 129.691406 71.367188 128.265625 71.726562 C 126.84375 72.082031 125.429688 72.472656 124.027344 72.898438 C 122.621094 73.324219 121.230469 73.785156 119.847656 74.277344 C 118.46875 74.773438 117.097656 75.300781 115.742188 75.863281 C 114.386719 76.421875 113.046875 77.019531 111.722656 77.644531 C 110.394531 78.273438 109.085938 78.929688 107.792969 79.621094 C 106.496094 80.316406 105.222656 81.039062 103.964844 81.792969 C 102.703125 82.546875 101.464844 83.332031 100.246094 84.144531 C 99.027344 84.960938 97.828125 85.804688 96.648438 86.679688 C 95.46875 87.554688 94.3125 88.457031 93.179688 89.386719 C 92.046875 90.316406 90.9375 91.273438 89.847656 92.257812 C 88.761719 93.246094 87.699219 94.257812 86.664062 95.292969 C 85.625 96.332031 84.613281 97.394531 83.628906 98.480469 C 82.644531 99.566406 81.683594 100.675781 80.753906 101.8125 C 79.824219 102.945312 78.921875 104.101562 78.046875 105.28125 C 77.171875 106.457031 76.328125 107.65625 75.515625 108.878906 C 74.699219 110.097656 73.914062 111.335938 73.160156 112.59375 C 72.40625 113.851562 71.683594 115.128906 70.992188 116.421875 C 70.300781 117.714844 69.640625 119.027344 69.011719 120.351562 C 68.386719 121.679688 67.792969 123.019531 67.230469 124.375 C 66.667969 125.730469 66.140625 127.097656 65.648438 128.480469 C 65.152344 129.863281 64.691406 131.253906 64.265625 132.65625 C 63.839844 134.0625 63.449219 135.476562 63.09375 136.898438 C 62.738281 138.320312 62.414062 139.753906 62.128906 141.191406 C 61.84375 142.628906 61.59375 144.074219 61.378906 145.527344 C 61.160156 146.976562 60.980469 148.433594 60.839844 149.894531 C 60.695312 151.351562 60.585938 152.816406 60.515625 154.28125 C 60.441406 155.746094 60.40625 157.210938 60.40625 158.679688 C 60.40625 160.144531 60.441406 161.613281 60.515625 163.078125 C 60.585938 164.542969 60.695312 166.003906 60.839844 167.464844 C 60.980469 168.925781 61.160156 170.382812 61.378906 171.832031 C 61.59375 173.285156 61.84375 174.726562 62.128906 176.167969 C 62.414062 177.605469 62.738281 179.035156 63.09375 180.460938 C 63.449219 181.882812 63.839844 183.296875 64.265625 184.699219 C 64.691406 186.105469 65.152344 187.496094 65.648438 188.878906 C 66.140625 190.257812 66.667969 191.628906 67.230469 192.984375 C 67.792969 194.339844 68.386719 195.679688 69.011719 197.003906 C 69.640625 198.332031 70.300781 199.640625 70.992188 200.9375 C 71.683594 202.230469 72.40625 203.503906 73.160156 204.765625 C 73.914062 206.023438 74.699219 207.261719 75.515625 208.480469 C 76.328125 209.699219 77.171875 210.898438 78.046875 212.078125 C 78.921875 213.257812 79.824219 214.414062 80.753906 215.546875 C 81.683594 216.679688 82.644531 217.792969 83.628906 218.878906 C 84.613281 219.964844 85.625 221.027344 86.664062 222.066406 C 87.699219 223.101562 88.761719 224.113281 89.847656 225.097656 C 90.9375 226.082031 92.046875 227.042969 93.179688 227.972656 C 94.3125 228.902344 95.46875 229.804688 96.648438 230.679688 C 97.828125 231.554688 99.027344 232.398438 100.246094 233.210938 C 101.464844 234.027344 102.703125 234.8125 103.964844 235.566406 C 105.222656 236.320312 106.496094 237.042969 107.792969 237.734375 C 109.085938 238.425781 110.394531 239.085938 111.722656 239.714844 C 113.046875 240.339844 114.386719 240.933594 115.742188 241.496094 C 117.097656 242.058594 118.46875 242.585938 119.847656 243.078125 C 121.230469 243.574219 122.621094 244.035156 124.027344 244.460938 C 125.429688 244.886719 126.84375 245.277344 128.265625 245.632812 C 129.691406 245.988281 131.121094 246.3125 132.558594 246.597656 C 134 246.882812 135.445312 247.132812 136.894531 247.351562 C 138.347656 247.566406 139.800781 247.746094 141.261719 247.886719 C 142.722656 248.03125 144.183594 248.140625 145.648438 248.210938 C 147.113281 248.285156 148.582031 248.320312 150.046875 248.320312 C 151.515625 248.320312 152.980469 248.285156 154.445312 248.210938 C 155.910156 248.140625 157.375 248.03125 158.835938 247.886719 C 160.292969 247.746094 161.75 247.566406 163.199219 247.351562 C 164.652344 247.132812 166.097656 246.882812 167.535156 246.597656 C 168.976562 246.3125 170.40625 245.988281 171.828125 245.632812 C 173.25 245.277344 174.664062 244.886719 176.070312 244.460938 C 177.472656 244.035156 178.867188 243.574219 180.246094 243.078125 C 181.628906 242.585938 182.996094 242.058594 184.351562 241.496094 C 185.707031 240.933594 187.046875 240.339844 188.375 239.714844 C 189.699219 239.085938 191.011719 238.425781 192.304688 237.734375 C 193.597656 237.042969 194.875 236.320312 196.132812 235.566406 C 197.390625 234.8125 198.628906 234.027344 199.847656 233.210938 C 201.070312 232.398438 202.269531 231.554688 203.445312 230.679688 C 204.625 229.804688 205.78125 228.902344 206.914062 227.972656 C 208.050781 227.042969 209.160156 226.082031 210.246094 225.097656 C 211.332031 224.113281 212.394531 223.101562 213.433594 222.066406 C 214.472656 221.027344 215.480469 219.964844 216.46875 218.878906 C 217.453125 217.792969 218.410156 216.679688 219.339844 215.546875 C 220.273438 214.414062 221.175781 213.257812 222.046875 212.078125 C 222.921875 210.898438 223.765625 209.699219 224.582031 208.480469 C 225.394531 207.261719 226.179688 206.023438 226.933594 204.765625 C 227.691406 203.503906 228.414062 202.230469 229.105469 200.9375 C 229.796875 199.640625 230.453125 198.332031 231.082031 197.003906 C 231.710938 195.679688 232.304688 194.339844 232.863281 192.984375 C 233.425781 191.628906 233.953125 190.257812 234.449219 188.878906 C 234.941406 187.496094 235.402344 186.105469 235.828125 184.699219 C 236.253906 183.296875 236.644531 181.882812 237.003906 180.460938 C 237.359375 179.035156 237.679688 177.605469 237.964844 176.167969 C 238.253906 174.726562 238.503906 173.285156 238.71875 171.832031 C 238.933594 170.382812 239.113281 168.925781 239.257812 167.464844 C 239.402344 166.003906 239.507812 164.542969 239.582031 163.078125 C 239.652344 161.613281 239.6875 160.144531 239.6875 158.679688 C 239.6875 157.210938 239.648438 155.746094 239.574219 154.28125 C 239.5 152.816406 239.390625 151.355469 239.246094 149.894531 C 239.101562 148.4375 238.921875 146.980469 238.703125 145.53125 C 238.488281 144.082031 238.234375 142.636719 237.949219 141.199219 C 237.660156 139.761719 237.339844 138.332031 236.980469 136.90625 C 236.621094 135.484375 236.230469 134.074219 235.804688 132.671875 C 235.378906 131.265625 234.917969 129.875 234.421875 128.496094 C 233.925781 127.113281 233.398438 125.746094 232.835938 124.390625 C 232.273438 123.039062 231.679688 121.699219 231.050781 120.371094 C 230.421875 119.046875 229.761719 117.738281 229.070312 116.445312 C 228.378906 115.152344 227.65625 113.875 226.902344 112.617188 C 226.148438 111.359375 225.363281 110.121094 224.546875 108.902344 C 223.730469 107.683594 222.886719 106.484375 222.015625 105.308594 C 221.140625 104.128906 220.238281 102.976562 219.308594 101.839844 C 218.375 100.707031 217.417969 99.597656 216.433594 98.511719 C 215.449219 97.425781 214.4375 96.363281 213.402344 95.324219 C 212.363281 94.289062 211.300781 93.277344 210.214844 92.292969 C 209.128906 91.308594 208.019531 90.351562 206.886719 89.417969 C 205.753906 88.488281 204.597656 87.585938 203.417969 86.714844 C 202.242188 85.839844 201.042969 84.996094 199.824219 84.179688 C 198.605469 83.363281 197.367188 82.578125 196.109375 81.824219 C 194.851562 81.070312 193.574219 80.347656 192.28125 79.65625 C 190.988281 78.964844 189.679688 78.304688 188.355469 77.675781 C 187.027344 77.046875 185.6875 76.453125 184.335938 75.890625 C 182.980469 75.328125 181.613281 74.800781 180.230469 74.304688 C 178.851562 73.8125 177.460938 73.351562 176.058594 72.921875 C 174.652344 72.496094 173.242188 72.105469 171.820312 71.746094 C 170.394531 71.390625 168.964844 71.066406 167.527344 70.777344 C 166.089844 70.492188 164.644531 70.238281 163.195312 70.023438 C 161.746094 69.804688 160.289062 69.625 158.832031 69.480469 C 157.371094 69.335938 155.910156 69.226562 154.445312 69.152344 C 152.980469 69.078125 151.515625 69.039062 150.046875 69.039062 Z M 150.046875 245.914062 C 148.621094 245.914062 147.191406 245.878906 145.765625 245.808594 C 144.339844 245.738281 142.917969 245.636719 141.496094 245.496094 C 140.078125 245.355469 138.660156 245.179688 137.246094 244.972656 C 135.835938 244.761719 134.429688 244.515625 133.027344 244.238281 C 131.628906 243.960938 130.234375 243.648438 128.851562 243.300781 C 127.464844 242.953125 126.089844 242.574219 124.722656 242.160156 C 123.359375 241.746094 122.003906 241.296875 120.660156 240.816406 C 119.316406 240.335938 117.984375 239.820312 116.664062 239.273438 C 115.34375 238.726562 114.039062 238.148438 112.75 237.539062 C 111.457031 236.929688 110.183594 236.289062 108.925781 235.613281 C 107.664062 234.941406 106.425781 234.238281 105.199219 233.503906 C 103.976562 232.769531 102.769531 232.007812 101.582031 231.214844 C 100.394531 230.421875 99.226562 229.597656 98.082031 228.746094 C 96.933594 227.898438 95.808594 227.019531 94.707031 226.113281 C 93.601562 225.207031 92.523438 224.277344 91.464844 223.316406 C 90.40625 222.359375 89.371094 221.375 88.363281 220.363281 C 87.351562 219.355469 86.367188 218.320312 85.410156 217.261719 C 84.453125 216.207031 83.519531 215.125 82.613281 214.019531 C 81.707031 212.917969 80.828125 211.792969 79.980469 210.644531 C 79.128906 209.5 78.308594 208.332031 77.511719 207.144531 C 76.71875 205.957031 75.957031 204.753906 75.222656 203.527344 C 74.488281 202.304688 73.785156 201.0625 73.113281 199.800781 C 72.441406 198.542969 71.796875 197.269531 71.1875 195.976562 C 70.578125 194.6875 70 193.382812 69.453125 192.0625 C 68.90625 190.742188 68.390625 189.414062 67.910156 188.066406 C 67.429688 186.722656 66.984375 185.367188 66.566406 184.003906 C 66.152344 182.636719 65.773438 181.261719 65.425781 179.875 C 65.078125 178.492188 64.765625 177.097656 64.488281 175.699219 C 64.210938 174.296875 63.964844 172.890625 63.757812 171.480469 C 63.546875 170.066406 63.371094 168.652344 63.230469 167.230469 C 63.09375 165.808594 62.988281 164.386719 62.917969 162.960938 C 62.847656 161.535156 62.8125 160.105469 62.8125 158.679688 C 62.8125 157.25 62.847656 155.824219 62.917969 154.398438 C 62.988281 152.972656 63.09375 151.550781 63.230469 150.128906 C 63.371094 148.707031 63.546875 147.292969 63.757812 145.878906 C 63.964844 144.464844 64.210938 143.058594 64.488281 141.660156 C 64.765625 140.261719 65.078125 138.867188 65.425781 137.484375 C 65.773438 136.097656 66.152344 134.722656 66.566406 133.355469 C 66.984375 131.988281 67.429688 130.632812 67.910156 129.289062 C 68.390625 127.945312 68.90625 126.613281 69.453125 125.296875 C 70 123.976562 70.578125 122.671875 71.1875 121.382812 C 71.796875 120.089844 72.441406 118.816406 73.113281 117.554688 C 73.785156 116.296875 74.488281 115.054688 75.222656 113.832031 C 75.957031 112.605469 76.71875 111.402344 77.515625 110.214844 C 78.308594 109.027344 79.128906 107.859375 79.980469 106.710938 C 80.828125 105.566406 81.707031 104.441406 82.613281 103.335938 C 83.519531 102.234375 84.453125 101.152344 85.410156 100.09375 C 86.367188 99.039062 87.351562 98.003906 88.363281 96.992188 C 89.371094 95.984375 90.40625 95 91.464844 94.042969 C 92.523438 93.082031 93.601562 92.152344 94.707031 91.246094 C 95.808594 90.339844 96.933594 89.460938 98.082031 88.609375 C 99.226562 87.761719 100.394531 86.9375 101.582031 86.144531 C 102.769531 85.351562 103.976562 84.589844 105.199219 83.855469 C 106.425781 83.121094 107.664062 82.417969 108.925781 81.742188 C 110.183594 81.070312 111.457031 80.429688 112.75 79.820312 C 114.039062 79.207031 115.34375 78.628906 116.664062 78.082031 C 117.984375 77.539062 119.316406 77.023438 120.660156 76.542969 C 122.003906 76.0625 123.359375 75.613281 124.722656 75.199219 C 126.089844 74.785156 127.464844 74.40625 128.851562 74.058594 C 130.234375 73.710938 131.628906 73.398438 133.027344 73.121094 C 134.429688 72.839844 135.835938 72.597656 137.246094 72.386719 C 138.660156 72.179688 140.078125 72.003906 141.496094 71.863281 C 142.917969 71.722656 144.339844 71.617188 145.765625 71.546875 C 147.191406 71.476562 148.621094 71.441406 150.046875 71.441406 C 151.476562 71.441406 152.902344 71.476562 154.328125 71.546875 C 155.753906 71.617188 157.175781 71.722656 158.597656 71.863281 C 160.019531 72.003906 161.4375 72.179688 162.847656 72.386719 C 164.261719 72.597656 165.667969 72.839844 167.066406 73.121094 C 168.46875 73.398438 169.859375 73.710938 171.246094 74.058594 C 172.628906 74.40625 174.003906 74.785156 175.371094 75.199219 C 176.738281 75.613281 178.09375 76.0625 179.4375 76.542969 C 180.78125 77.023438 182.113281 77.539062 183.429688 78.082031 C 184.75 78.628906 186.054688 79.207031 187.347656 79.820312 C 188.636719 80.429688 189.910156 81.070312 191.171875 81.742188 C 192.429688 82.417969 193.671875 83.121094 194.894531 83.855469 C 196.121094 84.589844 197.328125 85.351562 198.511719 86.144531 C 199.699219 86.9375 200.867188 87.761719 202.015625 88.609375 C 203.160156 89.460938 204.285156 90.339844 205.390625 91.246094 C 206.492188 92.152344 207.574219 93.082031 208.632812 94.042969 C 209.691406 95 210.722656 95.984375 211.734375 96.992188 C 212.742188 98.003906 213.726562 99.039062 214.683594 100.09375 C 215.644531 101.152344 216.578125 102.234375 217.480469 103.335938 C 218.386719 104.441406 219.265625 105.566406 220.117188 106.710938 C 220.96875 107.859375 221.789062 109.027344 222.582031 110.214844 C 223.375 111.402344 224.136719 112.605469 224.871094 113.832031 C 225.605469 115.054688 226.308594 116.296875 226.984375 117.554688 C 227.65625 118.816406 228.296875 120.089844 228.910156 121.382812 C 229.519531 122.671875 230.097656 123.976562 230.644531 125.296875 C 231.191406 126.613281 231.703125 127.945312 232.183594 129.289062 C 232.664062 130.632812 233.113281 131.988281 233.527344 133.355469 C 233.941406 134.722656 234.324219 136.097656 234.667969 137.484375 C 235.015625 138.867188 235.328125 140.261719 235.609375 141.660156 C 235.886719 143.058594 236.128906 144.464844 236.339844 145.878906 C 236.550781 147.292969 236.722656 148.707031 236.863281 150.128906 C 237.003906 151.550781 237.109375 152.972656 237.179688 154.398438 C 237.25 155.824219 237.285156 157.25 237.285156 158.679688 C 237.28125 160.105469 237.246094 161.53125 237.175781 162.957031 C 237.101562 164.382812 236.996094 165.804688 236.855469 167.226562 C 236.714844 168.648438 236.539062 170.0625 236.328125 171.476562 C 236.117188 172.886719 235.871094 174.292969 235.59375 175.691406 C 235.3125 177.089844 235 178.484375 234.652344 179.867188 C 234.304688 181.25 233.921875 182.625 233.507812 183.992188 C 233.089844 185.355469 232.640625 186.710938 232.160156 188.054688 C 231.679688 189.398438 231.164062 190.730469 230.617188 192.046875 C 230.070312 193.367188 229.492188 194.671875 228.882812 195.960938 C 228.269531 197.25 227.628906 198.523438 226.957031 199.785156 C 226.28125 201.042969 225.578125 202.28125 224.84375 203.507812 C 224.109375 204.730469 223.347656 205.9375 222.554688 207.121094 C 221.757812 208.308594 220.9375 209.476562 220.085938 210.621094 C 219.238281 211.769531 218.359375 212.890625 217.453125 213.996094 C 216.546875 215.097656 215.617188 216.179688 214.65625 217.238281 C 213.699219 218.292969 212.714844 219.328125 211.707031 220.335938 C 210.695312 221.347656 209.664062 222.328125 208.605469 223.289062 C 207.546875 224.246094 206.46875 225.179688 205.363281 226.085938 C 204.261719 226.988281 203.136719 227.867188 201.988281 228.71875 C 200.84375 229.570312 199.675781 230.390625 198.492188 231.183594 C 197.304688 231.976562 196.097656 232.742188 194.875 233.476562 C 193.652344 234.210938 192.410156 234.914062 191.152344 235.585938 C 189.894531 236.261719 188.621094 236.902344 187.328125 237.511719 C 186.039062 238.125 184.734375 238.703125 183.417969 239.25 C 182.097656 239.796875 180.769531 240.3125 179.425781 240.792969 C 178.082031 241.273438 176.726562 241.722656 175.359375 242.136719 C 173.996094 242.554688 172.621094 242.933594 171.234375 243.28125 C 169.851562 243.628906 168.460938 243.945312 167.058594 244.222656 C 165.660156 244.503906 164.253906 244.746094 162.84375 244.957031 C 161.429688 245.167969 160.015625 245.34375 158.59375 245.488281 C 157.175781 245.628906 155.753906 245.734375 154.328125 245.804688 C 152.902344 245.878906 151.476562 245.914062 150.046875 245.914062 Z M 150.046875 245.914062 " fill-opacity="1" fill-rule="nonzero"/></g><g clip-path="url(#0c9ac04a91)"><path fill="#000000" d="M 214.046875 155.363281 L 198.335938 135.636719 C 197.589844 134.691406 196.449219 134.136719 195.273438 134.136719 L 179.5625 134.136719 L 179.5625 127.589844 C 179.5625 125.417969 177.792969 123.644531 175.632812 123.644531 L 121.625 123.644531 C 119.464844 123.644531 117.699219 125.417969 117.699219 127.589844 L 117.699219 134.136719 L 101.003906 134.136719 C 98.84375 134.136719 97.078125 135.914062 97.078125 138.082031 L 97.078125 177.539062 C 97.078125 179.707031 98.84375 181.484375 101.003906 181.484375 L 117.699219 181.484375 L 117.699219 188.03125 C 117.699219 190.203125 119.464844 191.976562 121.625 191.976562 L 175.632812 191.976562 C 177.792969 191.976562 179.5625 190.203125 179.5625 188.03125 L 179.5625 181.484375 L 195.273438 181.484375 C 196.449219 181.484375 197.589844 180.929688 198.335938 179.984375 L 214.046875 160.257812 C 215.1875 158.835938 215.1875 156.785156 214.046875 155.363281 Z M 117.699219 173.59375 L 104.933594 173.59375 L 104.933594 142.027344 L 117.699219 142.027344 Z M 142.796875 131.535156 L 171.707031 131.535156 L 171.707031 134.136719 L 142.796875 134.136719 Z M 171.707031 184.085938 L 142.796875 184.085938 L 142.796875 181.484375 L 171.707031 181.484375 Z M 193.386719 173.59375 L 142.796875 173.59375 L 142.796875 161.757812 L 155.992188 161.757812 C 158.152344 161.757812 159.921875 159.980469 159.921875 157.8125 C 159.921875 155.640625 158.152344 153.867188 155.992188 153.867188 L 142.796875 153.867188 L 142.796875 142.027344 L 193.386719 142.027344 L 205.957031 157.8125 Z M 193.386719 173.59375 " fill-opacity="1" fill-rule="nonzero"/></g><path fill="#000000" d="M 171.914062 153.425781 C 169.503906 153.425781 167.550781 155.386719 167.550781 157.8125 C 167.550781 160.234375 169.503906 162.195312 171.914062 162.195312 C 174.328125 162.195312 176.28125 160.234375 176.28125 157.8125 C 176.28125 155.386719 174.328125 153.425781 171.914062 153.425781 Z M 171.914062 153.425781 " fill-opacity="1" fill-rule="nonzero"/><path fill="#000000" d="M 186.539062 157.8125 C 186.539062 160.234375 188.492188 162.195312 190.90625 162.195312 C 193.316406 162.195312 195.273438 160.234375 195.273438 157.8125 C 195.273438 155.386719 193.316406 153.425781 190.90625 153.425781 C 188.492188 153.425781 186.539062 155.386719 186.539062 157.8125 Z M 186.539062 157.8125 " fill-opacity="1" fill-rule="nonzero"/></svg>