<svg xmlns="http://www.w3.org/2000/svg" xmlns:xlink="http://www.w3.org/1999/xlink" width="400" zoomAndPan="magnify" viewBox="0 0 300 299.999988" height="400" preserveAspectRatio="xMidYMid meet" version="1.0"><defs><clipPath id="86bea3a43c"><path d="M 136 172 L 164 172 L 164 232.949219 L 136 232.949219 Z M 136 172 " clip-rule="nonzero"/></clipPath><clipPath id="96d05e7712"><path d="M 148 176 L 152 176 L 152 232.949219 L 148 232.949219 Z M 148 176 " clip-rule="nonzero"/></clipPath><clipPath id="fb7155b2b5"><path d="M 105.082031 67.199219 L 142 67.199219 L 142 106 L 105.082031 106 Z M 105.082031 67.199219 " clip-rule="nonzero"/></clipPath><clipPath id="33ef2995ab"><path d="M 158 67.199219 L 195.082031 67.199219 L 195.082031 106 L 158 106 Z M 158 67.199219 " clip-rule="nonzero"/></clipPath><clipPath id="a46319f050"><path d="M 105.082031 67.199219 L 121 67.199219 L 121 76 L 105.082031 76 Z M 105.082031 67.199219 " clip-rule="nonzero"/></clipPath></defs><g clip-path="url(#86bea3a43c)"><path fill="#000000" d="M 159.285156 232.753906 L 141.089844 232.753906 C 138.507812 232.753906 136.410156 230.660156 136.410156 228.082031 L 136.410156 174.25 C 136.410156 173.25 137.21875 172.445312 138.210938 172.445312 C 139.207031 172.445312 140.015625 173.25 140.015625 174.25 L 140.015625 228.082031 C 140.015625 228.664062 140.507812 229.152344 141.089844 229.152344 L 159.285156 229.152344 C 159.867188 229.152344 160.355469 228.664062 160.355469 228.082031 L 160.355469 174.25 C 160.355469 173.25 161.164062 172.445312 162.160156 172.445312 C 163.15625 172.445312 163.960938 173.25 163.960938 174.25 L 163.960938 228.082031 C 163.960938 230.660156 161.867188 232.753906 159.285156 232.753906 Z M 159.285156 232.753906 " fill-opacity="1" fill-rule="evenodd"/></g><g clip-path="url(#96d05e7712)"><path fill="#000000" d="M 150.1875 232.753906 C 149.191406 232.753906 148.382812 231.953125 148.382812 230.953125 L 148.382812 177.910156 C 148.382812 176.914062 149.191406 176.105469 150.1875 176.105469 C 151.179688 176.105469 151.988281 176.914062 151.988281 177.910156 L 151.988281 230.953125 C 151.988281 231.953125 151.179688 232.753906 150.1875 232.753906 Z M 150.1875 232.753906 " fill-opacity="1" fill-rule="evenodd"/></g><path fill="#000000" d="M 146.453125 132.425781 L 153.921875 132.425781 L 153.921875 110.84375 L 146.453125 110.84375 Z M 155.722656 136.027344 L 144.648438 136.027344 C 143.652344 136.027344 142.84375 135.222656 142.84375 134.230469 L 142.84375 109.042969 C 142.84375 108.046875 143.652344 107.242188 144.648438 107.242188 L 155.722656 107.242188 C 156.722656 107.242188 157.527344 108.046875 157.527344 109.042969 L 157.527344 134.230469 C 157.527344 135.222656 156.722656 136.027344 155.722656 136.027344 Z M 155.722656 136.027344 " fill-opacity="1" fill-rule="evenodd"/><path fill="#000000" d="M 150.1875 179.710938 C 138.957031 179.710938 129.820312 171.941406 129.820312 162.390625 C 129.820312 159.398438 130.789062 156.992188 131.914062 154.203125 C 133.851562 149.378906 136.507812 142.777344 136.507812 127.988281 C 136.507812 126.992188 137.316406 126.183594 138.308594 126.183594 L 144.648438 126.183594 C 145.648438 126.183594 146.453125 126.992188 146.453125 127.988281 C 146.453125 128.980469 145.648438 129.789062 144.648438 129.789062 L 140.097656 129.789062 C 139.890625 144.027344 137.226562 150.652344 135.261719 155.546875 C 134.195312 158.1875 133.425781 160.097656 133.425781 162.390625 C 133.425781 169.957031 140.949219 176.105469 150.1875 176.105469 C 159.429688 176.105469 166.945312 169.957031 166.945312 162.390625 C 166.945312 160.097656 166.179688 158.1875 165.117188 155.546875 C 163.148438 150.652344 160.484375 144.023438 160.273438 129.789062 L 155.722656 129.789062 C 154.726562 129.789062 153.921875 128.980469 153.921875 127.988281 C 153.921875 126.992188 154.726562 126.183594 155.722656 126.183594 L 162.066406 126.183594 C 163.0625 126.183594 163.867188 126.992188 163.867188 127.988281 C 163.867188 142.777344 166.523438 149.378906 168.464844 154.203125 C 169.582031 156.992188 170.550781 159.398438 170.550781 162.390625 C 170.550781 171.941406 161.414062 179.710938 150.1875 179.710938 Z M 150.1875 179.710938 " fill-opacity="1" fill-rule="evenodd"/><path fill="#000000" d="M 150.1875 156.394531 C 145.570312 156.394531 141.667969 159.140625 141.667969 162.390625 C 141.667969 165.636719 145.570312 168.386719 150.1875 168.386719 C 154.808594 168.386719 158.707031 165.636719 158.707031 162.390625 C 158.707031 159.140625 154.808594 156.394531 150.1875 156.394531 Z M 150.1875 171.988281 C 143.503906 171.988281 138.0625 167.683594 138.0625 162.390625 C 138.0625 157.09375 143.503906 152.789062 150.1875 152.789062 C 156.875 152.789062 162.3125 157.09375 162.3125 162.390625 C 162.3125 167.683594 156.875 171.988281 150.1875 171.988281 Z M 150.1875 171.988281 " fill-opacity="1" fill-rule="evenodd"/><path fill="#000000" d="M 134.597656 151.496094 C 128.449219 151.496094 127.710938 145.390625 127.109375 140.433594 C 126.703125 137.054688 126.277344 133.5625 124.628906 131.140625 C 114.667969 116.527344 120.585938 107.820312 124.996094 103.929688 C 136.765625 93.554688 163.605469 93.554688 175.378906 103.929688 C 179.789062 107.820312 185.703125 116.527344 175.746094 131.140625 C 174.09375 133.5625 173.675781 137.054688 173.265625 140.433594 C 172.628906 145.671875 171.835938 152.195312 164.667969 151.433594 C 163.675781 151.328125 162.960938 150.445312 163.066406 149.453125 C 163.171875 148.460938 164.054688 147.75 165.046875 147.851562 C 168.234375 148.191406 168.898438 146.484375 169.683594 140 C 170.125 136.371094 170.621094 132.257812 172.765625 129.113281 C 179.082031 119.839844 179.160156 112.070312 172.992188 106.632812 C 162.550781 97.429688 137.824219 97.429688 127.382812 106.632812 C 121.214844 112.070312 121.292969 119.84375 127.609375 129.113281 C 129.753906 132.257812 130.25 136.371094 130.691406 140 C 131.476562 146.484375 132.140625 148.191406 135.324219 147.851562 C 136.316406 147.75 137.203125 148.460938 137.308594 149.453125 C 137.414062 150.445312 136.695312 151.332031 135.707031 151.433594 C 135.320312 151.476562 134.953125 151.496094 134.597656 151.496094 Z M 134.597656 151.496094 " fill-opacity="1" fill-rule="evenodd"/><g clip-path="url(#fb7155b2b5)"><path fill="#000000" d="M 128.484375 105.339844 C 127.847656 105.339844 127.230469 105.003906 126.90625 104.410156 C 121.414062 94.554688 113.035156 81.734375 105.953125 75.316406 C 105.492188 74.902344 105.28125 74.277344 105.386719 73.667969 C 105.5 73.054688 105.917969 72.542969 106.492188 72.3125 L 117.65625 67.84375 C 118.292969 67.585938 119.027344 67.714844 119.535156 68.183594 C 126.941406 74.894531 135.589844 88.082031 141.214844 98.191406 C 141.699219 99.058594 141.386719 100.160156 140.515625 100.644531 C 139.644531 101.121094 138.546875 100.8125 138.0625 99.941406 C 132.789062 90.464844 124.832031 78.246094 117.933594 71.613281 L 110.414062 74.625 C 117.320312 81.726562 124.941406 93.46875 130.054688 102.660156 C 130.542969 103.527344 130.226562 104.625 129.355469 105.109375 C 129.078125 105.261719 128.777344 105.339844 128.484375 105.339844 Z M 128.484375 105.339844 " fill-opacity="1" fill-rule="evenodd"/></g><g clip-path="url(#33ef2995ab)"><path fill="#000000" d="M 171.894531 105.339844 C 171.597656 105.339844 171.296875 105.261719 171.019531 105.109375 C 170.152344 104.625 169.835938 103.527344 170.320312 102.660156 C 175.4375 93.46875 183.054688 81.726562 189.960938 74.628906 L 182.445312 71.613281 C 175.542969 78.246094 167.589844 90.464844 162.308594 99.941406 C 161.824219 100.8125 160.726562 101.121094 159.855469 100.644531 C 158.988281 100.160156 158.671875 99.058594 159.15625 98.191406 C 164.785156 88.082031 173.433594 74.894531 180.839844 68.183594 C 181.351562 67.714844 182.078125 67.585938 182.722656 67.84375 L 193.878906 72.3125 C 194.457031 72.542969 194.875 73.054688 194.984375 73.667969 C 195.097656 74.277344 194.882812 74.902344 194.421875 75.316406 C 187.34375 81.734375 178.957031 94.554688 173.472656 104.410156 C 173.140625 105.003906 172.527344 105.339844 171.894531 105.339844 Z M 171.894531 105.339844 " fill-opacity="1" fill-rule="evenodd"/></g><path fill="#000000" d="M 150.1875 222.25 L 143.667969 222.25 C 142.671875 222.25 141.863281 221.441406 141.863281 220.449219 C 141.863281 219.449219 142.671875 218.644531 143.667969 218.644531 L 150.1875 218.644531 C 151.179688 218.644531 151.988281 219.449219 151.988281 220.449219 C 151.988281 221.441406 151.179688 222.25 150.1875 222.25 Z M 150.1875 222.25 " fill-opacity="1" fill-rule="evenodd"/><path fill="#000000" d="M 150.1875 213.738281 L 143.667969 213.738281 C 142.671875 213.738281 141.863281 212.933594 141.863281 211.9375 C 141.863281 210.941406 142.671875 210.136719 143.667969 210.136719 L 150.1875 210.136719 C 151.179688 210.136719 151.988281 210.941406 151.988281 211.9375 C 151.988281 212.933594 151.179688 213.738281 150.1875 213.738281 Z M 150.1875 213.738281 " fill-opacity="1" fill-rule="evenodd"/><path fill="#000000" d="M 150.1875 205.234375 L 143.667969 205.234375 C 142.671875 205.234375 141.863281 204.425781 141.863281 203.433594 C 141.863281 202.433594 142.671875 201.628906 143.667969 201.628906 L 150.1875 201.628906 C 151.179688 201.628906 151.988281 202.433594 151.988281 203.433594 C 151.988281 204.425781 151.179688 205.234375 150.1875 205.234375 Z M 150.1875 205.234375 " fill-opacity="1" fill-rule="evenodd"/><path fill="#000000" d="M 150.1875 196.726562 L 143.667969 196.726562 C 142.671875 196.726562 141.863281 195.917969 141.863281 194.921875 C 141.863281 193.929688 142.671875 193.121094 143.667969 193.121094 L 150.1875 193.121094 C 151.179688 193.121094 151.988281 193.929688 151.988281 194.921875 C 151.988281 195.917969 151.179688 196.726562 150.1875 196.726562 Z M 150.1875 196.726562 " fill-opacity="1" fill-rule="evenodd"/><path fill="#000000" d="M 150.1875 188.214844 L 143.667969 188.214844 C 142.671875 188.214844 141.863281 187.414062 141.863281 186.414062 C 141.863281 185.417969 142.671875 184.613281 143.667969 184.613281 L 150.1875 184.613281 C 151.179688 184.613281 151.988281 185.417969 151.988281 186.414062 C 151.988281 187.414062 151.179688 188.214844 150.1875 188.214844 Z M 150.1875 188.214844 " fill-opacity="1" fill-rule="evenodd"/><path fill="#000000" d="M 156.703125 226.5 L 150.1875 226.5 C 149.191406 226.5 148.382812 225.695312 148.382812 224.699219 C 148.382812 223.707031 149.191406 222.898438 150.1875 222.898438 L 156.703125 222.898438 C 157.699219 222.898438 158.507812 223.707031 158.507812 224.699219 C 158.507812 225.695312 157.699219 226.5 156.703125 226.5 Z M 156.703125 226.5 " fill-opacity="1" fill-rule="evenodd"/><path fill="#000000" d="M 156.703125 217.992188 L 150.1875 217.992188 C 149.191406 217.992188 148.382812 217.1875 148.382812 216.191406 C 148.382812 215.195312 149.191406 214.390625 150.1875 214.390625 L 156.703125 214.390625 C 157.699219 214.390625 158.507812 215.195312 158.507812 216.191406 C 158.507812 217.1875 157.699219 217.992188 156.703125 217.992188 Z M 156.703125 217.992188 " fill-opacity="1" fill-rule="evenodd"/><path fill="#000000" d="M 156.703125 209.488281 L 150.1875 209.488281 C 149.191406 209.488281 148.382812 208.679688 148.382812 207.6875 C 148.382812 206.691406 149.191406 205.882812 150.1875 205.882812 L 156.703125 205.882812 C 157.699219 205.882812 158.507812 206.691406 158.507812 207.6875 C 158.507812 208.679688 157.699219 209.488281 156.703125 209.488281 Z M 156.703125 209.488281 " fill-opacity="1" fill-rule="evenodd"/><path fill="#000000" d="M 156.703125 200.976562 L 150.1875 200.976562 C 149.191406 200.976562 148.382812 200.171875 148.382812 199.175781 C 148.382812 198.179688 149.191406 197.375 150.1875 197.375 L 156.703125 197.375 C 157.699219 197.375 158.507812 198.179688 158.507812 199.175781 C 158.507812 200.171875 157.699219 200.976562 156.703125 200.976562 Z M 156.703125 200.976562 " fill-opacity="1" fill-rule="evenodd"/><path fill="#000000" d="M 156.703125 192.472656 L 150.1875 192.472656 C 149.191406 192.472656 148.382812 191.664062 148.382812 190.671875 C 148.382812 189.675781 149.191406 188.871094 150.1875 188.871094 L 156.703125 188.871094 C 157.699219 188.871094 158.507812 189.675781 158.507812 190.671875 C 158.507812 191.664062 157.699219 192.472656 156.703125 192.472656 Z M 156.703125 192.472656 " fill-opacity="1" fill-rule="evenodd"/><g clip-path="url(#a46319f050)"><path fill="#000000" d="M 107.164062 75.785156 C 106.453125 75.785156 105.773438 75.359375 105.488281 74.65625 C 105.121094 73.734375 105.570312 72.683594 106.492188 72.3125 L 117.65625 67.84375 C 118.578125 67.472656 119.628906 67.921875 120 68.847656 C 120.371094 69.769531 119.921875 70.816406 118.996094 71.1875 L 107.835938 75.660156 C 107.617188 75.746094 107.386719 75.785156 107.164062 75.785156 Z M 107.164062 75.785156 " fill-opacity="1" fill-rule="evenodd"/></g><path fill="#000000" d="M 114.230469 83.574219 C 113.519531 83.574219 112.84375 83.148438 112.558594 82.445312 C 112.1875 81.523438 112.636719 80.472656 113.558594 80.101562 L 124.722656 75.632812 C 125.644531 75.261719 126.699219 75.710938 127.066406 76.636719 C 127.4375 77.558594 126.988281 78.605469 126.0625 78.976562 L 114.90625 83.449219 C 114.683594 83.535156 114.457031 83.574219 114.230469 83.574219 Z M 114.230469 83.574219 " fill-opacity="1" fill-rule="evenodd"/><path fill="#000000" d="M 119.179688 90.320312 C 118.460938 90.320312 117.785156 89.890625 117.503906 89.1875 C 117.132812 88.261719 117.582031 87.214844 118.507812 86.84375 L 129.667969 82.375 C 130.59375 82.007812 131.640625 82.453125 132.015625 83.375 C 132.386719 84.300781 131.933594 85.351562 131.011719 85.722656 L 119.847656 90.1875 C 119.632812 90.277344 119.402344 90.320312 119.179688 90.320312 Z M 119.179688 90.320312 " fill-opacity="1" fill-rule="evenodd"/><path fill="#000000" d="M 123.753906 97.316406 C 123.039062 97.316406 122.359375 96.890625 122.078125 96.1875 C 121.707031 95.265625 122.15625 94.210938 123.078125 93.84375 L 134.242188 89.375 C 135.167969 89.003906 136.214844 89.453125 136.585938 90.375 C 136.957031 91.300781 136.507812 92.347656 135.582031 92.71875 L 124.421875 97.1875 C 124.203125 97.277344 123.972656 97.316406 123.753906 97.316406 Z M 123.753906 97.316406 " fill-opacity="1" fill-rule="evenodd"/><path fill="#000000" d="M 186.140625 83.574219 C 185.917969 83.574219 185.691406 83.535156 185.46875 83.449219 L 174.308594 78.976562 C 173.386719 78.605469 172.9375 77.558594 173.304688 76.636719 C 173.679688 75.710938 174.726562 75.261719 175.648438 75.632812 L 186.8125 80.101562 C 187.734375 80.472656 188.1875 81.523438 187.816406 82.445312 C 187.535156 83.148438 186.855469 83.574219 186.140625 83.574219 Z M 186.140625 83.574219 " fill-opacity="1" fill-rule="evenodd"/><path fill="#000000" d="M 181.195312 90.320312 C 180.972656 90.320312 180.746094 90.277344 180.527344 90.1875 L 169.367188 85.722656 C 168.441406 85.351562 167.992188 84.300781 168.363281 83.375 C 168.730469 82.453125 169.78125 82.007812 170.707031 82.375 L 181.867188 86.84375 C 182.792969 87.214844 183.238281 88.261719 182.871094 89.1875 C 182.589844 89.890625 181.910156 90.320312 181.195312 90.320312 Z M 181.195312 90.320312 " fill-opacity="1" fill-rule="evenodd"/><path fill="#000000" d="M 176.625 97.316406 C 176.398438 97.316406 176.171875 97.277344 175.953125 97.1875 L 164.792969 92.71875 C 163.867188 92.347656 163.417969 91.300781 163.789062 90.375 C 164.160156 89.453125 165.210938 89.003906 166.132812 89.375 L 177.292969 93.84375 C 178.222656 94.210938 178.667969 95.265625 178.296875 96.1875 C 178.015625 96.890625 177.335938 97.316406 176.625 97.316406 Z M 176.625 97.316406 " fill-opacity="1" fill-rule="evenodd"/></svg>