<?xml version="1.0" encoding="UTF-8" standalone="no"?>
<svg
   xmlns:dc="http://purl.org/dc/elements/1.1/"
   xmlns:cc="http://creativecommons.org/ns#"
   xmlns:rdf="http://www.w3.org/1999/02/22-rdf-syntax-ns#"
   xmlns:svg="http://www.w3.org/2000/svg"
   xmlns="http://www.w3.org/2000/svg"
   viewBox="0 0 37.795334 37.795334"
   height="37.795334"
   width="37.795334"
   xml:space="preserve"
   id="svg2"
   version="1.1"><metadata
     id="metadata8"><rdf:RDF><cc:Work
         rdf:about=""><dc:format>image/svg+xml</dc:format><dc:type
           rdf:resource="http://purl.org/dc/dcmitype/StillImage" /></cc:Work></rdf:RDF></metadata><defs
     id="defs6"><clipPath
       id="clipPath34"
       clipPathUnits="userSpaceOnUse"><path
         id="path32"
         d="M 0,28.346 H 28.346 V 0 H 0 Z" /></clipPath></defs><g
     transform="matrix(1.3333333,0,0,-1.3333333,0,37.795333)"
     id="g10"><path
       id="path12"
       style="fill:#2b2b2a;fill-opacity:1;fill-rule:nonzero;stroke:none"
       d="M 9.794,19.068 H 8.77 v 3.692 h 1.024 z" /><path
       id="path14"
       style="fill:#2b2b2a;fill-opacity:1;fill-rule:nonzero;stroke:none"
       d="M 8.769,17.777 H 9.784 V 14.078 H 8.769 Z" /><path
       id="path16"
       style="fill:#2b2b2a;fill-opacity:1;fill-rule:nonzero;stroke:none"
       d="M 8.761,12.88 H 9.783 V 9.18 H 8.761 Z" /><path
       id="path18"
       style="fill:#2b2b2a;fill-opacity:1;fill-rule:nonzero;stroke:none"
       d="M 9.788,4.181 H 8.765 v 3.687 h 1.023 z" /><path
       id="path20"
       style="fill:#2b2b2a;fill-opacity:1;fill-rule:nonzero;stroke:none"
       d="m 12.007,19.062 h -1.024 v 3.692 h 1.024 z" /><path
       id="path22"
       style="fill:#2b2b2a;fill-opacity:1;fill-rule:nonzero;stroke:none"
       d="m 10.982,17.771 h 1.015 v -3.699 h -1.015 z" /><path
       id="path24"
       style="fill:#2b2b2a;fill-opacity:1;fill-rule:nonzero;stroke:none"
       d="m 10.974,12.874 h 1.022 v -3.7 h -1.022 z" /><path
       id="path26"
       style="fill:#2b2b2a;fill-opacity:1;fill-rule:nonzero;stroke:none"
       d="m 12.001,4.175 h -1.023 v 3.687 h 1.023 z" /><g
       id="g28"><g
         clip-path="url(#clipPath34)"
         id="g30"><g
           transform="translate(18.2347,23.0704)"
           id="g36"><path
             id="path38"
             style="fill:#2b2b2a;fill-opacity:1;fill-rule:nonzero;stroke:none"
             d="M 0,0 C 0.142,-0.024 0.566,-0.164 0.475,-0.6 0.384,-1.035 0.323,-1.153 0.156,-1.487 -0.012,-1.82 -0.301,-2.295 -0.361,-2.35 -0.507,-2.488 -0.72,-2.448 -0.769,-2.266 -0.803,-2.168 -0.823,-1.06 -0.676,-0.475 -0.528,0.109 -0.15,0.025 0,0 m 1.178,-1.867 c 0.383,1.104 0.124,2.049 -0.716,2.321 -0.485,0.156 -2.036,0.552 -2.327,-1.623 -0.113,-1.006 -2.319,-17.543 -2.31,-17.597 0,-0.095 0.097,-0.16 0.163,-0.05 0.066,0.109 4.944,16.24 5.19,16.949" /></g></g></g></g></svg>