<?xml version="1.0" encoding="UTF-8" standalone="no"?>
<svg
   xmlns:dc="http://purl.org/dc/elements/1.1/"
   xmlns:cc="http://creativecommons.org/ns#"
   xmlns:rdf="http://www.w3.org/1999/02/22-rdf-syntax-ns#"
   xmlns:svg="http://www.w3.org/2000/svg"
   xmlns="http://www.w3.org/2000/svg"
   viewBox="0 0 37.795334 37.795334"
   height="37.795334"
   width="37.795334"
   xml:space="preserve"
   id="svg2"
   version="1.1"><metadata
     id="metadata8"><rdf:RDF><cc:Work
         rdf:about=""><dc:format>image/svg+xml</dc:format><dc:type
           rdf:resource="http://purl.org/dc/dcmitype/StillImage" /></cc:Work></rdf:RDF></metadata><defs
     id="defs6"><clipPath
       id="clipPath22"
       clipPathUnits="userSpaceOnUse"><path
         id="path20"
         d="M 0,28.346 H 28.346 V 0 H 0 Z" /></clipPath></defs><g
     transform="matrix(1.3333333,0,0,-1.3333333,0,37.795333)"
     id="g10"><g
       transform="translate(6.2344,14.1731)"
       id="g12"><path
         id="path14"
         style="fill:#2b2b2a;fill-opacity:1;fill-rule:nonzero;stroke:none"
         d="M 0,0 7.939,7.939 15.878,0 7.939,-7.938 Z m 7.939,9.2 -9.2,-9.2 9.2,-9.2 9.2,9.2 z" /></g><g
       id="g16"><g
         clip-path="url(#clipPath22)"
         id="g18"><g
           transform="translate(8.8384,15.2244)"
           id="g24"><path
             id="path26"
             style="fill:#2b2b2a;fill-opacity:1;fill-rule:nonzero;stroke:none"
             d="m 0,0 c -0.152,0.152 -0.398,0.152 -0.55,0 l -0.344,-0.344 c -0.152,-0.152 -0.152,-0.398 0,-0.55 l 4.758,-4.757 c 0.152,-0.153 0.398,-0.153 0.55,0 l 0.344,0.343 c 0.152,0.152 0.152,0.398 0,0.55 z" /></g><g
           transform="translate(20.3193,14.2029)"
           id="g28"><path
             id="path30"
             style="fill:#2b2b2a;fill-opacity:1;fill-rule:nonzero;stroke:none"
             d="m 0,0 -4.823,4.823 c -0.134,0.134 -0.351,0.134 -0.485,0 L -5.424,4.707 c -0.134,-0.134 -0.134,-0.351 0,-0.484 l 4.823,-4.824 c 0.134,-0.133 0.351,-0.133 0.485,0 L 0,-0.484 C 0.134,-0.351 0.134,-0.134 0,0" /></g><g
           transform="translate(15.085,12.5789)"
           id="g32"><path
             id="path34"
             style="fill:#2b2b2a;fill-opacity:1;fill-rule:nonzero;stroke:none"
             d="m 0,0 c -0.126,0.127 -0.332,0.127 -0.458,0 l -0.268,-0.268 c -0.127,-0.127 -0.127,-0.332 0,-0.459 l 1.777,-1.776 c 0.126,-0.127 0.331,-0.127 0.458,0 l 0.267,0.268 c 0.127,0.127 0.127,0.332 0,0.459 z" /></g><g
           transform="translate(15.1543,13.6272)"
           id="g36"><path
             id="path38"
             style="fill:#2b2b2a;fill-opacity:1;fill-rule:nonzero;stroke:none"
             d="m 0,0 0.399,0.399 c 0.149,0.148 0.149,0.389 0,0.537 l -2.256,2.257 0.398,0.398 c 0.148,0.148 0.148,0.388 0,0.537 l -1.042,1.041 c -0.148,0.148 -0.389,0.148 -0.537,0 L -3.437,4.77 c -0.148,-0.148 -0.148,-0.388 0,-0.537 L -3.039,3.835 -3.437,3.437 C -3.585,3.289 -3.585,3.048 -3.437,2.9 L -0.537,0 C -0.389,-0.148 -0.148,-0.148 0,0" /></g></g></g></g></svg>