<?xml version="1.0" encoding="UTF-8"?><svg id="Layer_2" xmlns="http://www.w3.org/2000/svg" viewBox="0 0 120 120"><g id="Layer_1-2"><path d="m60,0C26.92,0,0,26.92,0,60s26.92,60,60,60,60-26.92,60-60S93.08,0,60,0Zm0,118.4C27.8,118.4,1.6,92.2,1.6,60S27.8,1.6,60,1.6s58.4,26.2,58.4,58.4-26.2,58.4-58.4,58.4Z"/><path d="m77.62,34.17c.89,1.04,2.21,1.7,3.67,1.7,2.67,0,4.84-2.17,4.84-4.84s-2.17-4.84-4.84-4.84c-2.53,0-4.61,1.95-4.82,4.43l-16.46,5.53-16.47-5.53c-.21-2.47-2.29-4.42-4.82-4.42-2.67,0-4.84,2.17-4.84,4.84s2.17,4.84,4.84,4.84c1.47,0,2.79-.66,3.68-1.7l11.74,3.95-11.83,3.97c-.89-.99-2.17-1.61-3.6-1.61-2.67,0-4.84,2.17-4.84,4.84s2.17,4.84,4.84,4.84,4.67-2.01,4.83-4.54l16.47-5.53,16.45,5.53c.15,2.53,2.26,4.55,4.83,4.55s4.84-2.17,4.84-4.84-2.17-4.84-4.84-4.84c-1.43,0-2.71.62-3.59,1.61l-11.82-3.97,11.73-3.94Zm3.67-6.38c1.79,0,3.24,1.45,3.24,3.24s-1.45,3.24-3.24,3.24c-.74,0-1.42-.25-1.96-.67l2.33-.78c.98-.33,1.51-1.39,1.18-2.37-.33-.98-1.39-1.51-2.37-1.18l-2.25.76c.42-1.3,1.64-2.24,3.08-2.24Zm-42.57,6.48c-1.79,0-3.24-1.45-3.24-3.24s1.45-3.24,3.24-3.24c1.44,0,2.65.94,3.08,2.23l-2.24-.75c-.98-.33-2.04.2-2.37,1.18-.33.98.2,2.04,1.18,2.37l2.32.78c-.55.42-1.23.67-1.97.67Zm0,14.29c-1.79,0-3.24-1.45-3.24-3.24s1.45-3.24,3.24-3.24c.69,0,1.33.22,1.86.59l-2.21.74c-.98.33-1.51,1.39-1.18,2.37.26.78.99,1.28,1.77,1.28.2,0,.4-.03.6-.1l2.28-.77c-.38,1.36-1.63,2.37-3.12,2.37Zm42.57-6.48c1.79,0,3.24,1.45,3.24,3.24s-1.45,3.24-3.24,3.24c-1.48,0-2.74-1.01-3.12-2.37l2.29.77c.2.07.4.1.6.1.78,0,1.51-.49,1.77-1.28.33-.98-.2-2.04-1.18-2.37l-2.22-.75c.53-.37,1.17-.59,1.86-.59Z"/><path d="m77.61,61.23c.89,1.04,2.21,1.7,3.67,1.7,2.67,0,4.84-2.17,4.84-4.84s-2.17-4.84-4.84-4.84c-2.53,0-4.61,1.95-4.82,4.43l-16.46,5.53-16.47-5.53c-.21-2.47-2.29-4.42-4.82-4.42-2.67,0-4.84,2.17-4.84,4.84s2.17,4.84,4.84,4.84c1.47,0,2.79-.66,3.68-1.7l11.74,3.95-11.83,3.97c-.89-.99-2.17-1.61-3.6-1.61-2.67,0-4.84,2.17-4.84,4.84s2.17,4.84,4.84,4.84,4.67-2.01,4.83-4.54l16.47-5.53,16.45,5.53c.15,2.53,2.26,4.55,4.83,4.55s4.84-2.17,4.84-4.84-2.17-4.84-4.84-4.84c-1.43,0-2.71.62-3.59,1.61l-11.82-3.97,11.73-3.94Zm3.67-6.38c1.79,0,3.24,1.45,3.24,3.24s-1.45,3.24-3.24,3.24c-.74,0-1.42-.25-1.96-.67l2.33-.78c.98-.33,1.51-1.39,1.18-2.37-.33-.98-1.39-1.51-2.37-1.18l-2.25.76c.42-1.3,1.64-2.24,3.08-2.24Zm-42.57,6.48c-1.79,0-3.24-1.45-3.24-3.24s1.45-3.24,3.24-3.24c1.44,0,2.65.94,3.08,2.24l-2.24-.75c-.98-.33-2.04.2-2.37,1.18-.33.98.2,2.04,1.18,2.37l2.32.78c-.55.42-1.23.67-1.97.67Zm0,14.29c-1.79,0-3.24-1.45-3.24-3.24s1.45-3.24,3.24-3.24c.69,0,1.33.22,1.86.59l-2.21.74c-.98.33-1.51,1.39-1.18,2.37.26.78.99,1.28,1.77,1.28.2,0,.4-.03.6-.1l2.28-.77c-.38,1.36-1.63,2.37-3.12,2.37Zm42.57-6.48c1.79,0,3.24,1.45,3.24,3.24s-1.45,3.24-3.24,3.24c-1.48,0-2.74-1.01-3.12-2.37l2.29.77c.2.07.4.1.6.1.78,0,1.51-.49,1.77-1.28.33-.98-.2-2.04-1.18-2.37l-2.22-.75c.53-.37,1.17-.59,1.85-.59Z"/></g></svg>