<?xml version="1.0" encoding="UTF-8" standalone="no"?>
<!-- Created with Inkscape (http://www.inkscape.org/) -->

<svg
   version="1.1"
   id="svg2"
   xml:space="preserve"
   width="266.66666"
   height="266.66666"
   viewBox="0 0 266.66666 266.66666"
   sodipodi:docname="Icon_Lace Up.ai"
   xmlns:inkscape="http://www.inkscape.org/namespaces/inkscape"
   xmlns:sodipodi="http://sodipodi.sourceforge.net/DTD/sodipodi-0.dtd"
   xmlns="http://www.w3.org/2000/svg"
   xmlns:svg="http://www.w3.org/2000/svg"><defs
     id="defs6"><clipPath
       clipPathUnits="userSpaceOnUse"
       id="clipPath16"><path
         d="M 0,200 H 200 V 0 H 0 Z"
         id="path14" /></clipPath></defs><sodipodi:namedview
     id="namedview4"
     pagecolor="#ffffff"
     bordercolor="#666666"
     borderopacity="1.0"
     inkscape:pageshadow="2"
     inkscape:pageopacity="0.0"
     inkscape:pagecheckerboard="0" /><g
     id="g8"
     inkscape:groupmode="layer"
     inkscape:label="Icon_Lace Up"
     transform="matrix(1.3333333,0,0,-1.3333333,0,266.66667)"><g
       id="g10"><g
         id="g12"
         clip-path="url(#clipPath16)"><g
           id="g18"
           transform="translate(153.4756,71.9648)"><path
             d="M 0,0 C -3.55,0 -6.57,2.281 -7.693,5.451 L -2.36,3.682 c 0.522,-0.174 1.052,-0.256 1.575,-0.256 2.096,0 4.049,1.328 4.745,3.427 0.869,2.621 -0.551,5.45 -3.172,6.32 l -5.338,1.771 c 1.301,0.876 2.867,1.389 4.55,1.389 4.503,0 8.166,-3.664 8.166,-8.167 C 8.166,3.663 4.503,0 0,0 m -106.951,0 c -4.503,0 -8.166,3.663 -8.166,8.166 0,4.503 3.663,8.167 8.166,8.167 1.683,0 3.249,-0.513 4.55,-1.389 l -5.339,-1.771 c -2.62,-0.87 -4.04,-3.699 -3.171,-6.32 0.697,-2.099 2.649,-3.427 4.745,-3.427 0.522,0 1.053,0.082 1.576,0.256 l 5.331,1.769 C -100.381,2.281 -103.401,0 -106.951,0 m -0.01,35.488 c -4.503,0 -8.166,3.663 -8.166,8.166 0,4.503 3.663,8.167 8.166,8.167 3.55,0 6.57,-2.281 7.692,-5.451 l -5.321,1.766 c -2.618,0.866 -5.451,-0.55 -6.321,-3.171 -0.869,-2.621 0.551,-5.451 3.171,-6.32 l 5.329,-1.768 c -1.302,-0.876 -2.867,-1.389 -4.55,-1.389 M 0.01,51.821 c 4.503,0 8.166,-3.664 8.166,-8.167 0,-4.503 -3.663,-8.166 -8.166,-8.166 -1.683,0 -3.249,0.513 -4.55,1.389 l 5.328,1.768 c 2.621,0.869 4.041,3.699 3.172,6.32 -0.87,2.621 -3.702,4.037 -6.32,3.171 L -7.682,46.37 c 1.123,3.17 4.142,5.451 7.692,5.451 M 0,20.333 c -3.533,0 -6.708,-1.523 -8.933,-3.935 l -28.665,9.511 28.676,9.514 c 2.224,-2.412 5.4,-3.935 8.932,-3.935 6.708,0 12.166,5.458 12.166,12.166 0,6.709 -5.458,12.167 -12.166,12.167 -6.285,0 -11.473,-4.792 -12.102,-10.914 l -41.384,-13.73 -41.383,13.73 c -0.629,6.122 -5.816,10.914 -12.102,10.914 -6.708,0 -12.166,-5.458 -12.166,-12.167 0,-6.708 5.458,-12.166 12.166,-12.166 3.532,0 6.708,1.522 8.933,3.934 l 28.675,-9.513 -28.665,-9.511 c -2.225,2.413 -5.4,3.935 -8.933,3.935 -6.708,0 -12.166,-5.458 -12.166,-12.167 0,-6.708 5.458,-12.166 12.166,-12.166 6.286,0 11.473,4.792 12.102,10.914 L -53.476,20.641 -12.103,6.914 C -11.474,0.792 -6.286,-4 0,-4 6.708,-4 12.166,1.458 12.166,8.166 12.166,14.875 6.708,20.333 0,20.333"
             style="fill:#000000;fill-opacity:1;fill-rule:nonzero;stroke:none"
             id="path20" /></g></g></g></g></svg>
