<?xml version="1.0" encoding="UTF-8" standalone="no"?>
<svg
   xmlns:dc="http://purl.org/dc/elements/1.1/"
   xmlns:cc="http://creativecommons.org/ns#"
   xmlns:rdf="http://www.w3.org/1999/02/22-rdf-syntax-ns#"
   xmlns:svg="http://www.w3.org/2000/svg"
   xmlns="http://www.w3.org/2000/svg"
   viewBox="0 0 37.795334 37.795334"
   height="37.795334"
   width="37.795334"
   xml:space="preserve"
   id="svg2"
   version="1.1"><metadata
     id="metadata8"><rdf:RDF><cc:Work
         rdf:about=""><dc:format>image/svg+xml</dc:format><dc:type
           rdf:resource="http://purl.org/dc/dcmitype/StillImage" /></cc:Work></rdf:RDF></metadata><defs
     id="defs6"><clipPath
       id="clipPath18"
       clipPathUnits="userSpaceOnUse"><path
         id="path16"
         d="M 0,28.346 H 28.346 V 0 H 0 Z" /></clipPath></defs><g
     transform="matrix(1.3333333,0,0,-1.3333333,0,37.795333)"
     id="g10"><g
       id="g12"><g
         clip-path="url(#clipPath18)"
         id="g14"><g
           transform="translate(21.624,11.1961)"
           id="g20"><path
             id="path22"
             style="fill:#2b2b2a;fill-opacity:1;fill-rule:nonzero;stroke:none"
             d="m 0,0 c -0.049,0.145 -0.186,0.249 -0.346,0.249 -0.189,0 -0.345,-0.145 -0.363,-0.33 C -0.9,-0.087 -1.093,-0.092 -1.284,-0.097 L -1.5,-0.102 v 0.086 c 0,0.202 -0.164,0.365 -0.364,0.365 -0.201,0 -0.365,-0.163 -0.365,-0.365 V -0.121 L -2.417,-0.126 C -2.6,-0.13 -2.782,-0.135 -2.966,-0.14 v 0.051 c 0,0.201 -0.163,0.364 -0.364,0.364 -0.201,0 -0.364,-0.163 -0.364,-0.364 v -0.063 c -2,-0.035 -4.032,-0.047 -5.998,-0.059 L -9.95,-0.213 c -0.143,-0.001 -0.287,-0.001 -0.431,-0.001 -0.423,0 -0.847,0.003 -1.27,0.008 v 0.04 c 0,0.201 -0.163,0.364 -0.364,0.364 -0.201,0 -0.365,-0.163 -0.365,-0.364 v -0.031 l -0.459,0.006 -0.33,0.004 v 0.122 c 0,0.2 -0.164,0.364 -0.365,0.364 -0.201,0 -0.365,-0.164 -0.365,-0.364 v -0.116 c -0.245,0.002 -0.491,0.004 -0.736,0.004 v 0.037 c 0,0.202 -0.163,0.366 -0.365,0.366 -0.201,0 -0.364,-0.164 -0.364,-0.366 v -0.039 h -0.081 c -0.167,0 -0.334,0 -0.501,-0.003 h -0.044 c -0.325,0 -0.538,0.06 -0.651,0.184 -0.108,0.118 -0.148,0.32 -0.121,0.618 0.02,0.225 0.038,0.449 0.057,0.675 l 0.014,0.167 10e-4,0.022 0.01,0.121 0.009,0.107 0.008,0.099 0.275,3.196 c 0.072,0.495 0.463,1.36 0.63,1.54 0.068,-0.037 0.191,-0.122 0.302,-0.198 0.611,-0.419 1.748,-1.2 2.954,-1.2 0.124,0 0.248,0.009 0.366,0.026 1.685,0.237 1.771,0.385 2.043,1.658 l 0.033,0.155 c 0.181,0.84 0.262,1.18 0.453,1.18 0.184,0 0.542,-0.188 1.038,-0.448 C -8.013,7.428 -7.471,7.139 -6.947,6.806 -4.158,5.034 -1.471,3.758 1.27,2.905 1.335,2.884 1.396,2.861 1.448,2.836 L 1.492,2.804 C 1.497,2.801 1.501,2.798 1.506,2.794 L 1.566,2.75 1.569,2.751 C 1.577,2.746 1.586,2.741 1.594,2.735 1.636,2.708 1.678,2.68 1.709,2.657 1.823,2.489 1.884,2.246 1.865,2.015 1.788,1.032 1.047,0.24 0,0 M 1.824,2.765 C 1.762,2.818 1.654,2.88 1.585,2.931 v 10e-4 0 c 0,0 0,0 -10e-4,0 C 1.568,2.943 1.552,2.956 1.541,2.966 1.476,2.999 1.4,3.029 1.316,3.055 c -2.906,0.904 -5.61,2.251 -8.179,3.884 -0.527,0.334 -1.08,0.63 -1.633,0.92 -0.558,0.293 -0.891,0.467 -1.111,0.467 -0.326,0 -0.407,-0.377 -0.607,-1.305 -0.29,-1.348 -0.244,-1.451 -1.944,-1.69 -0.114,-0.017 -0.23,-0.024 -0.344,-0.024 -1.569,0 -3.07,1.413 -3.27,1.414 -0.002,0 -0.003,-0.001 -0.005,-0.001 -0.195,-0.023 -0.689,-1.151 -0.766,-1.69 l -0.276,-3.206 h -0.001 c -0.002,-0.028 -0.005,-0.055 -0.007,-0.084 -0.006,-0.081 -0.013,-0.162 -0.02,-0.243 -0.005,-0.063 -0.01,-0.127 -0.015,-0.189 -0.018,-0.225 -0.037,-0.45 -0.057,-0.674 -0.063,-0.704 0.217,-0.973 0.929,-0.973 h 0.047 c 0.245,0.004 0.49,0.003 0.736,0.004 v 0.195 c 0,0.116 0.093,0.208 0.207,0.208 0.115,0 0.208,-0.092 0.208,-0.208 v -0.194 c 0.35,0 0.7,-0.002 1.05,-0.005 v 0.274 c 0,0.114 0.093,0.207 0.208,0.207 0.115,0 0.207,-0.093 0.207,-0.207 v -0.278 c 0.368,-0.005 0.736,-0.009 1.104,-0.013 v 0.19 c 0,0.114 0.093,0.207 0.208,0.207 0.114,0 0.207,-0.093 0.207,-0.207 v -0.195 c 0.476,-0.006 0.952,-0.01 1.427,-0.01 0.144,0 0.288,0 0.432,0.001 2.137,0.014 4.275,0.025 6.412,0.063 v 0.218 c 0,0.114 0.093,0.207 0.207,0.207 0.114,0 0.207,-0.093 0.207,-0.207 V -0.3 c 0.351,0.007 0.701,0.018 1.051,0.026 v 0.258 c 0,0.115 0.093,0.207 0.208,0.207 0.114,0 0.207,-0.092 0.207,-0.207 v -0.247 c 0.357,0.01 0.715,0.017 1.071,0.029 0.012,0 0.022,0.002 0.033,0.002 v 0.116 c 0,0.115 0.093,0.208 0.207,0.208 0.115,0 0.207,-0.093 0.207,-0.208 V -0.187 C 1.105,0.023 1.937,0.92 2.022,2.002 2.045,2.297 1.96,2.579 1.824,2.765" /></g><g
           transform="translate(12.7559,18.3909)"
           id="g24"><path
             id="path26"
             style="fill:#2b2b2a;fill-opacity:1;fill-rule:nonzero;stroke:none"
             d="M 0,0 C -0.226,0.118 -0.472,0.248 -0.64,0.325 -0.692,0.139 -0.752,-0.141 -0.811,-0.414 l -0.033,-0.153 c -0.325,-1.526 -0.621,-1.772 -2.438,-2.028 -0.14,-0.02 -0.286,-0.03 -0.432,-0.03 -1.271,0 -2.423,0.738 -3.098,1.199 -0.135,-0.292 -0.28,-0.681 -0.319,-0.921 l -0.235,-2.735 c 0.747,-0.105 2.04,-0.194 3.272,-0.268 1.665,-0.101 3.623,-0.152 5.819,-0.152 1.844,0 3.18,0.038 3.205,0.039 0.799,0.008 3.059,0.071 3.901,0.247 0.348,0.073 0.593,0.286 0.74,0.478 -2.66,0.863 -5.276,2.123 -7.984,3.843 C 1.079,-0.571 0.546,-0.287 0,0" /></g></g></g></g></svg>