<?xml version="1.0" encoding="UTF-8"?><svg id="Layer_2" xmlns="http://www.w3.org/2000/svg" viewBox="0 0 120 120"><g id="Layer_1-2"><path d="m60,0C26.92,0,0,26.92,0,60s26.92,60,60,60,60-26.92,60-60S93.08,0,60,0Zm-14.29,71.68l.77.65-5.77,5.91-.6-.28c-4.23-1.96-6.24-.82-8.01.18-.86.49-1.68.95-2.63.95s-1.7-.47-2.41-.94c-1.39-.91-3.13-2.04-8.06.15l-.59.26-6.49-6.49.85-.65c.05-.04,5.3-4.1,5.44-9.64.09-3.37-1.71-6.66-5.37-9.78l-.62-.53,5.21-8.16.83.79s2.15,2.02,4.46,1.56c1.65-.33,3.07-1.85,4.25-4.52l.24-.56h4.62l.23.6s1.35,3.42,3.99,4.18c1.48.42,3.17-.07,5.01-1.45l.84-.63,4.63,7.87-.6.51c-.05.05-5.45,4.73-5.42,10.63.02,3.34,1.76,6.49,5.19,9.38Zm14.29,46.72s-.06,0-.09,0v-48.31h-2.6v-7.35h-7.35v-5.29h7.35v-7.35h2.6V1.6s.06,0,.09,0c32.2,0,58.4,26.2,58.4,58.4s-26.2,58.4-58.4,58.4Z"/><polygon points="62.6 50.09 59.96 50.09 59.96 70.09 62.6 70.09 62.6 62.74 69.96 62.74 69.96 57.44 62.6 57.44 62.6 50.09"/><path d="m84.84,57.15c.21.21.48.31.76.31s.55-.1.76-.31c.42-.42.42-1.09,0-1.51l-5.18-5.18c-.42-.42-1.09-.42-1.51,0s-.42,1.09,0,1.51l5.18,5.18Z"/><path d="m93.74,66.17c.21.21.48.31.76.31s.55-.1.76-.31c.42-.42.42-1.09,0-1.51l-3.6-3.6c-.42-.42-1.09-.42-1.51,0s-.42,1.09,0,1.51l3.6,3.6Z"/><path d="m100.44,69.84c-.42-.42-1.09-.42-1.51,0s-.42,1.09,0,1.51l1.23,1.23c.21.21.48.31.76.31s.55-.1.76-.31c.42-.42.42-1.09,0-1.51l-1.23-1.23Z"/><path d="m93.48,48.67c.21.21.48.31.76.31s.55-.1.76-.31c.42-.42.42-1.09,0-1.51l-5.18-5.18c-.42-.42-1.09-.42-1.51,0s-.42,1.09,0,1.51l5.18,5.18Z"/><path d="m103.13,58c.27,0,.55-.1.76-.31.42-.42.42-1.09,0-1.51l-3.6-3.6c-.42-.42-1.09-.42-1.51,0s-.42,1.09,0,1.51l3.6,3.6c.21.21.48.31.76.31Z"/><path d="m110.3,62.59l-1.23-1.23c-.42-.42-1.09-.42-1.51,0-.42.42-.42,1.09,0,1.51l1.23,1.23c.21.21.48.31.76.31s.55-.1.76-.31c.42-.42.42-1.09,0-1.51Z"/><path d="m90.64,65.6c-.42-.42-1.09-.42-1.51,0l-5.18,5.18c-.42.42-.42,1.09,0,1.51.21.21.48.31.76.31s.55-.1.76-.31l5.18-5.18c.42-.42.42-1.09,0-1.51Z"/><path d="m99.65,56.7c-.42-.42-1.09-.42-1.51,0l-3.6,3.6c-.42.42-.42,1.09,0,1.51.21.21.48.31.76.31s.55-.1.76-.31l3.6-3.6c.42-.42.42-1.09,0-1.51Z"/><path d="m104.08,53.34c.27,0,.55-.1.76-.31l1.23-1.23c.42-.42.42-1.09,0-1.51s-1.09-.42-1.51,0l-1.23,1.23c-.42.42-.42,1.09,0,1.51.21.21.48.31.76.31Z"/><path d="m82.05,56.83c-.42-.42-1.09-.42-1.51,0l-5.18,5.18c-.42.42-.42,1.09,0,1.51.21.21.48.31.76.31s.55-.1.76-.31l5.18-5.18c.42-.42.42-1.09,0-1.51Z"/><path d="m89.56,47.93l-3.6,3.6c-.42.42-.42,1.09,0,1.51.21.21.48.31.76.31s.55-.1.76-.31l3.6-3.6c.42-.42.42-1.09,0-1.51s-1.09-.42-1.51,0Z"/><path d="m95.49,44.57c.27,0,.55-.1.76-.31l1.23-1.23c.42-.42.42-1.09,0-1.51s-1.09-.42-1.51,0l-1.23,1.23c-.42.42-.42,1.09,0,1.51.21.21.48.31.76.31Z"/><path d="m100.6,61.24c-.42-.42-1.09-.42-1.51,0s-.42,1.09,0,1.51l5.18,5.18c.21.21.48.31.76.31s.55-.1.76-.31c.42-.42.42-1.09,0-1.51l-5.18-5.18Z"/><path d="m90.19,52.23c-.42.42-.42,1.09,0,1.51l3.6,3.6c.21.21.48.31.76.31s.55-.1.76-.31c.42-.42.42-1.09,0-1.51l-3.6-3.6c-.42-.42-1.09-.42-1.51,0Z"/><path d="m85.01,48.55c.21.21.48.31.76.31s.55-.1.76-.31c.42-.42.42-1.09,0-1.51l-1.23-1.23c-.42-.42-1.09-.42-1.51,0s-.42,1.09,0,1.51l1.23,1.23Z"/><path d="m92.01,70.06c-.42-.42-1.09-.42-1.51,0s-.42,1.09,0,1.51l5.18,5.18c.21.21.48.31.76.31s.55-.1.76-.31c.42-.42.42-1.09,0-1.51l-5.18-5.18Z"/><path d="m81.61,61.05c-.42.42-.42,1.09,0,1.51l3.6,3.6c.21.21.48.31.76.31s.55-.1.76-.31c.42-.42.42-1.09,0-1.51l-3.6-3.6c-.42-.42-1.09-.42-1.51,0Z"/><path d="m76.42,57.38c.21.21.48.31.76.31s.55-.1.76-.31c.42-.42.42-1.09,0-1.51l-1.23-1.23c-.42-.42-1.09-.42-1.51,0s-.42,1.09,0,1.51l1.23,1.23Z"/><path d="m94.68,52.91c.21.21.48.31.76.31s.55-.1.76-.31l5.18-5.18c.42-.42.42-1.09,0-1.51s-1.09-.42-1.51,0l-5.18,5.18c-.42.42-.42,1.09,0,1.51Z"/><path d="m90.78,58.2c.42-.42.42-1.09,0-1.51s-1.09-.42-1.51,0l-3.6,3.6c-.42.42-.42,1.09,0,1.51.21.21.48.31.76.31s.55-.1.76-.31l3.6-3.6Z"/><path d="m80.48,65.48l-1.23,1.23c-.42.42-.42,1.09,0,1.51.21.21.48.31.76.31s.55-.1.76-.31l1.23-1.23c.42-.42.42-1.09,0-1.51-.42-.42-1.09-.42-1.51,0Z"/><path d="m103.5,61.61c.21.21.48.31.76.31s.55-.1.76-.31l5.18-5.18c.42-.42.42-1.09,0-1.51s-1.09-.42-1.51,0l-5.18,5.18c-.42.42-.42,1.09,0,1.51Z"/><path d="m95.24,70.82c.27,0,.55-.1.76-.31l3.6-3.6c.42-.42.42-1.09,0-1.51s-1.09-.42-1.51,0l-3.6,3.6c-.42.42-.42,1.09,0,1.51.21.21.48.31.76.31Z"/><path d="m89.3,74.18l-1.23,1.23c-.42.42-.42,1.09,0,1.51.21.21.48.31.76.31s.55-.1.76-.31l1.23-1.23c.42-.42.42-1.09,0-1.51s-1.09-.42-1.51,0Z"/></g></svg>