<?xml version="1.0" encoding="UTF-8" standalone="no"?>
<svg
   xmlns:dc="http://purl.org/dc/elements/1.1/"
   xmlns:cc="http://creativecommons.org/ns#"
   xmlns:rdf="http://www.w3.org/1999/02/22-rdf-syntax-ns#"
   xmlns:svg="http://www.w3.org/2000/svg"
   xmlns="http://www.w3.org/2000/svg"
   viewBox="0 0 37.795334 37.795334"
   height="37.795334"
   width="37.795334"
   xml:space="preserve"
   id="svg2"
   version="1.1"><metadata
     id="metadata8"><rdf:RDF><cc:Work
         rdf:about=""><dc:format>image/svg+xml</dc:format><dc:type
           rdf:resource="http://purl.org/dc/dcmitype/StillImage" /></cc:Work></rdf:RDF></metadata><defs
     id="defs6"><clipPath
       id="clipPath18"
       clipPathUnits="userSpaceOnUse"><path
         id="path16"
         d="M 0,28.346 H 28.346 V 0 H 0 Z" /></clipPath></defs><g
     transform="matrix(1.3333333,0,0,-1.3333333,0,37.795333)"
     id="g10"><g
       id="g12"><g
         clip-path="url(#clipPath18)"
         id="g14"><g
           transform="translate(21.5283,11.3523)"
           id="g20"><path
             id="path22"
             style="fill:#2b2b2a;fill-opacity:1;fill-rule:nonzero;stroke:none"
             d="m 0,0 c -0.048,0.143 -0.183,0.245 -0.341,0.245 -0.187,0 -0.342,-0.142 -0.358,-0.325 -0.19,-0.006 -0.379,-0.011 -0.569,-0.016 L -1.48,-0.101 v 0.085 c 0,0.199 -0.162,0.361 -0.361,0.361 -0.198,0 -0.359,-0.162 -0.359,-0.361 v -0.103 l -0.186,-0.005 c -0.18,-0.005 -0.361,-0.01 -0.541,-0.014 v 0.05 c 0,0.198 -0.162,0.359 -0.36,0.359 -0.198,0 -0.36,-0.161 -0.36,-0.359 V -0.15 c -1.975,-0.035 -3.98,-0.046 -5.92,-0.059 L -9.822,-0.21 c -0.141,-0.001 -0.283,-0.001 -0.425,-0.001 -0.418,0 -0.836,0.003 -1.254,0.008 v 0.039 c 0,0.198 -0.161,0.359 -0.36,0.359 -0.198,0 -0.36,-0.161 -0.36,-0.359 v -0.03 l -0.453,0.005 -0.326,0.003 v 0.121 c 0,0.198 -0.162,0.36 -0.36,0.36 -0.199,0 -0.36,-0.162 -0.36,-0.36 v -0.114 c -0.242,0.003 -0.485,0.004 -0.727,0.004 v 0.037 c 0,0.199 -0.161,0.36 -0.36,0.36 -0.198,0 -0.36,-0.161 -0.36,-0.36 v -0.039 h -0.08 c -0.164,0 -0.329,0 -0.494,-0.003 h -0.043 c -0.321,0 -0.531,0.06 -0.642,0.182 -0.108,0.117 -0.147,0.316 -0.12,0.609 0.019,0.222 0.038,0.444 0.056,0.665 l 0.021,-0.005 0.015,0.179 c 0.519,-0.124 1.621,-0.224 3.735,-0.352 4.156,-0.252 8.951,-0.114 8.951,-0.114 0,0 2.899,0.034 3.972,0.258 0.866,0.181 1.33,0.941 1.388,1.296 L 1.608,2.532 C 1.632,2.516 1.654,2.5 1.674,2.484 1.8,2.311 1.859,2.212 1.842,1.988 1.765,1.019 1.033,0.237 0,0 M 1.787,2.592 C 1.71,2.657 1.403,2.784 1.334,2.806 -1.534,3.698 -4.204,5.028 -6.74,6.64 c -0.52,0.33 -1.066,0.622 -1.612,0.908 -1.362,0.715 -1.365,0.71 -1.696,-0.827 -0.286,-1.33 -0.241,-1.433 -1.918,-1.669 -1.678,-0.237 -3.381,1.395 -3.573,1.372 -0.192,-0.024 -0.68,-1.136 -0.757,-1.669 l -0.231,-2.681 c -0.019,0.005 -0.039,0.01 -0.056,0.015 -0.008,-0.108 -0.018,-0.215 -0.026,-0.322 0.007,-0.002 0.017,-0.004 0.025,-0.006 -0.008,-0.097 -0.016,-0.193 -0.024,-0.289 -0.007,0.002 -0.015,0.004 -0.022,0.006 -0.023,-0.285 -0.046,-0.569 -0.071,-0.852 -0.063,-0.695 0.214,-0.961 0.917,-0.961 0.015,0 0.031,0 0.046,0.001 0.242,0.003 0.485,0.002 0.727,0.003 v 0.193 c 0,0.114 0.091,0.205 0.204,0.205 0.114,0 0.205,-0.091 0.205,-0.205 v -0.191 c 0.346,-0.001 0.691,-0.002 1.037,-0.006 v 0.27 c 0,0.113 0.092,0.205 0.205,0.205 0.113,0 0.205,-0.092 0.205,-0.205 v -0.274 c 0.363,-0.005 0.726,-0.008 1.09,-0.013 v 0.188 c 0,0.113 0.091,0.204 0.204,0.204 0.113,0 0.205,-0.091 0.205,-0.204 v -0.192 c 0.469,-0.006 0.939,-0.01 1.409,-0.01 0.142,0 0.284,0 0.426,0.001 2.11,0.012 4.219,0.024 6.329,0.062 v 0.215 c 0,0.112 0.092,0.204 0.205,0.204 0.113,0 0.205,-0.092 0.205,-0.204 v -0.208 c 0.346,0.007 0.691,0.017 1.037,0.025 v 0.255 c 0,0.114 0.091,0.205 0.204,0.205 0.113,0 0.205,-0.091 0.205,-0.205 V -0.26 c 0.353,0.01 0.705,0.017 1.058,0.029 0.011,0 0.021,0.002 0.032,0.002 v 0.115 c 0,0.112 0.092,0.204 0.205,0.204 0.112,0 0.204,-0.092 0.204,-0.204 V -0.186 C 1.092,0.022 1.912,0.908 1.996,1.976 2.02,2.268 1.922,2.408 1.787,2.592" /></g></g></g></g></svg>