<?xml version="1.0" encoding="UTF-8" standalone="no"?>
<svg
   xmlns:dc="http://purl.org/dc/elements/1.1/"
   xmlns:cc="http://creativecommons.org/ns#"
   xmlns:rdf="http://www.w3.org/1999/02/22-rdf-syntax-ns#"
   xmlns:svg="http://www.w3.org/2000/svg"
   xmlns="http://www.w3.org/2000/svg"
   viewBox="0 0 37.795334 37.795334"
   height="37.795334"
   width="37.795334"
   xml:space="preserve"
   id="svg2"
   version="1.1"><metadata
     id="metadata8"><rdf:RDF><cc:Work
         rdf:about=""><dc:format>image/svg+xml</dc:format><dc:type
           rdf:resource="http://purl.org/dc/dcmitype/StillImage" /></cc:Work></rdf:RDF></metadata><defs
     id="defs6"><clipPath
       id="clipPath18"
       clipPathUnits="userSpaceOnUse"><path
         id="path16"
         d="M 0,28.346 H 28.346 V 0 H 0 Z" /></clipPath></defs><g
     transform="matrix(1.3333333,0,0,-1.3333333,0,37.795333)"
     id="g10"><g
       id="g12"><g
         clip-path="url(#clipPath18)"
         id="g14"><g
           transform="translate(21.7578,11.1248)"
           id="g20"><path
             id="path22"
             style="fill:#2b2b2a;fill-opacity:1;fill-rule:nonzero;stroke:none"
             d="m 0,0 c -0.05,0.147 -0.188,0.254 -0.352,0.254 -0.193,0 -0.351,-0.149 -0.37,-0.336 -0.195,-0.006 -0.39,-0.011 -0.586,-0.016 l -0.218,-0.006 v 0.088 c 0,0.205 -0.167,0.371 -0.371,0.371 -0.206,0 -0.372,-0.166 -0.372,-0.371 V -0.122 L -2.46,-0.127 c -0.186,-0.005 -0.372,-0.01 -0.559,-0.015 v 0.051 c 0,0.205 -0.166,0.371 -0.371,0.371 -0.204,0 -0.371,-0.166 -0.371,-0.371 v -0.063 c -2.035,-0.035 -4.102,-0.048 -6.103,-0.061 l -0.263,-0.001 c -0.146,-0.001 -0.292,-0.002 -0.438,-0.002 -0.432,0 -0.862,0.004 -1.293,0.009 v 0.04 c 0,0.205 -0.167,0.371 -0.371,0.371 -0.205,0 -0.372,-0.166 -0.372,-0.371 V -0.2 l -0.467,0.006 -0.336,0.004 v 0.124 c 0,0.204 -0.167,0.371 -0.371,0.371 -0.205,0 -0.371,-0.167 -0.371,-0.371 v -0.118 c -0.25,0.003 -0.5,0.004 -0.75,0.004 v 0.038 c 0,0.205 -0.166,0.371 -0.371,0.371 -0.205,0 -0.371,-0.166 -0.371,-0.371 v -0.039 l -0.082,-0.001 c -0.17,0 -0.34,0 -0.509,-0.003 h -0.045 c -0.331,0 -0.548,0.062 -0.663,0.187 -0.11,0.121 -0.151,0.327 -0.124,0.629 0.02,0.229 0.04,0.458 0.058,0.687 l 0.014,0.171 0.002,0.023 0.01,0.123 0.003,0.034 c 0.606,-0.138 1.815,-0.322 3.909,-0.444 4.464,-0.259 9.616,-0.117 9.616,-0.117 0,0 3.511,0.062 4.294,0.436 C 1.444,1.831 1.548,2.485 1.565,2.82 1.666,2.736 1.921,2.48 1.898,2.047 1.846,1.053 1.091,0.248 0,0 m -16.68,5.097 c 0.073,0.503 0.471,1.384 0.641,1.568 0.069,-0.039 0.195,-0.125 0.308,-0.203 0.622,-0.426 1.779,-1.22 3.006,-1.22 0.126,0 0.252,0.008 0.373,0.025 1.715,0.242 1.803,0.392 2.079,1.689 l 0.034,0.157 c 0.183,0.854 0.266,1.201 0.461,1.201 0.187,0 0.551,-0.191 1.056,-0.456 0.566,-0.297 1.118,-0.591 1.651,-0.93 C -4.232,5.124 -1.497,3.825 1.292,2.957 1.355,2.938 1.414,2.915 1.466,2.891 L 1.475,2.885 C 1.357,2.65 1.087,2.182 0.281,2.015 -0.835,1.783 -3.735,1.729 -3.735,1.729 c 0,0 -4.988,-0.144 -9.31,0.116 -2.134,0.128 -3.308,0.322 -3.874,0.464 z M 1.613,2.984 v 0 H 1.612 C 1.596,2.997 1.579,3.009 1.568,3.019 1.502,3.053 1.426,3.083 1.34,3.11 -1.618,4.03 -4.37,5.401 -6.985,7.063 -7.521,7.404 -8.084,7.704 -8.647,8 c -0.568,0.298 -0.907,0.474 -1.131,0.474 -0.331,0 -0.414,-0.383 -0.618,-1.328 -0.295,-1.371 -0.248,-1.477 -1.978,-1.72 -0.117,-0.017 -0.234,-0.024 -0.351,-0.024 -1.597,0 -3.125,1.439 -3.329,1.439 -0.001,0 -0.003,-0.001 -0.004,-0.001 -0.198,-0.024 -0.701,-1.171 -0.78,-1.72 l -0.239,-2.769 c -0.007,0.003 -0.015,0.004 -0.022,0.007 -0.009,-0.111 -0.019,-0.222 -0.027,-0.333 0.006,-0.002 0.014,-0.004 0.021,-0.005 l -0.014,-0.164 c 0,0 -0.001,0 -0.001,10e-4 C -17.122,1.828 -17.124,1.8 -17.126,1.771 -17.133,1.689 -17.14,1.606 -17.146,1.524 -17.152,1.46 -17.157,1.396 -17.162,1.331 -17.181,1.103 -17.2,0.874 -17.22,0.646 c -0.065,-0.717 0.22,-0.991 0.946,-0.991 0.015,0 0.031,0 0.047,0.001 0.249,0.004 0.499,0.002 0.749,0.003 v 0.199 c 0,0.118 0.095,0.211 0.211,0.211 0.117,0 0.211,-0.093 0.211,-0.211 v -0.197 c 0.357,-0.001 0.713,-0.002 1.07,-0.006 v 0.279 c 0,0.116 0.094,0.211 0.211,0.211 0.116,0 0.211,-0.095 0.211,-0.211 v -0.283 c 0.375,-0.005 0.749,-0.008 1.124,-0.013 v 0.193 c 0,0.117 0.094,0.211 0.211,0.211 0.116,0 0.211,-0.094 0.211,-0.211 v -0.198 c 0.484,-0.006 0.968,-0.01 1.453,-0.01 0.146,0 0.293,0 0.439,0.001 2.175,0.014 4.351,0.025 6.525,0.064 v 0.221 c 0,0.117 0.095,0.212 0.211,0.212 0.118,0 0.212,-0.095 0.212,-0.212 v -0.214 c 0.357,0.007 0.712,0.018 1.069,0.027 v 0.262 c 0,0.118 0.094,0.211 0.212,0.211 0.116,0 0.21,-0.093 0.21,-0.211 v -0.252 c 0.364,0.01 0.727,0.018 1.091,0.03 0.011,0 0.022,0.002 0.033,0.002 v 0.119 c 0,0.116 0.094,0.211 0.211,0.211 0.117,0 0.211,-0.095 0.211,-0.211 V -0.19 C 1.126,0.023 1.999,0.935 2.058,2.038 2.092,2.675 1.613,2.984 1.613,2.984" /></g></g></g></g></svg>