<svg xmlns="http://www.w3.org/2000/svg" xmlns:xlink="http://www.w3.org/1999/xlink" width="400" zoomAndPan="magnify" viewBox="0 0 300 299.999988" height="400" preserveAspectRatio="xMidYMid meet" version="1.0"><defs><clipPath id="c724bd877f"><path d="M 81.898438 75.808594 L 218.398438 75.808594 L 218.398438 224.308594 L 81.898438 224.308594 Z M 81.898438 75.808594 " clip-rule="nonzero"/></clipPath></defs><g clip-path="url(#c724bd877f)"><path fill="#010202" d="M 217.117188 103.722656 C 202.214844 114.269531 192.609375 130.804688 192.609375 149.394531 C 192.609375 168.511719 202.765625 185.453125 218.398438 195.945312 L 210.757812 209.695312 C 204.382812 206.789062 197.089844 205.132812 189.34375 205.132812 C 172.609375 205.132812 157.992188 212.835938 150.148438 224.289062 C 142.300781 212.835938 127.6875 205.132812 110.953125 205.132812 C 103.203125 205.132812 95.910156 206.789062 89.535156 209.695312 L 81.898438 195.945312 C 97.53125 185.453125 107.683594 168.511719 107.683594 149.394531 C 107.683594 130.804688 98.082031 114.269531 83.175781 103.722656 L 91.339844 89.710938 C 95.445312 90.898438 99.929688 91.554688 104.628906 91.554688 C 119.433594 91.554688 132.121094 85.054688 137.402344 75.828125 L 162.890625 75.828125 C 168.175781 85.054688 180.859375 91.554688 195.664062 91.554688 C 200.367188 91.554688 204.851562 90.898438 208.953125 89.710938 Z M 217.117188 103.722656 " fill-opacity="1" fill-rule="evenodd"/></g></svg>