<?xml version="1.0" encoding="UTF-8" standalone="no"?>
<svg
   xmlns:dc="http://purl.org/dc/elements/1.1/"
   xmlns:cc="http://creativecommons.org/ns#"
   xmlns:rdf="http://www.w3.org/1999/02/22-rdf-syntax-ns#"
   xmlns:svg="http://www.w3.org/2000/svg"
   xmlns="http://www.w3.org/2000/svg"
   viewBox="0 0 37.795334 37.795334"
   height="37.795334"
   width="37.795334"
   xml:space="preserve"
   id="svg2"
   version="1.1"><metadata
     id="metadata8"><rdf:RDF><cc:Work
         rdf:about=""><dc:format>image/svg+xml</dc:format><dc:type
           rdf:resource="http://purl.org/dc/dcmitype/StillImage" /></cc:Work></rdf:RDF></metadata><defs
     id="defs6"><clipPath
       id="clipPath18"
       clipPathUnits="userSpaceOnUse"><path
         id="path16"
         d="M 0,28.346 H 28.346 V 0 H 0 Z" /></clipPath></defs><g
     transform="matrix(1.3333333,0,0,-1.3333333,0,37.795333)"
     id="g10"><g
       id="g12"><g
         clip-path="url(#clipPath18)"
         id="g14"><g
           transform="translate(16.3863,20.7808)"
           id="g20"><path
             id="path22"
             style="fill:none;stroke:#2b2b2a;stroke-width:1;stroke-linecap:butt;stroke-linejoin:miter;stroke-miterlimit:10;stroke-dasharray:none;stroke-opacity:1"
             d="M 0,0 0.478,0.293 C 2.496,1.53 4.916,-0.544 4.001,-2.728 L 3.785,-3.245 4.339,-3.327 c 2.342,-0.35 2.862,-3.495 0.757,-4.58 L 4.598,-8.163 4.97,-8.583 c 1.569,-1.772 -0.054,-4.516 -2.363,-3.994 l -0.547,0.123 0.015,-0.56 c 0.063,-2.367 -2.944,-3.425 -4.378,-1.541 l -0.339,0.446 -0.349,-0.439 c -1.473,-1.853 -4.457,-0.731 -4.344,1.634 l 0.026,0.559 -0.549,-0.112 c -2.319,-0.472 -3.884,2.305 -2.278,4.044 l 0.381,0.412 -0.493,0.267 c -2.081,1.129 -1.494,4.262 0.854,4.562 l 0.556,0.071 -0.205,0.521 c -0.868,2.203 1.595,4.226 3.587,2.946 l 0.471,-0.303 0.178,0.531 c 0.75,2.245 3.938,2.212 4.641,-0.049 z" /></g><g
           transform="translate(13.8619,9.4333)"
           id="g24"><path
             id="path26"
             style="fill:none;stroke:#2b2b2a;stroke-width:1;stroke-linecap:butt;stroke-linejoin:miter;stroke-miterlimit:10;stroke-dasharray:none;stroke-opacity:1"
             d="M 0,0 V 0 C -1.036,0 -1.936,0.711 -2.177,1.719 L -3.44,7.018 c -0.15,0.626 0.325,1.227 0.969,1.227 H 2.471 C 3.115,8.245 3.59,7.644 3.44,7.018 L 2.177,1.719 C 1.936,0.711 1.036,0 0,0 Z" /></g></g></g></g></svg>