<?xml version="1.0" encoding="UTF-8" standalone="no"?>
<svg
   xmlns:dc="http://purl.org/dc/elements/1.1/"
   xmlns:cc="http://creativecommons.org/ns#"
   xmlns:rdf="http://www.w3.org/1999/02/22-rdf-syntax-ns#"
   xmlns:svg="http://www.w3.org/2000/svg"
   xmlns="http://www.w3.org/2000/svg"
   viewBox="0 0 266.66666 266.66666"
   height="266.66666"
   width="266.66666"
   xml:space="preserve"
   id="svg2"
   version="1.1"><metadata
     id="metadata8"><rdf:RDF><cc:Work
         rdf:about=""><dc:format>image/svg+xml</dc:format><dc:type
           rdf:resource="http://purl.org/dc/dcmitype/StillImage" /></cc:Work></rdf:RDF></metadata><defs
     id="defs6"><clipPath
       id="clipPath20"
       clipPathUnits="userSpaceOnUse"><path
         id="path18"
         d="M 0,200 H 200 V 0 H 0 Z" /></clipPath></defs><g
     transform="matrix(1.3333333,0,0,-1.3333333,0,266.66667)"
     id="g10"><path
       id="path12"
       style="fill:#000000;fill-opacity:1;fill-rule:nonzero;stroke:none"
       d="M 157.245,47.637 H 42.755 v 8.488 h 114.49 z" /><g
       id="g14"><g
         clip-path="url(#clipPath20)"
         id="g16"><g
           transform="translate(165.8145,136.3344)"
           id="g22"><path
             id="path24"
             style="fill:#000000;fill-opacity:1;fill-rule:nonzero;stroke:none"
             d="m 0,0 -6.487,-29.686 c -7.605,-5.498 -13.27,-6.167 -17.325,-5.425 -8.438,1.545 -10.058,9.936 -18.115,10.18 -9.202,0.28 -14.595,-10.781 -23.887,-10.646 -8.809,0.128 -11.738,10.215 -20.826,10.628 -8.753,0.398 -9.855,-8.518 -19.307,-10.628 -5.049,-1.127 -10.145,-0.463 -19.205,5.938 L -131.629,0 Z m -140.233,6.927 17.173,-78.585 H -8.569 L 8.604,6.927 Z" /></g><g
           transform="translate(95.0914,80.0199)"
           id="g26"><path
             id="path28"
             style="fill:#ffffff;fill-opacity:1;fill-rule:nonzero;stroke:none"
             d="m 0,0 c 0,-4.156 -3.359,-7.03 -8.137,-7.03 -3.255,0 -5.886,1.524 -7.41,4.259 l 2.943,2.112 c 1.039,-1.696 2.528,-2.7 4.294,-2.7 2.528,0 4.259,1.489 4.259,3.497 0,2.147 -1.766,3.635 -4.224,3.635 h -2.251 v 3.151 h 1.593 c 2.423,0 3.912,1.352 3.843,3.117 -0.069,1.559 -1.315,2.597 -3.151,2.597 -1.454,0 -3.013,-0.762 -3.878,-1.973 l -2.389,2.458 c 1.454,1.939 3.844,3.22 6.614,3.22 3.981,0 6.89,-2.389 6.856,-6.164 0,-2.007 -1.108,-3.704 -2.944,-4.605 C -1.558,4.743 0,2.665 0,0" /></g><g
           transform="translate(110.9897,84.6942)"
           id="g30"><path
             id="path32"
             style="fill:#ffffff;fill-opacity:1;fill-rule:nonzero;stroke:none"
             d="m 0,0 c 0,4.363 -0.935,7.93 -4.294,7.93 -3.359,0 -4.294,-3.567 -4.294,-7.93 0,-4.328 0.935,-7.965 4.294,-7.965 C -0.935,-7.965 0,-4.328 0,0 m -12.639,0 c 0,6.475 1.766,11.669 8.345,11.669 6.579,0 8.31,-5.194 8.31,-11.669 0,-6.441 -1.731,-11.704 -8.31,-11.704 -6.579,0 -8.345,5.263 -8.345,11.704" /></g><g
           transform="translate(121.5777,96.3682)"
           id="g34"><path
             id="path36"
             style="fill:#ffffff;fill-opacity:1;fill-rule:nonzero;stroke:none"
             d="m 0,0 c -1.859,0 -3.366,-1.507 -3.366,-3.366 0,-1.858 1.507,-3.365 3.366,-3.365 1.859,0 3.366,1.507 3.366,3.365 C 3.366,-1.507 1.859,0 0,0 m 0,-1 c 1.304,0 2.366,-1.061 2.366,-2.366 0,-1.304 -1.062,-2.365 -2.366,-2.365 -1.304,0 -2.366,1.061 -2.366,2.365 C -2.366,-2.061 -1.304,-1 0,-1" /></g></g></g></g></svg>