<?xml version="1.0" encoding="UTF-8" standalone="no"?>
<svg
   xmlns:dc="http://purl.org/dc/elements/1.1/"
   xmlns:cc="http://creativecommons.org/ns#"
   xmlns:rdf="http://www.w3.org/1999/02/22-rdf-syntax-ns#"
   xmlns:svg="http://www.w3.org/2000/svg"
   xmlns="http://www.w3.org/2000/svg"
   viewBox="0 0 266.66666 266.66666"
   height="266.66666"
   width="266.66666"
   xml:space="preserve"
   id="svg2"
   version="1.1"><metadata
     id="metadata8"><rdf:RDF><cc:Work
         rdf:about=""><dc:format>image/svg+xml</dc:format><dc:type
           rdf:resource="http://purl.org/dc/dcmitype/StillImage" /></cc:Work></rdf:RDF></metadata><defs
     id="defs6"><clipPath
       id="clipPath18"
       clipPathUnits="userSpaceOnUse"><path
         id="path16"
         d="M 0,200 H 200 V 0 H 0 Z" /></clipPath></defs><g
     transform="matrix(1.3333333,0,0,-1.3333333,0,266.66667)"
     id="g10"><g
       id="g12"><g
         clip-path="url(#clipPath18)"
         id="g14"><g
           transform="translate(65.94,104.5587)"
           id="g20"><path
             id="path22"
             style="fill:#1d1d1b;fill-opacity:1;fill-rule:nonzero;stroke:none"
             d="m 0,0 c 6.842,0 9.397,5.337 9.397,10.443 0,5.106 -2.555,10.559 -9.277,10.559 H -13.924 V 0 Z m 0.815,36.894 c 18.562,0 26.913,-13.226 26.913,-26.451 0,-13.341 -8.351,-26.335 -26.913,-26.335 h -14.739 v -27.144 h -18.211 v 79.93 z" /></g><g
           transform="translate(104.9444,90.0558)"
           id="g24"><path
             id="path26"
             style="fill:#1d1d1b;fill-opacity:1;fill-rule:nonzero;stroke:none"
             d="M 0,0 V 51.396 H 18.22 V 1.393 c 0,-10.086 6.379,-14.03 12.989,-14.03 6.499,0 12.878,3.944 12.878,14.03 v 50.003 h 18.22 V 0 c 0,-18.442 -14.618,-29.932 -31.098,-29.932 C 14.739,-29.932 0,-18.442 0,0" /></g></g></g></g></svg>