<?xml version="1.0" encoding="UTF-8" standalone="no"?>
<svg
   xmlns:dc="http://purl.org/dc/elements/1.1/"
   xmlns:cc="http://creativecommons.org/ns#"
   xmlns:rdf="http://www.w3.org/1999/02/22-rdf-syntax-ns#"
   xmlns:svg="http://www.w3.org/2000/svg"
   xmlns="http://www.w3.org/2000/svg"
   viewBox="0 0 37.795334 37.795334"
   height="37.795334"
   width="37.795334"
   xml:space="preserve"
   id="svg2"
   version="1.1"><metadata
     id="metadata8"><rdf:RDF><cc:Work
         rdf:about=""><dc:format>image/svg+xml</dc:format><dc:type
           rdf:resource="http://purl.org/dc/dcmitype/StillImage" /></cc:Work></rdf:RDF></metadata><defs
     id="defs6"><clipPath
       id="clipPath18"
       clipPathUnits="userSpaceOnUse"><path
         id="path16"
         d="M 0,28.346 H 28.346 V 0 H 0 Z" /></clipPath></defs><g
     transform="matrix(1.3333333,0,0,-1.3333333,0,37.795333)"
     id="g10"><g
       id="g12"><g
         clip-path="url(#clipPath18)"
         id="g14"><g
           transform="translate(22.7711,11.3898)"
           id="g20"><path
             id="path22"
             style="fill:#2b2b2a;fill-opacity:1;fill-rule:nonzero;stroke:none"
             d="m 0,0 c -1.059,-0.366 -2.583,-0.576 -4.18,-0.576 -1.241,0 -2.499,0.123 -3.739,0.364 -2.733,0.532 -3.648,1.275 -4.316,1.818 -0.161,0.131 -0.313,0.255 -0.475,0.364 -0.807,0.544 -2.416,1.456 -2.988,1.752 -0.169,0.086 -0.464,0.207 -0.837,0.359 -0.59,0.24 -1.971,0.802 -2.131,1.042 -0.101,0.235 -0.111,0.442 -0.089,0.611 0.203,-0.187 0.548,-0.383 1.071,-0.575 3.451,-1.272 5.613,-3.097 7.233,-3.87 0.154,-0.073 0.325,-0.142 0.505,-0.209 1.398,-0.63 4.368,-1.029 6.158,-1.08 0.092,-0.003 0.184,-0.004 0.277,-0.004 2.049,0 3.916,0.383 4.556,0.718 0.267,0.14 0.47,0.309 0.524,0.334 C 1.435,0.464 0.873,0.301 0,0 m 1.702,1.858 c -0.393,0.704 -4.966,1.662 -6.689,1.986 -3.52,0.679 -3.489,0.399 -8.012,2.268 -4.381,1.81 -5.902,0.881 -5.97,0.078 -0.106,-0.227 -0.237,-0.665 -0.007,-1.2 0.204,-0.472 2.574,-1.284 3.123,-1.567 0.55,-0.284 2.151,-1.19 2.955,-1.732 0.804,-0.542 1.457,-1.56 4.915,-2.233 1.351,-0.263 2.64,-0.37 3.803,-0.37 1.813,0 3.322,0.26 4.29,0.594 1.252,0.433 1.63,0.822 1.684,1.196 0.048,0.333 0.09,0.731 -0.092,0.98" /></g><g
           transform="translate(20.8079,21.4533)"
           id="g24"><path
             id="path26"
             style="fill:#2b2b2a;fill-opacity:1;fill-rule:nonzero;stroke:none"
             d="m 0,0 c -0.299,0.026 -0.619,0.053 -1.029,0.088 -0.041,-0.398 -0.15,-1.443 -0.229,-2.203 -0.633,0.849 -1.685,1.928 -3.188,2.421 -1.55,0.508 -3.227,0.281 -4.984,-0.675 l 0.523,-0.961 c 1.479,0.804 2.862,1.005 4.112,0.598 1.301,-0.423 2.217,-1.424 2.744,-2.157 -0.779,0.071 -1.95,0.179 -2.283,0.209 -0.043,-0.363 -0.081,-0.676 -0.111,-0.929 1.372,-0.141 2.736,-0.281 4.071,-0.419 C -0.248,-2.676 -0.122,-1.32 0,0" /></g><g
           transform="translate(7.4665,6.4498)"
           id="g28"><path
             id="path30"
             style="fill:#2b2b2a;fill-opacity:1;fill-rule:nonzero;stroke:none"
             d="M 0,0 C 0.299,-0.026 0.619,-0.053 1.029,-0.088 1.07,0.31 1.179,1.355 1.258,2.115 1.891,1.266 2.943,0.187 4.446,-0.306 5.996,-0.814 7.673,-0.587 9.43,0.369 L 8.907,1.33 C 7.428,0.526 6.045,0.325 4.795,0.732 3.494,1.155 2.578,2.156 2.051,2.889 2.83,2.818 4.001,2.71 4.334,2.68 4.377,3.043 4.415,3.356 4.445,3.609 3.073,3.75 1.709,3.89 0.374,4.028 0.248,2.676 0.122,1.32 0,0" /></g></g></g></g></svg>