<?xml version="1.0" encoding="UTF-8" standalone="no"?>
<!-- Created with Inkscape (http://www.inkscape.org/) -->

<svg
   version="1.1"
   id="svg2"
   xml:space="preserve"
   width="37.795334"
   height="37.795334"
   viewBox="0 0 37.795334 37.795334"
   sodipodi:docname="Icon_Mikrofaser.ai"
   xmlns:inkscape="http://www.inkscape.org/namespaces/inkscape"
   xmlns:sodipodi="http://sodipodi.sourceforge.net/DTD/sodipodi-0.dtd"
   xmlns="http://www.w3.org/2000/svg"
   xmlns:svg="http://www.w3.org/2000/svg"><defs
     id="defs6"><clipPath
       clipPathUnits="userSpaceOnUse"
       id="clipPath16"><path
         d="M 0,28.346 H 28.346 V 0 H 0 Z"
         id="path14" /></clipPath></defs><sodipodi:namedview
     id="namedview4"
     pagecolor="#ffffff"
     bordercolor="#666666"
     borderopacity="1.0"
     inkscape:pageshadow="2"
     inkscape:pageopacity="0.0"
     inkscape:pagecheckerboard="0" /><g
     id="g8"
     inkscape:groupmode="layer"
     inkscape:label="Icon_Mikrofaser"
     transform="matrix(1.3333333,0,0,-1.3333333,0,37.795333)"><g
       id="g10"><g
         id="g12"
         clip-path="url(#clipPath16)"><g
           id="g18"
           transform="translate(17.8428,13.3953)"><path
             d="m 0,0 c -0.281,0.278 -0.655,0.278 -0.902,0.035 -0.262,-0.258 -0.259,-0.585 0.035,-0.891 0.365,-0.382 0.745,-0.749 1.119,-1.123 0.467,-0.466 0.929,-0.938 1.4,-1.399 0.189,-0.185 0.411,-0.284 0.678,-0.159 0.248,0.116 0.39,0.302 0.372,0.593 0.013,0.168 -0.061,0.306 -0.181,0.425 C 1.682,-1.679 0.847,-0.833 0,0"
             style="fill:#1d1d1b;fill-opacity:1;fill-rule:nonzero;stroke:none"
             id="path20" /></g><g
           id="g22"
           transform="translate(18.9502,12.9197)"><path
             d="M 0,0 C 0.282,-0.284 0.592,-0.276 0.916,0.048 1.733,0.866 2.544,1.692 3.358,2.515 3.495,2.653 3.603,2.806 3.614,3.047 3.587,3.239 3.5,3.438 3.28,3.539 3.016,3.659 2.769,3.62 2.558,3.409 1.719,2.57 0.876,1.735 0.043,0.89 -0.254,0.589 -0.258,0.259 0,0"
             style="fill:#1d1d1b;fill-opacity:1;fill-rule:nonzero;stroke:none"
             id="path24" /></g><g
           id="g26"
           transform="translate(10.6333,14.8733)"><path
             d="M 0,0 C 0.171,-0.168 0.392,-0.165 0.615,-0.064 0.845,0.041 0.917,0.238 0.958,0.461 0.937,0.623 0.898,0.78 0.778,0.899 -0.096,1.767 -0.966,2.639 -1.851,3.496 -2.113,3.75 -2.423,3.721 -2.67,3.46 -2.903,3.214 -2.915,2.902 -2.684,2.666 -1.802,1.765 -0.902,0.88 0,0"
             style="fill:#1d1d1b;fill-opacity:1;fill-rule:nonzero;stroke:none"
             id="path28" /></g><g
           id="g30"
           transform="translate(13.564,11.2205)"><path
             d="M 0,0 C -0.105,0.232 -0.291,0.36 -0.596,0.363 -0.742,0.37 -0.891,0.294 -1.022,0.161 -1.862,-0.683 -2.703,-1.524 -3.547,-2.363 -3.826,-2.64 -3.838,-2.93 -3.599,-3.222 c 0.23,-0.281 0.583,-0.281 0.891,-10e-4 0.272,0.246 0.526,0.513 0.788,0.771 0.587,0.577 1.174,1.153 1.759,1.732 C 0.046,-0.516 0.125,-0.274 0,0"
             style="fill:#1d1d1b;fill-opacity:1;fill-rule:nonzero;stroke:none"
             id="path32" /></g><g
           id="g34"
           transform="translate(14.7764,17.159)"><path
             d="m 0,0 c 0.116,-0.243 0.297,-0.395 0.604,-0.388 0.17,-0.015 0.319,0.083 0.443,0.209 0.842,0.857 1.682,1.716 2.516,2.58 C 3.814,2.664 3.806,2.958 3.566,3.227 3.342,3.48 2.988,3.475 2.71,3.22 2.484,3.013 2.272,2.788 2.055,2.571 1.423,1.939 0.789,1.309 0.159,0.674 -0.029,0.485 -0.126,0.266 0,0"
             style="fill:#1d1d1b;fill-opacity:1;fill-rule:nonzero;stroke:none"
             id="path36" /></g><g
           id="g38"
           transform="translate(14.6323,18.9334)"><path
             d="M 0,0 C 0.186,-0.185 0.43,-0.177 0.657,-0.082 0.88,0.013 0.979,0.207 0.984,0.529 0.992,0.602 0.948,0.74 0.838,0.848 -0.044,1.729 -0.923,2.612 -1.816,3.481 -2.062,3.719 -2.361,3.699 -2.604,3.466 -2.863,3.218 -2.895,2.906 -2.641,2.647 -1.771,1.754 -0.886,0.876 0,0"
             style="fill:#1d1d1b;fill-opacity:1;fill-rule:nonzero;stroke:none"
             id="path40" /></g><g
           id="g42"
           transform="translate(9.6001,14.9895)"><path
             d="M 0,0 C -0.009,0.278 -0.147,0.468 -0.396,0.581 -0.684,0.71 -0.904,0.59 -1.104,0.389 c -0.82,-0.822 -1.643,-1.64 -2.461,-2.463 -0.296,-0.298 -0.328,-0.643 -0.097,-0.895 0.244,-0.267 0.63,-0.264 0.933,0.03 0.83,0.811 1.653,1.629 2.479,2.444 C -0.112,-0.358 0.009,-0.212 0,0"
             style="fill:#1d1d1b;fill-opacity:1;fill-rule:nonzero;stroke:none"
             id="path44" /></g><g
           id="g46"
           transform="translate(13.7681,9.4011)"><path
             d="M 0,0 C -0.273,0.271 -0.591,0.265 -0.86,0.007 -1.133,-0.254 -1.146,-0.575 -0.876,-0.851 -0.013,-1.729 0.86,-2.599 1.736,-3.464 1.915,-3.64 2.133,-3.7 2.38,-3.576 2.629,-3.45 2.74,-3.245 2.748,-2.976 2.733,-2.827 2.693,-2.692 2.583,-2.581 1.721,-1.722 0.865,-0.855 0,0"
             style="fill:#1d1d1b;fill-opacity:1;fill-rule:nonzero;stroke:none"
             id="path48" /></g><g
           id="g50"
           transform="translate(13.2031,19.6316)"><path
             d="m 0,0 c -0.268,0.117 -0.49,0.021 -0.678,-0.164 -0.543,-0.536 -1.085,-1.073 -1.616,-1.621 -0.301,-0.309 -0.303,-0.617 -0.038,-0.891 0.253,-0.262 0.606,-0.27 0.896,0.011 0.559,0.542 1.102,1.099 1.653,1.648 0.123,0.122 0.17,0.269 0.173,0.435 C 0.388,-0.301 0.254,-0.11 0,0"
             style="fill:#1d1d1b;fill-opacity:1;fill-rule:nonzero;stroke:none"
             id="path52" /></g><g
           id="g54"
           transform="translate(12.9062,17.4617)"><path
             d="m 0,0 c -0.247,-0.26 -0.239,-0.603 0.048,-0.898 0.532,-0.547 1.075,-1.081 1.615,-1.62 0.129,-0.128 0.281,-0.208 0.564,-0.19 0.158,0.016 0.353,0.126 0.454,0.366 0.116,0.276 0.041,0.512 -0.165,0.718 C 1.987,-1.096 1.464,-0.561 0.93,-0.039 0.624,0.261 0.255,0.267 0,0"
             style="fill:#1d1d1b;fill-opacity:1;fill-rule:nonzero;stroke:none"
             id="path56" /></g><g
           id="g58"
           transform="translate(17.625,15.1033)"><path
             d="m 0,0 c -0.026,0.167 -0.109,0.365 -0.328,0.47 -0.228,0.109 -0.47,0.113 -0.654,-0.068 -0.599,-0.583 -1.195,-1.17 -1.768,-1.778 -0.267,-0.284 -0.202,-0.603 0.081,-0.85 0.273,-0.239 0.554,-0.223 0.816,0.043 0.536,0.543 1.075,1.083 1.615,1.62 C -0.098,-0.423 0,-0.268 0,0"
             style="fill:#1d1d1b;fill-opacity:1;fill-rule:nonzero;stroke:none"
             id="path60" /></g><g
           id="g62"
           transform="translate(14.6411,10.8465)"><path
             d="M 0,0 C 0.183,-0.179 0.416,-0.18 0.656,-0.073 0.888,0.029 0.968,0.218 1.013,0.484 0.979,0.572 0.962,0.724 0.879,0.81 0.289,1.422 -0.301,2.035 -0.922,2.617 -1.161,2.84 -1.477,2.803 -1.718,2.568 -1.961,2.33 -1.994,2.02 -1.769,1.777 -1.199,1.167 -0.6,0.581 0,0"
             style="fill:#1d1d1b;fill-opacity:1;fill-rule:nonzero;stroke:none"
             id="path64" /></g><g
           id="g66"
           transform="translate(15.1006,8.7381)"><path
             d="M 0,0 C 0.268,-0.134 0.488,-0.049 0.678,0.139 1.223,0.675 1.764,1.214 2.298,1.761 2.597,2.066 2.6,2.438 2.327,2.691 2.08,2.921 1.722,2.896 1.428,2.607 0.902,2.093 0.387,1.569 -0.133,1.05 -0.271,0.911 -0.382,0.76 -0.376,0.515 -0.347,0.302 -0.232,0.116 0,0"
             style="fill:#1d1d1b;fill-opacity:1;fill-rule:nonzero;stroke:none"
             id="path68" /></g><g
           id="g70"
           transform="translate(13.3516,14.5466)"><path
             d="m 0,0 c 0.14,0.14 0.247,0.291 0.221,0.474 0.002,0.273 -0.109,0.46 -0.324,0.558 -0.225,0.103 -0.466,0.106 -0.654,-0.08 -0.586,-0.575 -1.171,-1.152 -1.74,-1.744 -0.267,-0.277 -0.232,-0.586 0.033,-0.856 0.253,-0.258 0.565,-0.248 0.846,0.031 C -1.075,-1.082 -0.54,-0.539 0,0"
             style="fill:#1d1d1b;fill-opacity:1;fill-rule:nonzero;stroke:none"
             id="path72" /></g><g
           id="g74"
           transform="translate(9.332,13.5979)"><path
             d="m 0,0 c -0.276,0.013 -0.469,-0.109 -0.572,-0.342 -0.117,-0.265 -0.069,-0.512 0.142,-0.722 0.539,-0.538 1.071,-1.083 1.617,-1.613 0.299,-0.291 0.629,-0.292 0.898,-0.036 0.267,0.255 0.271,0.587 -0.024,0.89 -0.54,0.557 -1.096,1.099 -1.644,1.648 C 0.298,-0.056 0.163,0.021 0,0"
             style="fill:#1d1d1b;fill-opacity:1;fill-rule:nonzero;stroke:none"
             id="path76" /></g><g
           id="g78"
           transform="translate(19.3467,14.8313)"><path
             d="M 0,0 C 0.204,0.122 0.321,0.294 0.309,0.552 0.314,0.646 0.298,0.751 0.223,0.827 -0.394,1.453 -0.998,2.094 -1.642,2.692 -1.883,2.917 -2.199,2.84 -2.428,2.595 -2.646,2.361 -2.681,2.075 -2.459,1.842 -1.873,1.226 -1.271,0.625 -0.656,0.038 -0.475,-0.135 -0.228,-0.135 0,0"
             style="fill:#1d1d1b;fill-opacity:1;fill-rule:nonzero;stroke:none"
             id="path80" /></g><g
           id="g82"
           transform="translate(8.627,11.4968)"><path
             d="m 0,0 c -0.263,-0.229 -0.509,-0.481 -0.731,-0.75 -0.148,-0.179 -0.146,-0.414 -0.032,-0.619 0.113,-0.203 0.298,-0.32 0.536,-0.319 0.371,0.002 1.182,0.801 1.192,1.218 C 0.934,-0.298 0.862,-0.096 0.654,0.024 0.433,0.152 0.192,0.167 0,0"
             style="fill:#1d1d1b;fill-opacity:1;fill-rule:nonzero;stroke:none"
             id="path84" /></g><g
           id="g86"
           transform="translate(21.4141,13.6194)"><path
             d="m 0,0 c -0.235,-0.004 -0.422,-0.094 -0.537,-0.314 -0.122,-0.231 -0.116,-0.463 0.045,-0.657 0.196,-0.236 0.42,-0.448 0.64,-0.662 0.188,-0.183 0.419,-0.217 0.646,-0.101 0.236,0.122 0.367,0.33 0.358,0.608 C 1.142,-0.743 0.378,0.006 0,0"
             style="fill:#1d1d1b;fill-opacity:1;fill-rule:nonzero;stroke:none"
             id="path88" /></g><g
           id="g90"
           transform="translate(17.375,9.5632)"><path
             d="m 0,0 c -0.233,-0.012 -0.419,-0.099 -0.541,-0.312 -0.124,-0.216 -0.12,-0.436 0.031,-0.615 0.216,-0.256 0.455,-0.497 0.707,-0.718 0.176,-0.154 0.397,-0.178 0.615,-0.056 0.221,0.125 0.341,0.306 0.333,0.57 C 1.132,-0.744 0.382,0.001 0,0"
             style="fill:#1d1d1b;fill-opacity:1;fill-rule:nonzero;stroke:none"
             id="path92" /></g><g
           id="g94"
           transform="translate(13.0083,7.5613)"><path
             d="m 0,0 c -0.155,-0.024 -0.309,-0.062 -0.428,-0.186 -0.194,-0.199 -0.393,-0.393 -0.582,-0.597 -0.253,-0.274 -0.227,-0.565 0.011,-0.821 0.23,-0.25 0.523,-0.271 0.786,-0.061 0.25,0.201 0.476,0.435 0.693,0.671 0.176,0.192 0.174,0.429 0.058,0.654 C 0.429,-0.128 0.234,-0.033 0,0"
             style="fill:#1d1d1b;fill-opacity:1;fill-rule:nonzero;stroke:none"
             id="path96" /></g><g
           id="g98"
           transform="translate(15.3799,20.8147)"><path
             d="M 0,0 C 0.359,0.017 1.109,0.804 1.111,1.167 1.116,1.409 1.012,1.58 0.799,1.698 0.598,1.81 0.397,1.808 0.223,1.678 -0.069,1.46 -0.33,1.201 -0.545,0.906 -0.687,0.713 -0.682,0.495 -0.55,0.291 -0.423,0.093 -0.24,-0.011 0,0"
             style="fill:#1d1d1b;fill-opacity:1;fill-rule:nonzero;stroke:none"
             id="path100" /></g><g
           id="g102"
           transform="translate(10.5981,18.9114)"><path
             d="M 0,0 C 0.194,-0.177 0.436,-0.162 0.659,-0.069 0.883,0.024 0.969,0.228 0.995,0.475 0.993,0.801 0.153,1.644 -0.192,1.631 -0.422,1.623 -0.61,1.516 -0.724,1.302 -0.847,1.068 -0.819,0.843 -0.649,0.653 -0.444,0.424 -0.227,0.206 0,0"
             style="fill:#1d1d1b;fill-opacity:1;fill-rule:nonzero;stroke:none"
             id="path104" /></g><g
           id="g106"
           transform="translate(19.4404,16.7727)"><path
             d="M 0,0 C 0.322,0.027 1.079,0.828 1.093,1.196 1.083,1.391 0.981,1.573 0.773,1.69 0.563,1.809 0.34,1.815 0.16,1.66 -0.094,1.442 -0.334,1.204 -0.552,0.951 -0.716,0.758 -0.718,0.522 -0.587,0.297 -0.456,0.073 -0.256,-0.021 0,0"
             style="fill:#1d1d1b;fill-opacity:1;fill-rule:nonzero;stroke:none"
             id="path108" /></g><g
           id="g110"
           transform="translate(6.5591,14.9021)"><path
             d="M 0,0 C 0.108,-0.104 0.24,-0.165 0.497,-0.148 0.644,-0.13 0.846,-0.035 0.958,0.201 1.065,0.423 1.024,0.641 0.87,0.813 0.656,1.053 0.431,1.288 0.179,1.485 -0.083,1.691 -0.383,1.667 -0.609,1.417 -0.831,1.171 -0.839,0.88 -0.617,0.624 -0.426,0.403 -0.21,0.204 0,0"
             style="fill:#1d1d1b;fill-opacity:1;fill-rule:nonzero;stroke:none"
             id="path112" /></g></g></g></g></svg>
