<?xml version="1.0" encoding="UTF-8" standalone="no"?>
<svg
   xmlns:dc="http://purl.org/dc/elements/1.1/"
   xmlns:cc="http://creativecommons.org/ns#"
   xmlns:rdf="http://www.w3.org/1999/02/22-rdf-syntax-ns#"
   xmlns:svg="http://www.w3.org/2000/svg"
   xmlns="http://www.w3.org/2000/svg"
   viewBox="0 0 37.795334 37.795334"
   height="37.795334"
   width="37.795334"
   xml:space="preserve"
   id="svg2"
   version="1.1"><metadata
     id="metadata8"><rdf:RDF><cc:Work
         rdf:about=""><dc:format>image/svg+xml</dc:format><dc:type
           rdf:resource="http://purl.org/dc/dcmitype/StillImage" /></cc:Work></rdf:RDF></metadata><defs
     id="defs6"><clipPath
       id="clipPath18"
       clipPathUnits="userSpaceOnUse"><path
         id="path16"
         d="M 0,28.346 H 28.346 V 0 H 0 Z" /></clipPath></defs><g
     transform="matrix(1.3333333,0,0,-1.3333333,0,37.795333)"
     id="g10"><g
       id="g12"><g
         clip-path="url(#clipPath18)"
         id="g14"><g
           transform="translate(5.1646,16.072)"
           id="g20"><path
             id="path22"
             style="fill:#2b2b2a;fill-opacity:1;fill-rule:nonzero;stroke:none"
             d="M 0,0 C 0.082,0.565 0.565,1.582 0.692,1.629 0.735,1.622 0.899,1.509 1.058,1.399 1.696,0.962 3.023,0.049 4.333,0.235 5.978,0.467 6.049,0.589 6.316,1.837 L 6.349,1.993 C 6.507,2.728 6.595,3.132 6.779,3.218 6.96,3.305 7.337,3.106 7.959,2.78 8.52,2.486 9.066,2.194 9.591,1.86 c 2.792,-1.774 5.483,-3.051 8.225,-3.905 0.059,-0.018 0.112,-0.039 0.16,-0.059 -0.094,-0.186 -0.32,-0.747 -1.214,-0.932 -1.1,-0.228 -3.959,-0.282 -3.959,-0.282 0,0 -4.916,-0.141 -9.176,0.115 -2.16,0.13 -3.321,0.327 -3.862,0.469 z m 18.3,-2.187 c -0.034,0.028 -0.079,0.06 -0.123,0.09 -0.014,0.059 -0.046,0.093 -0.077,0.108 -0.069,0.035 -0.149,0.068 -0.237,0.094 -2.729,0.85 -5.406,2.121 -8.187,3.888 C 9.146,2.331 8.596,2.624 8.033,2.92 7.322,3.292 6.965,3.479 6.712,3.361 6.457,3.242 6.375,2.861 6.195,2.026 L 6.162,1.87 C 5.909,0.685 5.894,0.614 4.311,0.391 3.067,0.216 1.769,1.103 1.147,1.53 0.854,1.731 0.757,1.798 0.682,1.786 0.406,1.752 -0.085,0.513 -0.157,0.018 l -0.291,-3.389 0.026,-0.008 c -0.022,-0.268 -0.043,-0.538 -0.068,-0.807 -0.064,-0.721 0.23,-0.987 0.979,-0.975 0.246,0.004 0.492,0.002 0.739,0.003 v 0.197 c 0,0.114 0.093,0.208 0.208,0.208 0.115,0 0.208,-0.094 0.208,-0.208 v -0.195 c 0.351,0 0.703,-0.002 1.054,-0.005 v 0.273 c 0,0.116 0.093,0.208 0.208,0.208 0.115,0 0.208,-0.092 0.208,-0.208 V -5.166 C 3.483,-5.17 3.853,-5.174 4.222,-5.179 v 0.191 c 0,0.115 0.093,0.208 0.208,0.208 0.114,0 0.208,-0.093 0.208,-0.208 v -0.196 c 0.622,-0.007 1.243,-0.012 1.865,-0.008 2.144,0.012 4.289,0.025 6.432,0.063 v 0.218 c 0,0.115 0.093,0.208 0.208,0.208 0.114,0 0.208,-0.093 0.208,-0.208 v -0.211 c 0.352,0.007 0.702,0.018 1.054,0.025 v 0.26 c 0,0.115 0.093,0.208 0.208,0.208 0.115,0 0.208,-0.093 0.208,-0.208 v -0.248 c 0.358,0.01 0.717,0.017 1.075,0.028 0.011,0 0.021,0.002 0.032,0.002 v 0.118 c 0,0.114 0.094,0.208 0.209,0.208 0.114,0 0.208,-0.094 0.208,-0.208 V -5.01 c 1.248,0.212 2.081,1.112 2.167,2.197 0.024,0.296 -0.076,0.439 -0.212,0.626" /></g></g></g></g></svg>