<svg xmlns="http://www.w3.org/2000/svg" xmlns:xlink="http://www.w3.org/1999/xlink" width="400" zoomAndPan="magnify" viewBox="0 0 300 299.999988" height="400" preserveAspectRatio="xMidYMid meet" version="1.0"><defs><g/></defs><g fill="#000000" fill-opacity="1"><g transform="translate(76.583642, 168.28262)"><g><path d="M 42.523438 0 L 42.523438 -11.648438 L 19.464844 -11.648438 L 19.464844 -21.378906 L 39.089844 -21.378906 L 39.089844 -32.789062 L 19.464844 -32.789062 L 19.464844 -43.320312 L 41.804688 -43.320312 L 41.804688 -54.96875 L 6.144531 -54.96875 L 6.144531 0 Z M 42.523438 0 "/></g></g></g><g fill="#000000" fill-opacity="1"><g transform="translate(122.935049, 168.28262)"><g><path d="M 17.710938 0 L 29.4375 0 L 46.273438 -54.96875 L 32.230469 -54.96875 L 23.613281 -21.460938 L 14.839844 -54.96875 L 0.957031 -54.96875 Z M 17.710938 0 "/></g></g></g><g fill="#000000" fill-opacity="1"><g transform="translate(170.164048, 168.28262)"><g><path d="M 39.96875 0 L 54.089844 0 L 33.90625 -54.96875 L 19.386719 -54.96875 L -0.878906 0 L 13.402344 0 L 18.03125 -12.605469 L 35.34375 -12.605469 Z M 26.566406 -42.203125 L 31.910156 -24.09375 L 21.621094 -24.09375 Z M 26.566406 -42.203125 "/></g></g></g></svg>