<svg xmlns="http://www.w3.org/2000/svg" xmlns:xlink="http://www.w3.org/1999/xlink" width="400" zoomAndPan="magnify" viewBox="0 0 300 299.999988" height="400" preserveAspectRatio="xMidYMid meet" version="1.0"><defs><g/></defs><g fill="#000000" fill-opacity="1"><g transform="translate(72.116851, 168.282649)"><g><path d="M 42.523438 0 L 42.523438 -11.648438 L 19.464844 -11.648438 L 19.464844 -21.378906 L 39.089844 -21.378906 L 39.089844 -32.789062 L 19.464844 -32.789062 L 19.464844 -43.320312 L 41.804688 -43.320312 L 41.804688 -54.96875 L 6.144531 -54.96875 L 6.144531 0 Z M 42.523438 0 "/></g></g></g><g fill="#000000" fill-opacity="1"><g transform="translate(118.468258, 168.282649)"><g><path d="M 17.710938 0 L 29.4375 0 L 46.273438 -54.96875 L 32.230469 -54.96875 L 23.613281 -21.460938 L 14.839844 -54.96875 L 0.957031 -54.96875 Z M 17.710938 0 "/></g></g></g><g fill="#000000" fill-opacity="1"><g transform="translate(165.697257, 168.282649)"><g><path d="M 3.03125 -27.445312 C 3.03125 -11.96875 15.476562 0.71875 31.035156 0.71875 C 46.671875 0.71875 59.117188 -11.96875 59.117188 -27.445312 C 59.117188 -43 46.671875 -55.6875 31.035156 -55.6875 C 15.476562 -55.6875 3.03125 -43 3.03125 -27.445312 Z M 16.515625 -27.445312 C 16.515625 -35.660156 22.898438 -42.28125 31.035156 -42.28125 C 39.089844 -42.28125 45.714844 -35.660156 45.714844 -27.445312 C 45.714844 -19.226562 39.089844 -12.683594 31.035156 -12.683594 C 22.898438 -12.683594 16.515625 -19.226562 16.515625 -27.445312 Z M 16.515625 -27.445312 "/></g></g></g></svg>