<?xml version="1.0" encoding="UTF-8" standalone="no"?>
<svg
   xmlns:dc="http://purl.org/dc/elements/1.1/"
   xmlns:cc="http://creativecommons.org/ns#"
   xmlns:rdf="http://www.w3.org/1999/02/22-rdf-syntax-ns#"
   xmlns:svg="http://www.w3.org/2000/svg"
   xmlns="http://www.w3.org/2000/svg"
   viewBox="0 0 2000 2000"
   height="2000"
   width="2000"
   xml:space="preserve"
   id="svg2"
   version="1.1"><metadata
     id="metadata8"><rdf:RDF><cc:Work
         rdf:about=""><dc:format>image/svg+xml</dc:format><dc:type
           rdf:resource="http://purl.org/dc/dcmitype/StillImage" /></cc:Work></rdf:RDF></metadata><defs
     id="defs6"><clipPath
       id="clipPath18"
       clipPathUnits="userSpaceOnUse"><path
         id="path16"
         d="M 0,1500 H 1500 V 0 H 0 Z" /></clipPath></defs><g
     transform="matrix(1.3333333,0,0,-1.3333333,0,2000)"
     id="g10"><g
       id="g12"><g
         clip-path="url(#clipPath18)"
         id="g14"><g
           transform="translate(1039.7072,893.951)"
           id="g20"><path
             id="path22"
             style="fill:#000000;fill-opacity:1;fill-rule:nonzero;stroke:none"
             d="m 0,0 -271.77,68.253 85.626,50.879 -155.119,258.119 h 174.975 c 17.373,0 33.712,-4.343 49.017,-13.03 15.306,-8.687 27.508,-20.476 36.609,-35.367 l 64.529,-107.964 84.386,52.12 z m -670.117,-424.407 -80.662,161.324 c -7.446,14.892 -10.962,30.817 -10.548,47.777 0.413,16.96 5.17,32.885 14.271,47.777 l 19.855,33.506 -84.385,50.879 271.77,68.253 68.252,-273.011 -85.626,52.12 z m 122.855,-141.469 c -16.546,0 -31.645,4.343 -45.295,13.03 -13.651,8.686 -23.785,20.062 -30.404,34.126 -6.618,13.237 -9.72,27.094 -9.307,41.572 0.414,14.478 4.344,27.922 11.789,40.331 l 42.193,69.494 h 213.445 v -198.553 z m 480.25,-99.277 -198.553,198.553 198.553,198.553 v -99.276 H 168.77 L 96.795,-511.274 c -9.101,-16.546 -21.51,-29.783 -37.229,-39.711 -15.719,-9.928 -33.092,-14.891 -52.12,-14.891 h -74.458 z m 142.71,347.468 -110.445,183.662 172.493,99.276 79.421,-132.782 c 9.101,-14.064 14.065,-29.783 14.892,-47.157 0.827,-17.373 -2.896,-33.505 -11.169,-48.397 -8.273,-16.546 -20.476,-29.783 -36.608,-39.711 -16.132,-9.927 -33.713,-14.891 -52.741,-14.891 z m -480.25,337.54 110.445,182.421 -73.216,121.614 c -9.928,16.546 -24.199,24.819 -42.813,24.819 -18.615,0 -32.886,-8.273 -42.813,-24.819 L -574.563,121.614 Z" /></g></g></g></g></svg>