<svg xmlns="http://www.w3.org/2000/svg" xmlns:xlink="http://www.w3.org/1999/xlink" width="400" zoomAndPan="magnify" viewBox="0 0 300 299.999988" height="400" preserveAspectRatio="xMidYMid meet" version="1.0"><defs><g/></defs><g fill="#000000" fill-opacity="1"><g transform="translate(101.358739, 168.282591)"><g><path d="M 16.355469 -43.320312 L 16.355469 0 L 29.679688 0 L 29.679688 -43.320312 L 43.878906 -43.320312 L 43.878906 -54.96875 L 2.152344 -54.96875 L 2.152344 -43.320312 Z M 16.355469 -43.320312 "/></g></g></g><g fill="#000000" fill-opacity="1"><g transform="translate(147.391053, 168.282591)"><g><path d="M 19.464844 0 L 19.464844 -18.347656 L 20.664062 -18.347656 L 32.46875 0 L 47.945312 0 L 34.542969 -18.988281 C 43.480469 -21.140625 47.707031 -28.878906 47.707031 -36.617188 C 47.707031 -45.792969 41.882812 -54.96875 28.878906 -54.96875 L 6.144531 -54.96875 L 6.144531 0 Z M 28.242188 -43.320312 C 32.628906 -43.320312 34.226562 -39.808594 34.226562 -36.617188 C 34.226562 -33.347656 32.628906 -29.835938 28.242188 -29.835938 L 19.464844 -29.835938 L 19.464844 -43.320312 Z M 28.242188 -43.320312 "/></g></g></g></svg>