<svg xmlns="http://www.w3.org/2000/svg" xmlns:xlink="http://www.w3.org/1999/xlink" width="400" zoomAndPan="magnify" viewBox="0 0 300 299.999988" height="400" preserveAspectRatio="xMidYMid meet" version="1.0"><defs><g/></defs><g fill="#000000" fill-opacity="1"><g transform="translate(75.124145, 168.282656)"><g><path d="M 16.355469 -43.320312 L 16.355469 0 L 29.679688 0 L 29.679688 -43.320312 L 43.878906 -43.320312 L 43.878906 -54.96875 L 2.152344 -54.96875 L 2.152344 -43.320312 Z M 16.355469 -43.320312 "/></g></g></g><g fill="#000000" fill-opacity="1"><g transform="translate(121.156458, 168.282656)"><g><path d="M 19.464844 0 L 19.464844 -18.347656 L 28.878906 -18.347656 C 41.882812 -18.347656 47.707031 -27.363281 47.707031 -36.617188 C 47.707031 -45.792969 41.882812 -54.96875 28.878906 -54.96875 L 6.144531 -54.96875 L 6.144531 0 Z M 28.242188 -43.320312 C 32.628906 -43.320312 34.226562 -39.808594 34.226562 -36.617188 C 34.226562 -33.347656 32.628906 -29.835938 28.242188 -29.835938 L 19.464844 -29.835938 L 19.464844 -43.320312 Z M 28.242188 -43.320312 "/></g></g></g><g fill="#000000" fill-opacity="1"><g transform="translate(170.459687, 168.282656)"><g><path d="M 27.203125 0.71875 C 38.613281 0.71875 48.90625 -7.339844 48.90625 -20.023438 L 48.90625 -54.96875 L 35.5 -54.96875 L 35.5 -20.023438 C 35.5 -15.15625 31.351562 -11.808594 27.203125 -11.808594 C 23.054688 -11.808594 18.90625 -15.15625 18.90625 -20.023438 L 18.90625 -54.96875 L 5.503906 -54.96875 L 5.503906 -20.023438 C 5.503906 -7.339844 15.796875 0.71875 27.203125 0.71875 Z M 27.203125 0.71875 "/></g></g></g></svg>