<?xml version="1.0" encoding="utf-8"?>
<!-- Generator: Adobe Illustrator 28.3.0, SVG Export Plug-In . SVG Version: 6.00 Build 0)  -->
<svg version="1.1" id="Layer_1" xmlns="http://www.w3.org/2000/svg" xmlns:xlink="http://www.w3.org/1999/xlink" x="0px" y="0px"
	 viewBox="0 0 500 500" style="enable-background:new 0 0 500 500;" xml:space="preserve">
<style type="text/css">
	.st0{fill:#595959;}
</style>
<g>
	<g transform="translate(33.100165, 198.079806)">
		<g>
			<path class="st0" d="M47.5,17.9c-0.2,0.4-0.5,0.7-0.8,0.9c-0.3,0.2-0.6,0.3-1,0.3c-0.4,0-1-0.2-1.6-0.7c-0.6-0.5-1.4-1-2.3-1.5
				c-0.9-0.6-2-1.1-3.3-1.5c-1.3-0.4-2.8-0.7-4.7-0.7c-1.7,0-3.2,0.2-4.6,0.7c-1.3,0.5-2.4,1.1-3.3,1.9c-0.9,0.8-1.6,1.7-2,2.8
				c-0.4,1.1-0.7,2.2-0.7,3.5c0,1.6,0.4,2.9,1.2,4c0.8,1,1.8,1.9,3.1,2.7c1.3,0.7,2.8,1.4,4.4,1.9c1.6,0.5,3.3,1.1,5,1.7
				c1.7,0.6,3.4,1.2,5,2c1.6,0.7,3.1,1.6,4.4,2.8c1.3,1.1,2.3,2.5,3.1,4.1c0.8,1.6,1.2,3.6,1.2,6c0,2.5-0.4,4.8-1.3,7
				c-0.8,2.2-2.1,4.1-3.7,5.7c-1.6,1.6-3.6,2.9-6,3.8c-2.4,0.9-5.1,1.4-8.1,1.4c-3.7,0-7.1-0.7-10.1-2c-3-1.3-5.6-3.2-7.8-5.5
				l2.2-3.6c0.2-0.3,0.5-0.5,0.8-0.7c0.3-0.2,0.6-0.3,1-0.3c0.3,0,0.7,0.1,1.2,0.4c0.4,0.3,0.9,0.6,1.5,1.1c0.6,0.4,1.2,0.9,1.9,1.4
				c0.7,0.5,1.5,1,2.5,1.4c0.9,0.4,2,0.8,3.1,1c1.2,0.3,2.5,0.4,3.9,0.4c1.8,0,3.5-0.2,4.9-0.8c1.4-0.5,2.6-1.2,3.6-2.1
				c1-0.9,1.8-2,2.3-3.3c0.5-1.3,0.8-2.7,0.8-4.2c0-1.7-0.4-3.1-1.2-4.2c-0.8-1.1-1.8-2-3.1-2.8c-1.3-0.8-2.7-1.4-4.4-1.9
				c-1.6-0.5-3.3-1-5-1.6c-1.7-0.5-3.4-1.2-5-1.9c-1.6-0.7-3.1-1.7-4.4-2.8c-1.3-1.1-2.3-2.6-3.1-4.3c-0.8-1.7-1.2-3.8-1.2-6.4
				c0-2,0.4-4,1.2-5.8c0.8-1.9,1.9-3.6,3.4-5s3.3-2.6,5.5-3.5c2.2-0.9,4.7-1.3,7.5-1.3c3.2,0,6.1,0.5,8.7,1.5c2.6,1,4.9,2.5,6.9,4.4
				L47.5,17.9z"/>
		</g>
	</g>
</g>
<g>
	<g transform="translate(65.465816, 198.079806)">
		<g>
			<path class="st0" d="M67.7,15.5H49.2V66h-7.7V15.5H23V9h44.6V15.5z"/>
		</g>
	</g>
</g>
<g>
	<g transform="translate(100.695158, 198.079806)">
		<g>
			<path class="st0" d="M93.5,37.5c0,4.3-0.7,8.2-2,11.8c-1.3,3.6-3.3,6.6-5.7,9.2c-2.5,2.6-5.4,4.6-8.9,6
				c-3.5,1.4-7.3,2.1-11.5,2.1c-4.2,0-8-0.7-11.5-2.1c-3.4-1.4-6.4-3.4-8.9-6c-2.5-2.6-4.4-5.6-5.7-9.2c-1.3-3.6-2-7.5-2-11.8
				c0-4.3,0.7-8.2,2-11.8c1.4-3.6,3.3-6.6,5.7-9.2c2.5-2.6,5.4-4.6,8.9-6c3.5-1.4,7.3-2.1,11.5-2.1c4.2,0,8,0.7,11.5,2.1
				c3.5,1.4,6.4,3.4,8.9,6c2.5,2.6,4.4,5.7,5.7,9.2C92.8,29.4,93.5,33.3,93.5,37.5z M85.6,37.5c0-3.5-0.5-6.6-1.4-9.4
				c-1-2.8-2.3-5.1-4.1-7.1c-1.8-1.9-3.9-3.4-6.4-4.4c-2.5-1-5.3-1.6-8.3-1.6c-3.1,0-5.8,0.5-8.3,1.6c-2.5,1-4.6,2.5-6.4,4.4
				c-1.8,1.9-3.1,4.3-4.1,7.1c-0.9,2.8-1.4,5.9-1.4,9.4s0.5,6.6,1.4,9.4c1,2.8,2.3,5.1,4.1,7c1.8,1.9,3.9,3.4,6.4,4.4
				c2.5,1,5.3,1.5,8.3,1.5c3.1,0,5.8-0.5,8.3-1.5c2.5-1,4.6-2.5,6.4-4.4c1.8-1.9,3.1-4.3,4.1-7C85.1,44.2,85.6,41,85.6,37.5z"/>
		</g>
	</g>
</g>
<g>
	<g transform="translate(148.453146, 198.079806)">
		<g>
			<path class="st0" d="M72.6,36.6c2.2,0,4.2-0.3,5.9-0.8s3.1-1.3,4.3-2.3c1.2-1,2-2.2,2.6-3.6c0.6-1.4,0.9-2.9,0.9-4.6
				c0-3.4-1.1-5.9-3.3-7.7c-2.2-1.7-5.6-2.6-10-2.6h-8.4v21.5H72.6z M98.9,66H92c-1.4,0-2.4-0.5-3.1-1.6L74.2,44
				c-0.5-0.6-0.9-1.1-1.5-1.4c-0.5-0.3-1.3-0.4-2.4-0.4h-5.9V66h-7.7V9h16.1c3.6,0,6.7,0.4,9.3,1.1c2.6,0.7,4.8,1.8,6.5,3.1
				c1.7,1.4,3,3,3.8,5c0.8,1.9,1.2,4.1,1.2,6.5c0,2-0.3,3.9-1,5.6c-0.6,1.8-1.5,3.3-2.8,4.7c-1.2,1.4-2.7,2.6-4.4,3.6
				c-1.7,1-3.7,1.7-5.9,2.2c1,0.6,1.8,1.4,2.5,2.4L98.9,66z"/>
		</g>
	</g>
</g>
<g>
	<g transform="translate(185.830257, 198.079806)">
		<g>
			<path class="st0" d="M76.9,66h-7.7V9h7.7V66z"/>
		</g>
	</g>
</g>
<g>
	<g transform="translate(202.535117, 198.079806)">
		<g>
			<path class="st0" d="M109.9,59.7l0,6.3H74.8V9h35.1v6.3H82.5v18.9h22.2v6.1H82.5v19.4H109.9z"/>
		</g>
	</g>
</g>
<g>
	<g transform="translate(236.988869, 198.079806)">
		<g>
			<path class="st0" d="M115.4,17.9c-0.2,0.4-0.5,0.7-0.8,0.9c-0.3,0.2-0.6,0.3-1,0.3c-0.4,0-1-0.2-1.6-0.7c-0.6-0.5-1.4-1-2.3-1.5
				c-0.9-0.6-2-1.1-3.3-1.5c-1.3-0.4-2.8-0.7-4.7-0.7c-1.7,0-3.2,0.2-4.6,0.7c-1.3,0.5-2.4,1.1-3.3,1.9c-0.9,0.8-1.6,1.7-2,2.8
				c-0.4,1.1-0.7,2.2-0.7,3.5c0,1.6,0.4,2.9,1.2,4c0.8,1,1.8,1.9,3.1,2.7c1.3,0.7,2.8,1.4,4.4,1.9c1.6,0.5,3.3,1.1,5,1.7
				c1.7,0.6,3.4,1.2,5,2c1.6,0.7,3.1,1.6,4.4,2.8c1.3,1.1,2.3,2.5,3.1,4.1c0.8,1.6,1.2,3.6,1.2,6c0,2.5-0.4,4.8-1.3,7
				c-0.8,2.2-2.1,4.1-3.7,5.7c-1.6,1.6-3.6,2.9-6,3.8c-2.4,0.9-5.1,1.4-8.1,1.4c-3.7,0-7.1-0.7-10.1-2c-3-1.3-5.6-3.2-7.8-5.5
				l2.2-3.6c0.2-0.3,0.5-0.5,0.8-0.7c0.3-0.2,0.6-0.3,1-0.3c0.3,0,0.7,0.1,1.2,0.4c0.4,0.3,0.9,0.6,1.5,1.1c0.6,0.4,1.2,0.9,1.9,1.4
				c0.7,0.5,1.5,1,2.5,1.4c0.9,0.4,2,0.8,3.1,1c1.2,0.3,2.5,0.4,3.9,0.4c1.8,0,3.5-0.2,4.9-0.8c1.4-0.5,2.6-1.2,3.6-2.1
				c1-0.9,1.8-2,2.3-3.3c0.5-1.3,0.8-2.7,0.8-4.2c0-1.7-0.4-3.1-1.2-4.2c-0.8-1.1-1.8-2-3.1-2.8c-1.3-0.8-2.7-1.4-4.4-1.9
				c-1.6-0.5-3.3-1-5-1.6c-1.7-0.5-3.4-1.2-5-1.9c-1.6-0.7-3.1-1.7-4.4-2.8c-1.3-1.1-2.3-2.6-3.1-4.3c-0.8-1.7-1.2-3.8-1.2-6.4
				c0-2,0.4-4,1.2-5.8c0.8-1.9,1.9-3.6,3.4-5s3.3-2.6,5.5-3.5c2.2-0.9,4.7-1.3,7.5-1.3c3.2,0,6.1,0.5,8.7,1.5c2.6,1,4.9,2.5,6.9,4.4
				L115.4,17.9z"/>
		</g>
	</g>
</g>
<g>
	<g transform="translate(269.361868, 198.079806)">
	</g>
</g>
<g>
	<g transform="translate(54.428834, 252.171034)">
		<g>
			<path class="st0" d="M28,84.1h-4.4L31.2,22h4.4L28,84.1z"/>
		</g>
	</g>
</g>
<g>
	<g transform="translate(70.708741, 252.171034)">
		<g>
			<path class="st0" d="M34.6,54.5c1.2-2.3,2.5-4.4,3.9-6.2c1.4-1.8,3-3.4,4.6-4.6c1.6-1.3,3.3-2.2,5-2.9c1.7-0.7,3.4-1,5.1-1
				c1.9,0,3.5,0.4,4.8,1.1c1.3,0.7,2.4,1.8,3.2,3.2c0.8,1.4,1.3,3.1,1.6,5.2c0.2,2,0.2,4.3-0.1,6.9l-3.3,27.9h-4.1l3.3-27.9
				c0.5-4.2,0.2-7.3-0.9-9.6c-1-2.2-3-3.3-5.9-3.3c-1.6,0-3.3,0.4-4.9,1.2c-1.7,0.8-3.3,2-4.8,3.6c-1.6,1.5-3,3.4-4.4,5.6
				C36.2,55.8,35,58.3,34,61l-2.7,23.1h-4.1l5.2-43.8h1.9c1,0,1.5,0.5,1.5,1.6L34.6,54.5z"/>
		</g>
	</g>
</g>
<g>
	<g transform="translate(104.649889, 252.171034)">
		<g>
			<path class="st0" d="M65.4,45.8c-0.2,0.4-0.6,0.6-1,0.6c-0.3,0-0.7-0.2-1.1-0.5c-0.4-0.4-1-0.8-1.7-1.2c-0.7-0.5-1.6-0.9-2.7-1.2
				c-1.1-0.4-2.4-0.6-4-0.6c-1.5,0-2.9,0.2-4.2,0.8c-1.3,0.5-2.5,1.2-3.5,2c-1,0.8-1.7,1.8-2.3,2.9c-0.6,1.1-0.9,2.3-0.9,3.5
				c0,1.2,0.3,2.2,0.8,3c0.6,0.8,1.3,1.5,2.2,2.1c0.9,0.6,2,1.1,3.1,1.6c1.2,0.4,2.3,0.9,3.6,1.3c1.2,0.4,2.4,0.9,3.6,1.5
				c1.2,0.5,2.2,1.2,3.1,2c0.9,0.8,1.7,1.7,2.2,2.8c0.6,1.1,0.8,2.4,0.8,4c0,1.9-0.4,3.7-1.1,5.4c-0.8,1.8-1.8,3.3-3.2,4.7
				c-1.4,1.4-3.1,2.5-5,3.3c-1.9,0.8-4.1,1.2-6.5,1.2c-2.8,0-5.2-0.5-7.1-1.5c-1.9-1-3.6-2.3-4.9-3.9l1.1-1.5
				c0.3-0.5,0.7-0.7,1.2-0.7c0.3,0,0.7,0.2,1.1,0.7c0.4,0.5,1,1,1.8,1.5c0.8,0.6,1.7,1.1,2.9,1.6c1.2,0.5,2.7,0.7,4.5,0.7
				c1.8,0,3.3-0.3,4.8-0.9c1.4-0.6,2.6-1.4,3.6-2.4c1-1,1.8-2.1,2.4-3.4c0.6-1.3,0.8-2.7,0.8-4.1c0-1.3-0.3-2.4-0.8-3.2
				c-0.6-0.9-1.3-1.6-2.2-2.2c-0.9-0.6-2-1.2-3.1-1.6c-1.2-0.4-2.3-0.9-3.6-1.3c-1.2-0.4-2.4-0.9-3.6-1.4c-1.2-0.5-2.2-1.1-3.1-1.9
				c-0.9-0.7-1.7-1.6-2.2-2.7c-0.6-1.1-0.8-2.3-0.8-3.9c0-1.7,0.4-3.3,1.1-4.9c0.7-1.6,1.8-3,3.1-4.2c1.3-1.2,2.9-2.2,4.7-2.9
				c1.8-0.7,3.8-1.1,6-1.1c2.5,0,4.6,0.4,6.4,1.1c1.8,0.8,3.4,1.9,4.8,3.4L65.4,45.8z"/>
		</g>
	</g>
</g>
<g>
	<g transform="translate(130.500408, 252.171034)">
		<g>
			<path class="st0" d="M52.2,75.1c1.3,2.3,2.9,3.9,4.7,4.9c1.9,0.9,3.8,1.4,5.8,1.4c1.8,0,3.6-0.4,5.1-1.1c1.6-0.8,3-1.8,4.3-3
				c1.3-1.3,2.5-2.8,3.5-4.5c1-1.7,1.9-3.5,2.5-5.4c0.7-1.9,1.2-3.9,1.6-5.9c0.4-2,0.5-3.9,0.5-5.9c0-3.9-0.7-7-2.2-9.1
				c-1.5-2.2-3.7-3.3-6.5-3.3c-1.7,0-3.3,0.5-5,1.4c-1.7,0.9-3.3,2.2-4.9,3.9c-1.5,1.7-3,3.7-4.4,6.1c-1.4,2.4-2.6,5-3.6,8
				L52.2,75.1z M54.4,55.6c1.1-2.4,2.4-4.5,3.8-6.5c1.4-1.9,2.9-3.6,4.5-5c1.6-1.4,3.2-2.5,5-3.2c1.7-0.8,3.5-1.1,5.3-1.1
				c1.9,0,3.5,0.4,5,1.1c1.4,0.7,2.6,1.8,3.6,3.1c1,1.3,1.7,3,2.2,4.9c0.5,1.9,0.8,4,0.8,6.4c0,2.2-0.2,4.5-0.7,6.9
				c-0.5,2.3-1.1,4.6-2,6.8c-0.9,2.2-1.9,4.2-3.2,6.1c-1.2,1.9-2.6,3.6-4.2,5c-1.6,1.4-3.3,2.6-5.2,3.4c-1.9,0.8-3.9,1.2-6,1.2
				c-2.4,0-4.6-0.5-6.6-1.6c-2-1.1-3.6-2.6-4.9-4.7l-2.6,21.1h-4l7.2-59.2h1.9c1,0,1.5,0.5,1.5,1.6L54.4,55.6z"/>
		</g>
	</g>
</g>
<g>
	<g transform="translate(164.441557, 252.171034)">
		<g>
			<path class="st0" d="M68.2,40.4l-5.3,43.6h-4.1l5.3-43.6H68.2z M71.4,25.4c0,0.5-0.1,1-0.3,1.5c-0.2,0.5-0.5,0.9-0.9,1.2
				c-0.3,0.3-0.8,0.6-1.2,0.8c-0.5,0.2-0.9,0.3-1.4,0.3c-0.5,0-1-0.1-1.4-0.3c-0.4-0.2-0.8-0.5-1.1-0.8c-0.3-0.3-0.6-0.8-0.8-1.2
				c-0.2-0.5-0.3-0.9-0.3-1.5c0-0.5,0.1-1,0.3-1.5c0.2-0.5,0.5-0.9,0.8-1.2c0.3-0.4,0.7-0.6,1.1-0.9c0.4-0.2,0.9-0.3,1.4-0.3
				c0.5,0,0.9,0.1,1.4,0.3c0.5,0.2,0.9,0.5,1.2,0.8c0.3,0.3,0.6,0.8,0.8,1.2C71.3,24.4,71.4,24.9,71.4,25.4z"/>
		</g>
	</g>
</g>
<g>
	<g transform="translate(178.353486, 252.171034)">
		<g>
			<path class="st0" d="M70.4,54.8c1.2-2.9,2.5-5.3,3.9-7.4c1.4-2.1,2.9-3.8,4.5-5c1.6-1.2,3.3-2,5-2.3c1.7-0.3,3.5-0.1,5.3,0.6
				l-0.8,3.9c-2-0.8-3.9-0.9-5.7-0.5c-1.8,0.4-3.5,1.3-5,2.8c-1.6,1.5-3,3.5-4.3,6c-1.3,2.5-2.5,5.5-3.6,9l-2.7,22.3H63l5.3-43.8
				h1.9c1,0,1.5,0.5,1.5,1.6L70.4,54.8z"/>
		</g>
	</g>
</g>
<g>
	<g transform="translate(199.961372, 252.171034)">
		<g>
			<path class="st0" d="M101.4,43.8c-0.9-0.3-1.8-0.5-2.7-0.7C97.7,43,96.8,43,95.8,43c-2.9,0-5.7,0.7-8.4,2.1c-2.7,1.4-5,3.3-7,5.8
				c-2,2.4-3.6,5.1-4.8,8.2c-1.2,3.1-1.8,6.3-1.8,9.6c0,3.9,0.7,7,2,9.1c1.3,2.2,3.4,3.3,6.2,3.3c1.7,0,3.3-0.5,4.9-1.4
				c1.6-0.9,3.2-2.3,4.6-4c1.5-1.7,2.9-3.7,4.1-6.1c1.3-2.4,2.4-5,3.5-7.9L101.4,43.8z M98.5,68.9c-1.1,2.3-2.3,4.5-3.7,6.4
				c-1.3,1.9-2.7,3.6-4.3,5c-1.5,1.4-3.1,2.4-4.8,3.2c-1.7,0.8-3.4,1.1-5.2,1.1c-1.8,0-3.4-0.4-4.8-1.1c-1.4-0.7-2.6-1.7-3.5-3
				c-0.9-1.3-1.6-2.9-2.1-4.8c-0.5-1.9-0.7-4-0.7-6.3c0-2.5,0.3-5,1-7.5c0.7-2.4,1.6-4.8,2.8-6.9c1.2-2.2,2.6-4.2,4.2-6.1
				c1.6-1.8,3.4-3.4,5.4-4.8c2-1.3,4.1-2.4,6.4-3.2c2.2-0.8,4.6-1.1,7-1.1c1.7,0,3.3,0.2,4.9,0.5c1.5,0.3,3,0.8,4.5,1.6l-5.1,42.1
				h-2c-0.6,0-1-0.2-1.2-0.5c-0.2-0.3-0.3-0.7-0.3-1.1L98.5,68.9z"/>
		</g>
	</g>
</g>
<g>
	<g transform="translate(232.751416, 252.171034)">
		<g>
			<path class="st0" d="M84.3,76.7c0-0.2,0-0.4,0-0.6c0-0.3,0-0.7,0.1-1.2c0-0.5,0.1-1.2,0.2-2c0.1-0.8,0.2-1.9,0.4-3.2l3-24.8h-5.8
				c-0.3,0-0.5-0.1-0.7-0.2c-0.2-0.2-0.2-0.4-0.2-0.8l0.2-1.6l6.9-0.5l2.9-15.6c0.1-0.3,0.2-0.5,0.4-0.7c0.2-0.2,0.5-0.3,0.8-0.3h2
				l-2.1,16.7h12.6l-0.4,3.1H92.1l-3,24.6c-0.2,1.2-0.3,2.2-0.4,3c-0.1,0.8-0.2,1.4-0.2,1.9c0,0.5-0.1,0.8-0.1,1.1
				c0,0.2,0,0.4,0,0.5c0,1.9,0.4,3.3,1.3,4.1c0.9,0.8,2,1.3,3.4,1.3c1,0,1.8-0.2,2.6-0.5c0.8-0.3,1.4-0.6,2-1c0.6-0.4,1-0.7,1.4-1
				c0.4-0.3,0.6-0.5,0.8-0.5c0.3,0,0.5,0.2,0.7,0.5l0.8,1.8c-1.2,1.2-2.6,2.2-4.3,3c-1.7,0.8-3.3,1.1-5,1.1c-2.4,0-4.3-0.7-5.6-2
				C85,81.5,84.3,79.4,84.3,76.7z"/>
		</g>
	</g>
</g>
<g>
	<g transform="translate(255.181514, 252.171034)">
		<g>
			<path class="st0" d="M98.5,40.4l-5.3,43.6h-4.1l5.3-43.6H98.5z M101.7,25.4c0,0.5-0.1,1-0.3,1.5c-0.2,0.5-0.5,0.9-0.9,1.2
				c-0.3,0.3-0.8,0.6-1.2,0.8c-0.5,0.2-0.9,0.3-1.4,0.3c-0.5,0-1-0.1-1.4-0.3c-0.4-0.2-0.8-0.5-1.1-0.8c-0.3-0.3-0.6-0.8-0.8-1.2
				c-0.2-0.5-0.3-0.9-0.3-1.5c0-0.5,0.1-1,0.3-1.5c0.2-0.5,0.5-0.9,0.8-1.2c0.3-0.4,0.7-0.6,1.1-0.9c0.4-0.2,0.9-0.3,1.4-0.3
				c0.5,0,0.9,0.1,1.4,0.3c0.5,0.2,0.9,0.5,1.2,0.8c0.3,0.3,0.6,0.8,0.8,1.2C101.6,24.4,101.7,24.9,101.7,25.4z"/>
		</g>
	</g>
</g>
<g>
	<g transform="translate(269.093432, 252.171034)">
		<g>
			<path class="st0" d="M109,81.3c2.5,0,4.9-0.7,6.9-2c2.1-1.3,3.9-3.1,5.4-5.3c1.5-2.2,2.7-4.7,3.5-7.6c0.8-2.8,1.2-5.8,1.2-8.8
				c0-4.7-1-8.3-3.1-10.8c-2.1-2.5-4.9-3.8-8.6-3.8c-2.5,0-4.9,0.7-7,2c-2.1,1.3-3.9,3.1-5.4,5.2c-1.5,2.2-2.6,4.7-3.4,7.5
				c-0.8,2.8-1.2,5.8-1.2,8.9c0,4.7,1,8.3,3.1,10.8C102.4,80.1,105.3,81.3,109,81.3z M108.7,84.6c-2.3,0-4.5-0.4-6.4-1.2
				c-1.9-0.8-3.6-2-4.9-3.5c-1.3-1.6-2.4-3.4-3.1-5.6c-0.8-2.2-1.1-4.7-1.1-7.5c0-3.5,0.5-6.9,1.6-10.2c1.1-3.2,2.5-6.1,4.5-8.6
				c1.9-2.5,4.2-4.5,6.8-5.9c2.6-1.5,5.5-2.2,8.7-2.2c2.3,0,4.5,0.4,6.4,1.2c1.9,0.8,3.6,2,4.9,3.6c1.4,1.5,2.4,3.4,3.1,5.6
				c0.8,2.2,1.1,4.7,1.1,7.4c0,3.5-0.5,6.9-1.6,10.2c-1.1,3.2-2.6,6.1-4.5,8.6c-1.9,2.5-4.2,4.5-6.8,6
				C114.7,83.9,111.8,84.6,108.7,84.6z"/>
		</g>
	</g>
</g>
<g>
	<g transform="translate(302.83725, 252.171034)">
		<g>
			<path class="st0" d="M111.9,54.5c1.2-2.3,2.5-4.4,3.9-6.2c1.4-1.8,3-3.4,4.6-4.6c1.6-1.3,3.3-2.2,5-2.9c1.7-0.7,3.4-1,5.1-1
				c1.9,0,3.5,0.4,4.8,1.1c1.3,0.7,2.4,1.8,3.2,3.2c0.8,1.4,1.3,3.1,1.6,5.2c0.2,2,0.2,4.3-0.1,6.9l-3.3,27.9h-4.1l3.3-27.9
				c0.5-4.2,0.2-7.3-0.9-9.6c-1-2.2-3-3.3-5.9-3.3c-1.6,0-3.3,0.4-4.9,1.2c-1.7,0.8-3.3,2-4.8,3.6c-1.6,1.5-3,3.4-4.4,5.6
				c-1.4,2.2-2.6,4.6-3.6,7.4l-2.7,23.1h-4.1l5.2-43.8h1.9c1,0,1.5,0.5,1.5,1.6L111.9,54.5z"/>
		</g>
	</g>
</g>
<g>
	<g transform="translate(262.977878, 198.181748)">
		<g>
			<path class="st0" d="M124,45.2c-4,2.1-7,4.8-8.9,7.9c-2,3.1-3,6.5-3,10.1c0,1.9,0.3,3.6,0.9,5.1c0.6,1.5,1.4,2.8,2.5,3.8
				c1.1,1,2.3,1.8,3.8,2.4c1.5,0.5,3,0.8,4.7,0.8c3.3,0,6.4-0.7,9.3-2.2c2.9-1.5,5.6-3.4,8-5.9L124,45.2z M163.7,81.6h-7.7
				c-0.7,0-1.4,0-1.9-0.1c-0.5-0.1-1-0.2-1.4-0.4c-0.4-0.2-0.8-0.5-1.2-0.8c-0.4-0.3-0.8-0.8-1.2-1.2l-4.9-6.3
				c-3.3,3-6.9,5.4-10.9,7.1c-4,1.8-8.2,2.6-12.7,2.6c-2.8,0-5.4-0.4-7.8-1.3c-2.3-0.8-4.4-2.1-6.1-3.6c-1.7-1.6-3-3.5-3.9-5.7
				c-0.9-2.2-1.4-4.8-1.4-7.6c0-2.7,0.4-5.3,1.4-7.7c0.9-2.4,2.2-4.7,3.8-6.7c1.6-2,3.5-3.8,5.6-5.4c2.2-1.6,4.5-2.9,7-4
				c-1.3-2.3-2.3-4.5-3-6.7c-0.6-2.2-1-4.4-1-6.6c0-2.8,0.5-5.5,1.5-8c1-2.5,2.4-4.7,4.2-6.5c1.8-1.8,4-3.3,6.6-4.4
				c2.6-1.1,5.4-1.6,8.5-1.6c2.5,0,4.8,0.4,6.8,1.2c2,0.8,3.7,1.9,5.1,3.3c1.4,1.4,2.4,3.1,3.1,5c0.7,1.9,1,4,1,6.2l-5.2,1
				c-0.8,0.2-1.4,0.2-1.8-0.1c-0.4-0.2-0.7-0.8-0.9-1.5c-0.2-1-0.5-1.9-0.9-2.9c-0.4-1-1-1.8-1.7-2.6c-0.7-0.8-1.6-1.4-2.6-1.9
				c-1-0.5-2.2-0.8-3.7-0.8c-1.8,0-3.4,0.3-4.8,1c-1.4,0.7-2.6,1.6-3.6,2.7c-1,1.2-1.8,2.5-2.4,4.1c-0.6,1.6-0.8,3.2-0.8,5
				c0,3.9,1.7,8,5,12.4l16.7,21.1c1.4-2.3,2.6-4.6,3.5-7.1c1-2.4,1.7-4.9,2.1-7.3c0.1-0.6,0.4-1.1,0.7-1.5c0.3-0.4,0.8-0.6,1.5-0.6
				h6.2c-0.5,4-1.6,7.9-3.2,11.7s-3.6,7.4-6.1,10.7L163.7,81.6z"/>
		</g>
	</g>
</g>
</svg>
