<?xml version="1.0" encoding="UTF-8" standalone="no"?>
<svg
   xmlns:dc="http://purl.org/dc/elements/1.1/"
   xmlns:cc="http://creativecommons.org/ns#"
   xmlns:rdf="http://www.w3.org/1999/02/22-rdf-syntax-ns#"
   xmlns:svg="http://www.w3.org/2000/svg"
   xmlns="http://www.w3.org/2000/svg"
   viewBox="0 0 266.66666 266.66666"
   height="266.66666"
   width="266.66666"
   xml:space="preserve"
   id="svg2"
   version="1.1"><metadata
     id="metadata8"><rdf:RDF><cc:Work
         rdf:about=""><dc:format>image/svg+xml</dc:format><dc:type
           rdf:resource="http://purl.org/dc/dcmitype/StillImage" /></cc:Work></rdf:RDF></metadata><defs
     id="defs6"><clipPath
       id="clipPath18"
       clipPathUnits="userSpaceOnUse"><path
         id="path16"
         d="M 0,200 H 200 V 0 H 0 Z" /></clipPath></defs><g
     transform="matrix(1.3333333,0,0,-1.3333333,0,266.66667)"
     id="g10"><g
       id="g12"><g
         clip-path="url(#clipPath18)"
         id="g14"><g
           transform="translate(16.4714,94.3105)"
           id="g20"><path
             id="path22"
             style="fill:#1d1d1b;fill-opacity:1;fill-rule:nonzero;stroke:none"
             d="m 0,0 h 6.224 c 0,-1.744 1.744,-3.093 3.884,-3.093 2.023,0 3.568,1.031 3.568,2.817 0,1.069 -0.595,2.061 -3.013,2.852 L 7.413,3.568 C 1.387,5.193 0.238,8.88 0.238,11.456 c 0,4.917 4.201,8.367 9.632,8.367 5.235,0 9.237,-3.132 9.237,-8.444 h -6.225 c 0,1.625 -0.989,3.013 -3.131,3.013 -1.943,0 -3.209,-1.308 -3.209,-2.817 0,-0.553 0.158,-1.783 2.695,-2.496 L 12.092,8.167 C 15.975,6.979 19.941,4.994 19.941,0.039 19.941,-5.826 14.867,-8.444 9.87,-8.444 4.044,-8.444 0,-5.036 0,0" /></g><g
           transform="translate(58.7974,113.6577)"
           id="g24"><path
             id="path26"
             style="fill:#1d1d1b;fill-opacity:1;fill-rule:nonzero;stroke:none"
             d="m 0,0 v -5.431 h -7.216 v -21.884 h -6.225 v 21.884 h -7.213 V 0 Z" /></g><g
           transform="translate(68.9354,108.2267)"
           id="g28"><path
             id="path30"
             style="fill:#1d1d1b;fill-opacity:1;fill-rule:nonzero;stroke:none"
             d="m 0,0 v -7.374 h 3.966 c 2.736,0 3.925,1.783 3.925,3.607 C 7.891,-1.943 6.658,0 4.124,0 Z m 7.532,-21.884 -6.263,9.593 H 0 v -9.593 H -6.224 V 5.431 h 11.18 c 6.345,0 9.198,-4.519 9.198,-9.041 0,-3.844 -2.853,-7.531 -6.385,-8.324 l 7.021,-9.95 z" /></g><g
           transform="translate(108.0083,100.0207)"
           id="g32"><path
             id="path34"
             style="fill:#1d1d1b;fill-opacity:1;fill-rule:nonzero;stroke:none"
             d="m 0,0 c 0,4.558 -3.129,8.245 -7.689,8.245 -4.599,0 -7.651,-3.687 -7.651,-8.245 0,-4.56 3.052,-8.286 7.651,-8.286 C -3.129,-8.286 0,-4.56 0,0 m -21.602,0 c 0,7.731 6.141,14.112 13.952,14.112 7.694,0 13.918,-6.381 13.918,-14.112 0,-7.731 -6.224,-14.154 -13.918,-14.154 -7.811,0 -13.952,6.423 -13.952,14.154" /></g><g
           transform="translate(130.0365,91.7733)"
           id="g36"><path
             id="path38"
             style="fill:#1d1d1b;fill-opacity:1;fill-rule:nonzero;stroke:none"
             d="M 0,0 C 2.217,0 3.328,1.506 3.328,3.054 3.328,4.48 2.338,6.105 0,6.105 H -4.875 V 0 Z m -0.475,16.453 h -4.4 v -5.234 h 4.355 c 1.471,0 2.46,0.953 2.46,2.617 0,1.387 -0.713,2.617 -2.415,2.617 M 9.591,2.418 c 0,-3.725 -2.416,-7.849 -8.839,-7.849 H -11.1 v 27.315 h 11.061 c 4.992,0 8.204,-3.012 8.204,-7.056 0,-1.904 -0.714,-4.759 -3.848,-5.668 3.61,-0.517 5.274,-3.61 5.274,-6.742" /></g><g
           transform="translate(150.5611,91.7733)"
           id="g40"><path
             id="path42"
             style="fill:#1d1d1b;fill-opacity:1;fill-rule:nonzero;stroke:none"
             d="M 0,0 H 11.653 V -5.431 H -6.224 V 21.884 H 11.299 V 16.453 H 0 v -5.63 H 9.911 V 5.232 H 0 Z" /></g><g
           transform="translate(173.5013,91.7733)"
           id="g44"><path
             id="path46"
             style="fill:#1d1d1b;fill-opacity:1;fill-rule:nonzero;stroke:none"
             d="M 0,0 H 10.027 V -5.431 H -6.224 V 21.884 H 0 Z" /></g></g></g></g></svg>