<?xml version="1.0" encoding="UTF-8" standalone="no"?>
<svg
   xmlns:dc="http://purl.org/dc/elements/1.1/"
   xmlns:cc="http://creativecommons.org/ns#"
   xmlns:rdf="http://www.w3.org/1999/02/22-rdf-syntax-ns#"
   xmlns:svg="http://www.w3.org/2000/svg"
   xmlns="http://www.w3.org/2000/svg"
   viewBox="0 0 37.795334 37.795334"
   height="37.795334"
   width="37.795334"
   xml:space="preserve"
   id="svg2"
   version="1.1"><metadata
     id="metadata8"><rdf:RDF><cc:Work
         rdf:about=""><dc:format>image/svg+xml</dc:format><dc:type
           rdf:resource="http://purl.org/dc/dcmitype/StillImage" /></cc:Work></rdf:RDF></metadata><defs
     id="defs6"><clipPath
       id="clipPath22"
       clipPathUnits="userSpaceOnUse"><path
         id="path20"
         d="M 0,28.346 H 28.346 V 0 H 0 Z" /></clipPath></defs><g
     transform="matrix(1.3333333,0,0,-1.3333333,0,37.795333)"
     id="g10"><g
       transform="translate(5.9738,17.4682)"
       id="g12"><path
         id="path14"
         style="fill:#2b2b2a;fill-opacity:1;fill-rule:nonzero;stroke:none"
         d="m 0,0 v -0.726 h -0.966 v -2.929 h -0.832 v 2.929 H -2.763 V 0 Z" /></g><g
       id="g16"><g
         clip-path="url(#clipPath22)"
         id="g18"><g
           transform="translate(9.0566,15.6439)"
           id="g24"><path
             id="path26"
             style="fill:#2b2b2a;fill-opacity:1;fill-rule:nonzero;stroke:none"
             d="M 0,0 C 0,0.61 -0.419,1.103 -1.029,1.103 -1.645,1.103 -2.053,0.61 -2.053,0 c 0,-0.611 0.408,-1.109 1.024,-1.109 C -0.419,-1.109 0,-0.611 0,0 m -2.891,0 c 0,1.034 0.822,1.888 1.867,1.888 1.029,0 1.862,-0.854 1.862,-1.888 0,-1.035 -0.833,-1.894 -1.862,-1.894 -1.045,0 -1.867,0.859 -1.867,1.894" /></g><g
           transform="translate(11.9917,15.7812)"
           id="g28"><path
             id="path30"
             style="fill:#2b2b2a;fill-opacity:1;fill-rule:nonzero;stroke:none"
             d="m 0,0 c 0.314,0 0.43,0.244 0.43,0.478 0,0.233 -0.116,0.483 -0.425,0.483 H -0.637 V 0 Z m 0.037,1.687 c 0.849,0 1.231,-0.605 1.231,-1.209 0,-0.61 -0.382,-1.204 -1.231,-1.204 h -0.674 v -1.242 h -0.832 v 3.655 z" /></g><g
           transform="translate(16.3383,14.54)"
           id="g32"><path
             id="path34"
             style="fill:#2b2b2a;fill-opacity:1;fill-rule:nonzero;stroke:none"
             d="M 0,0 C 0.547,0 0.828,0.525 0.828,1.093 0.828,1.665 0.547,2.202 0,2.202 H -0.61 V 0 Z M 0,2.928 C 1.056,2.928 1.665,2.133 1.665,1.093 1.665,0.059 1.056,-0.726 0,-0.726 h -1.443 v 3.654 z" /></g><g
           transform="translate(19.4799,16.7418)"
           id="g36"><path
             id="path38"
             style="fill:#2b2b2a;fill-opacity:1;fill-rule:nonzero;stroke:none"
             d="m 0,0 v -0.987 h 0.531 c 0.366,0 0.525,0.239 0.525,0.483 C 1.056,-0.26 0.891,0 0.552,0 Z M 1.008,-2.928 0.17,-1.645 H 0 v -1.283 h -0.833 v 3.654 h 1.496 c 0.849,0 1.231,-0.604 1.231,-1.209 0,-0.515 -0.382,-1.008 -0.854,-1.114 l 0.939,-1.331 z" /></g><g
           transform="translate(24.1443,17.4682)"
           id="g40"><path
             id="path42"
             style="fill:#2b2b2a;fill-opacity:1;fill-rule:nonzero;stroke:none"
             d="m 0,0 h 0.992 l -1.426,-2.021 v -1.634 h -0.839 v 1.65 L -2.694,0 h 0.992 l 0.843,-1.347 z" /></g><g
           transform="translate(12.1032,12.1611)"
           id="g44"><path
             id="path46"
             style="fill:#2b2b2a;fill-opacity:1;fill-rule:nonzero;stroke:none"
             d="m 0,0 v -0.726 h -0.966 v -2.929 h -0.832 v 2.929 H -2.763 V 0 Z" /></g><g
           transform="translate(13.4619,9.2329)"
           id="g48"><path
             id="path50"
             style="fill:#2b2b2a;fill-opacity:1;fill-rule:nonzero;stroke:none"
             d="M 0,0 H 1.56 V -0.726 H -0.833 V 2.928 H 1.512 V 2.202 H 0 V 1.449 H 1.327 V 0.701 L 0,0.701 Z" /></g><g
           transform="translate(18.8104,8.5065)"
           id="g52"><path
             id="path54"
             style="fill:#2b2b2a;fill-opacity:1;fill-rule:nonzero;stroke:none"
             d="M 0,0 H -0.981 L -1.76,1.284 -2.54,0 h -0.976 l 1.256,1.947 -1.15,1.708 h 1.008 l 0.642,-1.046 0.652,1.046 h 0.997 L -1.267,1.947 Z" /></g></g></g></g></svg>