<?xml version="1.0" encoding="UTF-8" standalone="no"?>
<svg
   xmlns:dc="http://purl.org/dc/elements/1.1/"
   xmlns:cc="http://creativecommons.org/ns#"
   xmlns:rdf="http://www.w3.org/1999/02/22-rdf-syntax-ns#"
   xmlns:svg="http://www.w3.org/2000/svg"
   xmlns="http://www.w3.org/2000/svg"
   viewBox="0 0 1056 816"
   height="816"
   width="1056"
   xml:space="preserve"
   id="svg2"
   version="1.1"><metadata
     id="metadata8"><rdf:RDF><cc:Work
         rdf:about=""><dc:format>image/svg+xml</dc:format><dc:type
           rdf:resource="http://purl.org/dc/dcmitype/StillImage" /></cc:Work></rdf:RDF></metadata><defs
     id="defs6"><clipPath
       id="clipPath18"
       clipPathUnits="userSpaceOnUse"><path
         id="path16"
         d="M 0,612 H 792 V 0 H 0 Z" /></clipPath></defs><g
     transform="matrix(1.3333333,0,0,-1.3333333,0,816)"
     id="g10"><g
       id="g12"><g
         clip-path="url(#clipPath18)"
         id="g14"><g
           transform="translate(276.1743,186.2441)"
           id="g20"><path
             id="path22"
             style="fill:#171717;fill-opacity:1;fill-rule:nonzero;stroke:none"
             d="m 0,0 c -94.131,18.083 -152.606,85.104 -152.606,174.908 0,47.011 18.501,91.303 52.096,124.717 33.545,33.365 77.94,51.739 125.008,51.739 97.093,0 176.38,-79.155 176.744,-176.449 0,-39.599 -10.162,-65.134 -28.914,-98.406 l -3.485,1.965 c 18.418,32.677 28.399,57.725 28.399,96.434 -0.356,95.089 -77.848,172.456 -172.744,172.456 -95.45,0 -173.104,-77.364 -173.104,-172.456 0,-87.766 57.231,-153.282 149.361,-170.98 z" /></g><g
           transform="translate(643.8281,252.9355)"
           id="g24"><path
             id="path26"
             style="fill:#171717;fill-opacity:1;fill-rule:nonzero;stroke:none"
             d="m 0,0 c 0,-1.365 -0.712,-1.947 -2.38,-1.947 h -3.964 v 3.752 h 4.251 C -0.837,1.805 0,1.498 0,0 M 3.263,-9.426 C 2.834,-9.188 2.8,-9.113 2.8,-8.424 l -0.144,2.538 c -0.057,1.593 -0.552,2.32 -1.177,2.732 0.746,0.602 1.465,1.514 1.465,3.299 0,2.783 -1.814,4.316 -5.108,4.316 h -7.053 v -15.112 h 2.873 v 6.047 h 4.18 c 1.676,0 2.019,-0.807 2.019,-2.019 0,-1.822 0.106,-3.063 0.315,-3.688 l 0.114,-0.34 H 3.52 v 1.082 z" /></g><g
           transform="translate(640.3682,261.2197)"
           id="g28"><path
             id="path30"
             style="fill:#171717;fill-opacity:1;fill-rule:nonzero;stroke:none"
             d="m 0,0 c -6.235,0 -11.308,-5.299 -11.308,-11.812 0,-6.473 5.073,-11.74 11.308,-11.74 6.274,0 11.38,5.267 11.38,11.74 C 11.38,-5.299 6.274,0 0,0 m 0,-24.552 c -6.786,0 -12.308,5.715 -12.308,12.74 C -12.308,-4.747 -6.786,1 0,1 6.826,1 12.38,-4.747 12.38,-11.812 12.38,-18.837 6.826,-24.552 0,-24.552" /></g><g
           transform="translate(354.7402,452.5)"
           id="g32"><path
             id="path34"
             style="fill:#171717;fill-opacity:1;fill-rule:nonzero;stroke:none"
             d="m 0,0 c -0.23,-0.85 -0.38,-1.37 -0.41,-1.69 -4.34,-7.05 -8,-10.97 -12.33,-15.36 l -0.01,-0.01 c -2.06,-2.23 -3.93,-4.61 -5.73,-6.91 -0.59,-0.75 -1.18,-1.51 -1.791,-2.27 -2.719,-1.25 -5.609,-2.7 -8.239,-4.58 -12.29,-8.64 -18.81,-12.29 -31.73,-17.73 -8.56,-3.67 -20.71,-6.89 -30.19,-8.03 -4.15,0 -7.14,0.69 -10.33,1.7 -2.8,1.07 -5.12,2.13 -7.44,5.03 -0.64,1.79 -1.31,4.12 -1.321,5.44 -0.959,6.85 4.151,13.45 9.561,20.43 0.5,0.65 1.01,1.3 1.5,1.95 5.33,6.81 15.89,16.65 27.5,23.27 l 0.31,0.17 c 9.22,5.14 17.93,10 31.03,13.75 1.17,0.28 2.33,0.57 3.52,0.87 3.36,0.86 6.829,1.74 10.68,2.28 l 2.1,-0.37 0.08,0.02 c 2.02,0.35 11.34,0.07 15.43,-0.91 C -1.99,14.75 1.15,10.52 1.02,5.13 1.02,3.61 0.43,1.52 0,0 m 3.8,14.92 c -1.92,2.72 -5.9,5.14 -10.72,6.48 l -10.851,1.33 -0.869,0.11 h -0.04 C -29.58,22.11 -36.76,19.95 -45.021,17.19 -57.23,12.8 -66.16,8.61 -74.85,3.18 c -14.38,-9.06 -25.24,-19.11 -32.24,-29.85 -3.92,-4.99 -12.21,-17.55 -4.6,-26.48 4.83,-5.89 12,-7.67 19.23,-7.67 7.16,0 14.38,1.75 19.439,2.97 16.581,4.39 25.331,9.71 33.791,14.85 2.22,1.35 4.5,2.74 6.88,4.07 5.5,3.36 9.29,7.61 12.72,11.89 0.57,0.26 1.13,0.52 1.7,0.77 3.68,1.67 7.159,3.25 9.38,5.52 2.72,3.14 5.62,7.04 8.17,10.97 6.71,9.19 8.12,17.49 4.18,24.7" /></g><g
           transform="translate(506.8799,177.624)"
           id="g36"><path
             id="path38"
             style="fill:#171717;fill-opacity:1;fill-rule:evenodd;stroke:none"
             d="m 0,0 c 1.513,-2.16 3.312,-3.24 6.479,-3.528 4.034,-0.504 8.786,0.072 12.313,5.328 3.816,4.895 4.896,14.328 4.896,21.672 C 21.601,21.023 19.513,20.304 17.28,19.584 13.104,17.856 7.92,14.76 5.688,13.464 3.528,11.736 0.16,9.354 -1.352,5.107 -1.279,3.523 -0.864,1.224 0,0 m -4.536,23.256 c 7.632,3.456 16.992,6.84 24.049,12.815 C 31.393,45.145 18.792,63 6.552,55.656 -5.328,48.96 7.92,39.528 5.112,34.632 4.464,33.983 4.104,31.536 2.664,30.815 0.288,29.088 -3.601,28.368 -5.328,28.368 -16.2,28.729 -21.456,50.76 -3.601,61.2 c 7.345,4.248 20.664,5.615 31.105,3.168 8.784,-2.089 15.408,-7.704 17.856,-15.049 0.72,-1.727 0.36,-5.615 0,-8.712 0,-8.783 -1.08,-20.303 -1.44,-30.095 -0.288,-12.888 1.8,-21.312 15.768,-15.697 0,0.361 1.368,2.45 1.368,4.538 1.08,11.519 1.799,41.903 1.08,44.351 -1.368,3.168 -11.52,3.528 -9.792,10.512 1.368,4.536 6.624,7.345 14.688,10.152 2.808,1.368 6.624,3.456 11.16,2.808 1.44,0 3.888,-0.361 4.896,-1.728 1.44,-2.16 1.44,-5.616 1.44,-8.064 5.256,3.168 6.624,7.345 13.248,9.072 4.176,1.368 10.871,0.359 16.416,-2.088 4.247,-2.089 7.704,-6.264 9.432,-9.431 1.08,-2.809 1.439,-8.785 1.439,-13.321 0.361,-9.792 -0.359,-20.232 -0.719,-32.112 0,-4.897 -1.008,-9.144 0,-12.96 1.08,-4.176 8.424,-2.808 9.792,-6.624 0.719,-2.088 0.719,-6.696 0.719,-6.696 H 97.056 c 0,0 -0.288,4.248 0,5.976 0.72,2.448 4.248,3.168 6.337,4.896 0.359,0.36 0.719,1.728 0.719,2.448 v 2.088 c 0,2.088 -0.36,3.528 0,6.264 0.287,8.064 0.287,10.152 0.648,21.024 0.719,10.8 0.36,18.504 -3.816,21.672 -1.728,1.727 -3.168,2.448 -6.984,1.727 C 82.08,46.872 82.08,36.071 82.08,24.479 82.08,10.872 80.64,1.8 82.728,-3.456 c 1.081,-2.088 5.256,-2.808 8.064,-4.176 1.729,-0.72 3.168,-2.448 3.168,-2.448 0,0 1.008,-4.536 0,-6.983 -17.856,0 -33.552,0.287 -42.336,0 -11.88,0 -15.336,0 -18.504,0.647 -4.176,1.439 -4.536,3.168 -6.984,3.888 -4.896,1.368 -21.024,-8.424 -32.184,-4.535 -8.351,3.095 -14.328,7.63 -16.416,16.416 -2.808,12.887 6.048,18.359 17.928,23.903" /></g><g
           transform="translate(429.5518,209.1602)"
           id="g40"><path
             id="path42"
             style="fill:#171717;fill-opacity:1;fill-rule:evenodd;stroke:none"
             d="m 0,0 c 0,-9.792 -1.368,-20.592 7.704,-24.479 2.088,-0.649 3.888,-1.369 6.336,-1.369 2.088,0 3.816,0.72 5.544,1.369 9.072,3.887 7.704,14.687 7.704,24.479 0,8.783 2.088,18.575 -5.256,22.752 C 19.584,24.12 17.137,25.2 14.04,25.2 11.232,25.2 9.144,23.76 6.984,22.752 -0.648,18.216 0,9.071 0,0 m -18.792,-20.232 h -0.071 c -2.809,3.095 -4.897,8.352 -6.985,13.968 -1.368,4.896 -1.08,15.335 4.536,24.839 4.536,6.625 12.6,13.969 22.033,16.417 7.343,2.088 12.239,2.447 15.767,2.447 5.904,-0.359 9.072,-1.727 16.416,-2.447 1.368,3.455 6.984,10.8 10.8,11.52 9.792,2.448 21.024,-8.712 32.904,1.728 0.648,-3.816 -1.08,-7.344 -3.887,-11.52 -2.809,-4.536 -5.257,-6.264 -9.433,-6.984 -7.344,-1.369 -17.855,11.16 -22.68,3.816 -1.799,-2.736 0,-4.536 2.448,-6.264 4.824,-3.168 10.8,-8.064 13.249,-13.248 3.527,-8.064 3.815,-12.601 2.448,-18.576 -1.081,-3.456 -2.448,-6.985 -4.897,-10.44 -1.728,-2.161 -3.528,-4.608 -5.976,-6.696 -2.447,-1.728 -5.543,-3.096 -7.272,-4.896 -2.16,-2.088 -2.448,-2.808 -2.448,-5.256 0,-1.729 2.736,-2.737 5.544,-3.096 4.176,-1.08 8.064,-3.528 11.233,-7.344 3.455,-4.896 4.895,-9.072 5.183,-13.968 0.36,-3.528 0.36,-5.976 -2.448,-12.6 -1.728,-4.897 -5.184,-10.152 -9.071,-13.968 -14.329,-14.041 -27.577,-17.856 -45.792,-14.041 -4.177,0.721 -15.337,5.977 -20.592,11.593 -6.696,6.984 -7.704,15.336 -8.065,16.416 -0.719,4.176 -0.36,12.24 3.168,19.584 3.096,6.264 8.712,10.8 13.248,13.248 9.792,4.896 28.656,-0.36 31.464,-11.88 0.721,-3.169 -2.448,-9.792 -5.544,-10.512 -1.44,-0.648 -4.896,-2.087 -8.063,0 -2.809,1.8 -4.537,6.335 -9.073,5.976 -3.528,-0.36 -6.335,-1.729 -8.784,-5.976 -3.815,-7.992 4.896,-20.953 17.136,-23.041 9.072,-1.367 16.776,2.449 22.752,7.704 7.345,6.985 10.8,15.337 5.544,24.481 -4.896,6.984 -14.328,11.519 -22.68,14.328 -11.519,3.096 -23.112,4.176 -32.183,14.688 z" /></g><g
           transform="translate(377.9277,213.0479)"
           id="g44"><path
             id="path46"
             style="fill:#171717;fill-opacity:1;fill-rule:evenodd;stroke:none"
             d="M 0,0 C 3.096,9.433 -2.448,22.68 -12.24,22.68 -22.032,22.68 -25.56,8.352 -24.84,0 h 9.144 z M -15.192,-11.88 H -25.56 c 0,-14.687 1.44,-24.479 15.768,-28.008 3.096,-1.008 6.264,0 8.352,1.08 6.696,2.088 12.6,12.241 19.512,11.52 1.729,-0.359 3.528,-2.088 3.168,-3.168 -10.08,-26.568 -39.096,-32.472 -59.4,-8.352 -3.096,3.455 -7.272,11.88 -9.072,20.592 -2.448,10.872 -0.648,22.392 2.088,28.368 4.896,10.08 11.592,17.424 20.304,20.952 4.176,1.728 8.712,3.096 13.968,3.096 6.624,0 13.968,-3.456 18.216,-5.183 C 19.152,22.032 27.504,1.729 21.24,-11.88 Z" /></g><g
           transform="translate(314.6401,392.7598)"
           id="g48"><path
             id="path50"
             style="fill:#171717;fill-opacity:1;fill-rule:evenodd;stroke:none"
             d="m 0,0 c -2.66,1.37 -5.33,2.45 -7.7,2.66 -1.37,-9.07 -4.18,-11.16 -9.8,-17.78 0,9.79 1.08,13.61 0,19.51 -6.98,-2.73 -9.79,-6.98 -12.6,-13.97 -3.09,-5.54 -3.45,-3.81 -4.89,-6.26 -0.65,5.26 -2.81,6.98 -3.1,12.6 -5.25,-2.09 -3.89,-12.6 -17.13,-18.94 1.36,2.451 0.64,6.34 0.64,15.77 l -24.76,-11.88 c 3.09,7.71 7.99,13.25 8.71,16.42 l -22.75,-3.82 c 4.6,3.461 7.34,8.35 9.14,10.8 4.18,4.54 5.26,5.62 5.54,7.71 h -21.67 l 6.74,4.25 19.83,12.52 c -8.08,-1.33 -12.26,-1.71 -19.83,-1.73 h -0.76 c 0.26,0.12 0.51,0.24 0.76,0.37 5.51,2.71 9.68,5.65 16.01,7.99 4.18,1.801 6.27,1.801 11.52,3.88 -5.25,2.45 -8.35,5.55 -10.15,11.88 5.98,-2.08 18.22,-2.08 25.92,1.73 -1.08,6.63 -4.53,10.15 -2.45,16.061 8.72,-0.651 9.44,-4.901 17.79,-6.631 0,4.54 1.08,8.07 1.8,12.24 4.53,-1.72 6.62,-3.81 11.52,-3.81 1.73,5.25 1.73,7.99 1.73,12.53 1.44,-2.74 9.07,-5.91 12.24,-6.27 0,6.27 2.44,10.51 4.89,20.31 3.82,-2.45 9.07,-9.8 10.15,-16.42 4.76,0.43 11.45,6.551 11.45,6.551 l 2.79,-5.261 v -0.15 c -0.04,-0.1 -0.08,-0.19 -0.12,-0.28 -0.13,-0.33 -0.18,-0.62 -0.15,-0.86 l 1.02,0.75 23.32,17.11 c 0.65,0 -0.58,-0.08 0.14,-0.8 C 43.34,96.05 40.9,85.18 40.9,81 41.62,81 57.31,91.44 58.03,92.521 56.95,84.46 53.5,80.28 50.33,72.22 l 20.3,6.33 C 65.74,72.22 58.39,65.59 49.61,63.86 51.41,59.98 57.67,61.42 65.02,61.42 55.22,57.53 52.78,57.24 45.79,54.43 48.24,52.34 52.78,52.34 64.3,43.56 52.06,41.47 49.97,43.92 40.9,45 c 0.72,-6.34 3.52,-10.51 9.43,-15.41 -8.35,-1.37 -11.16,1.73 -18.87,2.81 1.01,-5.62 3.17,-6.62 0,-11.52 -5.25,2.09 -8.78,1.01 -14.68,0 0.72,-3.53 4.17,-5.62 3.16,-11.23 -4.89,2.09 -6.98,4.89 -11.88,5.61 C 5.62,11.74 5.9,3.38 4.9,-2.59 3.38,-1.729 1.73,-0.79 0,0 m 69.91,-68.979 c -6.62,-1.721 -27.93,0.719 -40.17,-8.061 -9.8,-6.26 -14.04,-16.7 -13.68,-27.859 0,-5.981 2.44,-12.601 3.88,-18.58 4.9,22.75 12.89,35.349 37.37,37.369 -2.09,-7.63 -8.35,-8.35 -16.41,-18.789 -10.88,-12.601 -15.77,-19.231 -24.84,-32.911 -8,-11.879 -10.44,-17.49 -15.05,-27.93 0,0 -1.01,-2.449 -2.45,-5.619 -1.01,-2.091 -2.09,-5.54 -4.54,-5.901 0,46.151 -16.41,60.481 3.89,105.12 6.99,17.13 7.99,15.76 10.8,25.84 0.66,2.43 1.21,5.09 1.66,7.89 3.11,19.3 1.51,44.96 1.51,44.96 3.53,-0.72 9.07,-7.34 11.88,-11.59 -1.73,6.98 -0.36,10.87 3.17,21.38 7.7,-1.08 4.53,-8.78 8.35,-18.93 l 3.17,25.92 c 10.51,1.73 16.41,2.45 25.85,0.65 -6.63,5.25 -12.24,6.98 -13.97,14.041 10.51,0 15.41,-1.081 27.93,3.089 C 65.74,48.82 61.2,51.62 60.12,53.71 72.88,59.24 78.8,64.07 85.57,73.57 82.7,69.94 73.58,67.68 69.91,67.68 70.99,75.021 81.72,81.36 88.34,84.1 69.91,84.46 71.28,82.01 60.12,80.28 c 2.45,13.97 6.26,20.95 12.96,25.56 -8.06,-3.17 -14.04,-11.59 -23.47,-12.24 1.08,5.18 4.53,13.97 8.42,16.421 0,0.359 -0.36,1 -0.72,1.359 0,0 -21.06,-14.04 -30.97,-23.109 0.01,-0.011 0.02,-0.021 0.02,-0.031 h -0.05 c 0.01,0.01 0.02,0.02 0.03,0.031 -0.77,1.439 -2.12,4.039 -1.86,4.25 0,6.979 -1.08,10.869 3.1,16.779 -5.19,-2.45 -14.98,-14.69 -16.42,-18.87 0,0 -7.34,11.52 -13.25,15.41 -2.09,1.73 -4.25,1.37 -6.98,1.73 3.45,-5.98 1.01,-15.049 -1.44,-22.03 -6.27,0.72 -13.25,6.26 -16.78,10.8 1.44,-6.63 4.18,-12.53 1.73,-19.88 -5.18,1.37 -8.71,6.27 -7.63,12.89 -5.62,-4.89 -3.89,-10.44 -6.34,-18.5 -9.07,1.73 -15.05,5.61 -18.14,13.25 -2.45,-11.16 -1.08,-17.79 1.73,-29.02 -11.52,-0.29 -22.4,0 -26.57,9.5 -2.09,-9.5 3.17,-14.04 6.26,-23.47 -6.98,-1.73 -7.63,-2.45 -11.88,-3.81 -1.89,-0.64 -3.72,-1.35 -5.5,-2.11 -8.09,-3.43 -15.16,-7.71 -21.71,-9.41 4.89,-2.09 15.69,-2.09 20.23,-1.8 L -117.79,1.3 c 13.81,4.18 4.76,6.59 24.16,6.94 1.63,0.031 3.45,0.04 5.5,0.04 l -5.5,-6.06 -19.27,-21.23 c 7.46,4.39 13.14,6.99 19.27,8.49 3.63,0.89 7.42,1.39 11.84,1.66 -0.36,-4.53 -11.23,-18.21 -8.79,-27.28 4.9,9.79 21.03,17.85 30.82,19.58 -1.44,-12.6 -4.25,-17.14 -6.34,-18.14 15.77,3.45 17.14,15.33 25.92,17.13 1.37,-5.61 3.46,-8.42 4.54,-14.69 5.18,16.781 10.8,24.48 13.25,25.85 2.09,-8.71 0,-13.61 -0.72,-22.03 10.51,9.43 12.24,9.07 17.85,23.4 2.16,-0.5 3.75,-0.86 5.33,-1.439 1.44,-0.5 2.95,-1.151 4.83,-2.381 0,-12.25 -0.53,-21.46 -2.67,-29.55 -0.35,-1.36 -0.76,-2.69 -1.22,-4 -2.74,-8.78 -7.35,-16.41 -10.08,-23.4 -5.26,-11.95 -8.43,-23.04 -10.87,-37.37 -3.17,-15.4 5.25,-64.65 1.44,-63.28 -0.72,0 -1.08,-1.37 -2.45,1.44 -1.8,4.89 -2.16,6.98 -3.89,12.52 -2.45,9.15 -4.9,13.32 -10.8,24.48 -30.1,50.98 -64.01,59.4 -69.26,60.05 3.52,-5.18 10.15,-9.07 14.32,-13.61 18.94,-19.51 22.76,-26.85 25.92,-31.75 18.87,-28.29 25.49,-44.35 32.84,-74.09 2.08,-10.51 4.89,-22.03 5.97,-32.54 0.29,-3.46 1.01,-7.7 1.01,-10.439 h 28.3 c 0,21.67 2.8,42.979 10.15,62.929 2.81,8.35 7.7,16.77 11.52,24.41 2.16,3.52 5.25,9.14 8.42,13.32 1.73,2.08 4.18,3.16 4.9,4.89 5.97,-2.45 11.16,-1.08 17.13,0.72 6.27,1.731 8.36,2.811 10.8,5.26 2.16,1.73 4.9,3.45 8.07,9.431 6.26,13.25 2.81,22.029 7.63,34.129 4.18,10.51 9.79,13.68 12.6,22.75 -9.14,-9.79 -22.32,-15.7 -24.77,-16.419" /></g></g></g></g></svg>