<?xml version="1.0" encoding="UTF-8"?>
<svg version="1.1" xmlns="http://www.w3.org/2000/svg" width="400" height="400">
<path d="M0 0 C22.5993111 19.57628637 36.1061899 47.86653886 38.8828125 77.48046875 C40.66449458 108.76309138 31.96743628 138.21008275 11.8828125 162.48046875 C11.19832031 163.32867187 10.51382813 164.176875 9.80859375 165.05078125 C-8.16106892 186.24236126 -35.91627015 199.73215106 -63.21875 203.16796875 C-96.36746032 205.82518 -127.82143958 197.31292402 -153.42578125 175.734375 C-174.18848335 157.63371416 -187.49168389 133.60122733 -192.1171875 106.48046875 C-192.30023438 105.43375 -192.48328125 104.38703125 -192.671875 103.30859375 C-196.39023294 71.3437623 -188.45198079 40.4236406 -168.6171875 15.04296875 C-149.73111001 -8.33191713 -122.65063499 -24.66650544 -92.50683594 -28.30859375 C-57.75279794 -31.37637969 -26.90877003 -22.00308114 0 0 Z " fill="#FDFDFD" transform="translate(277.1171875,112.51953125)"/>
<path d="M0 0 C22.5993111 19.57628637 36.1061899 47.86653886 38.8828125 77.48046875 C40.66449458 108.76309138 31.96743628 138.21008275 11.8828125 162.48046875 C11.19832031 163.32867187 10.51382813 164.176875 9.80859375 165.05078125 C-8.16106892 186.24236126 -35.91627015 199.73215106 -63.21875 203.16796875 C-96.36746032 205.82518 -127.82143958 197.31292402 -153.42578125 175.734375 C-174.18848335 157.63371416 -187.49168389 133.60122733 -192.1171875 106.48046875 C-192.30023438 105.43375 -192.48328125 104.38703125 -192.671875 103.30859375 C-196.39023294 71.3437623 -188.45198079 40.4236406 -168.6171875 15.04296875 C-149.73111001 -8.33191713 -122.65063499 -24.66650544 -92.50683594 -28.30859375 C-57.75279794 -31.37637969 -26.90877003 -22.00308114 0 0 Z M-108.1171875 -14.51953125 C-108.4471875 -13.85953125 -108.7771875 -13.19953125 -109.1171875 -12.51953125 C-109.8390625 -12.39578125 -110.5609375 -12.27203125 -111.3046875 -12.14453125 C-114.89421466 -11.34685855 -117.19451828 -9.71153316 -120.1171875 -7.51953125 C-120.4471875 -6.85953125 -120.7771875 -6.19953125 -121.1171875 -5.51953125 C-122.1484375 -5.27203125 -123.1796875 -5.02453125 -124.2421875 -4.76953125 C-128.23981757 -3.75374 -130.51199595 -1.66165539 -133.48828125 1.1015625 C-135.1171875 2.48046875 -135.1171875 2.48046875 -137.8046875 3.54296875 C-140.35188862 4.35619125 -140.35188862 4.35619125 -142.1171875 6.98046875 C-144.37645971 9.80455901 -145.7910998 10.2636074 -149.1171875 11.48046875 C-152.83954266 13.94912493 -152.83954266 13.94912493 -154.9296875 17.73046875 C-155.0225 18.59671875 -155.0225 18.59671875 -155.1171875 19.48046875 C-155.7771875 19.48046875 -156.4371875 19.48046875 -157.1171875 19.48046875 C-160.23716552 22.78397489 -161.1171875 23.80456708 -161.1171875 28.48046875 C-161.71789062 28.73957031 -162.31859375 28.99867188 -162.9375 29.265625 C-169.29290298 32.80779405 -172.67493781 41.06966686 -175.91796875 47.2578125 C-177.1171875 49.48046875 -177.1171875 49.48046875 -178.1171875 50.48046875 C-178.07938677 52.12916192 -177.96248448 53.77640907 -177.8046875 55.41796875 C-177.72605469 56.31386719 -177.64742187 57.20976562 -177.56640625 58.1328125 C-177.3102861 60.66177978 -177.3102861 60.66177978 -175.1171875 62.48046875 C-176.6021875 62.97546875 -176.6021875 62.97546875 -178.1171875 63.48046875 C-184.12772689 74.7802828 -183.34681232 87.05521455 -183.1171875 99.48046875 C-182.4571875 99.48046875 -181.7971875 99.48046875 -181.1171875 99.48046875 C-181.3028125 100.22296875 -181.4884375 100.96546875 -181.6796875 101.73046875 C-182.13133493 104.56939545 -181.82535491 105.76582701 -181.1171875 108.48046875 C-180.9027941 110.22737794 -180.71611097 111.97787105 -180.5546875 113.73046875 C-180.47089844 114.6225 -180.38710937 115.51453125 -180.30078125 116.43359375 C-180.24019531 117.1090625 -180.17960937 117.78453125 -180.1171875 118.48046875 C-179.1271875 118.81046875 -178.1371875 119.14046875 -177.1171875 119.48046875 C-176.30859375 121.484375 -176.30859375 121.484375 -175.6796875 124.04296875 C-173.75409834 131.06334588 -171.06125502 137.04199448 -166.1171875 142.48046875 C-165.4571875 142.81046875 -164.7971875 143.14046875 -164.1171875 143.48046875 C-163.55128208 145.80696882 -163.16405989 148.10548962 -162.8671875 150.48046875 C-161.95469934 152.91377051 -160.45378073 154.19502572 -158.61914062 155.98242188 C-156.9886032 157.60871863 -155.4381533 159.29069186 -153.890625 160.99609375 C-153.33375 161.60710937 -152.776875 162.218125 -152.203125 162.84765625 C-151.05118531 164.11531591 -149.90280748 165.3862204 -148.7578125 166.66015625 C-148.20351562 167.26601563 -147.64921875 167.871875 -147.078125 168.49609375 C-146.58103027 169.04555664 -146.08393555 169.59501953 -145.57177734 170.16113281 C-144.03730465 171.73105375 -144.03730465 171.73105375 -141.1171875 172.48046875 C-140.7871875 173.14046875 -140.4571875 173.80046875 -140.1171875 174.48046875 C-138.24848925 175.15999539 -136.3781413 175.83530739 -134.5 176.48828125 C-131.80948016 177.60859607 -129.50905397 179.03677581 -127.0546875 180.60546875 C-122.97797345 183.12234252 -119.97162126 184.21568145 -115.1171875 184.48046875 C-109.78738843 184.9496412 -105.20227237 185.74937603 -100.1171875 187.48046875 C-74.2543699 191.6752548 -50.56306313 188.25547237 -27.83203125 175.66015625 C-24.50475577 172.98876098 -23.94694821 171.20316684 -22.9296875 167.10546875 C-22.01394376 163.53448631 -21.1456331 160.53523812 -19.44140625 157.25390625 C-17.72811865 154.49079508 -17.72811865 154.49079508 -19.1171875 151.48046875 C-19.6946875 152.28484375 -20.2721875 153.08921875 -20.8671875 153.91796875 C-23.09845643 156.45913614 -23.86175521 157.13167243 -27.1171875 157.48046875 C-27.4471875 156.82046875 -27.7771875 156.16046875 -28.1171875 155.48046875 C-28.6740625 155.99609375 -29.2309375 156.51171875 -29.8046875 157.04296875 C-32.1171875 158.48046875 -32.1171875 158.48046875 -34.8046875 158.29296875 C-37.1171875 157.48046875 -37.1171875 157.48046875 -38.1171875 155.48046875 C-39.7426183 155.62141939 -41.36752801 155.76838962 -42.9921875 155.91796875 C-44.34957031 156.03978516 -44.34957031 156.03978516 -45.734375 156.1640625 C-48.12829611 156.3503616 -48.12829611 156.3503616 -50.1171875 157.48046875 C-52.11678762 157.52046075 -54.11765992 157.52393674 -56.1171875 157.48046875 C-56.4471875 156.49046875 -56.7771875 155.50046875 -57.1171875 154.48046875 C-57.6534375 154.78984375 -58.1896875 155.09921875 -58.7421875 155.41796875 C-61.5156832 156.65874314 -64.11761587 157.07143625 -67.1171875 157.48046875 C-66.6221875 153.52046875 -66.6221875 153.52046875 -66.1171875 149.48046875 C-66.8596875 150.24359375 -67.6021875 151.00671875 -68.3671875 151.79296875 C-70.5435198 153.91983895 -72.63886546 155.73646435 -75.1171875 157.48046875 C-75.4471875 156.49046875 -75.7771875 155.50046875 -76.1171875 154.48046875 C-76.8390625 154.99609375 -77.5609375 155.51171875 -78.3046875 156.04296875 C-81.1171875 157.48046875 -81.1171875 157.48046875 -83.8046875 157.29296875 C-86.1171875 156.48046875 -86.1171875 156.48046875 -88.1171875 154.48046875 C-88.5296875 154.95484375 -88.9421875 155.42921875 -89.3671875 155.91796875 C-91.1171875 157.48046875 -91.1171875 157.48046875 -95.1171875 158.48046875 C-94.4571875 155.18046875 -93.7971875 151.88046875 -93.1171875 148.48046875 C-93.1171875 151.14713542 -93.1171875 153.81380208 -93.1171875 156.48046875 C-88.624815 154.98301125 -86.96677975 151.48069021 -84.25 147.73046875 C-81.84338382 145.19162091 -80.54420221 144.76704838 -77.1171875 144.48046875 C-78.25218144 147.77195118 -79.11002126 148.47645565 -82.2421875 150.23046875 C-83.1909375 150.64296875 -84.1396875 151.05546875 -85.1171875 151.48046875 C-84.6221875 153.95546875 -84.6221875 153.95546875 -84.1171875 156.48046875 C-80.6583861 156.16603226 -78.6062598 155.87444366 -75.8671875 153.66796875 C-74.26093513 151.66015329 -73.12680355 149.83623952 -72.1171875 147.48046875 C-72.6121875 150.45046875 -72.6121875 150.45046875 -73.1171875 153.48046875 C-72.3953125 152.73796875 -71.6734375 151.99546875 -70.9296875 151.23046875 C-68.43126177 148.7875636 -65.88075548 146.61236405 -63.1171875 144.48046875 C-63.33375 145.09535156 -63.5503125 145.71023438 -63.7734375 146.34375 C-64.051875 147.15199219 -64.3303125 147.96023438 -64.6171875 148.79296875 C-64.895625 149.59347656 -65.1740625 150.39398438 -65.4609375 151.21875 C-66.25651857 153.56816297 -66.25651857 153.56816297 -66.1171875 156.48046875 C-59.97817274 155.93879098 -56.47114594 151.897402 -52.4296875 147.66796875 C-50.1171875 145.48046875 -50.1171875 145.48046875 -47.1171875 145.48046875 C-47.8803125 145.72796875 -48.6434375 145.97546875 -49.4296875 146.23046875 C-52.43885261 147.63008043 -53.5440372 148.5825603 -55.1171875 151.48046875 C-55.36843576 154.14808639 -55.36843576 154.14808639 -55.1171875 156.48046875 C-51.78948685 156.95585456 -50.44238369 156.71394294 -47.6796875 154.73046875 C-43.74060716 150.427588 -41.5470218 144.71588492 -39.1171875 139.48046875 C-40.59024296 144.3697592 -41.87252027 148.46326171 -45.1171875 152.48046875 C-45.1171875 153.47046875 -45.1171875 154.46046875 -45.1171875 155.48046875 C-41.18643106 154.90594129 -41.18643106 154.90594129 -38.1171875 152.48046875 C-37.21264617 149.96415813 -37.21264617 149.96415813 -36.4921875 147.10546875 C-36.23179687 146.14898437 -35.97140625 145.1925 -35.703125 144.20703125 C-34.70041492 139.54108701 -35.31001127 136.5225123 -37.1171875 132.23046875 C-38.1071875 129.87921875 -38.1071875 129.87921875 -39.1171875 127.48046875 C-44.3971875 127.48046875 -49.6771875 127.48046875 -55.1171875 127.48046875 C-55.7153125 129.10984375 -56.3134375 130.73921875 -56.9296875 132.41796875 C-57.94921875 135.1953125 -57.94921875 135.1953125 -59.1171875 137.48046875 C-60.1071875 137.81046875 -61.0971875 138.14046875 -62.1171875 138.48046875 C-60.35874638 133.93352301 -58.58029303 129.39514177 -56.78271484 124.86352539 C-56.17393507 123.3204716 -55.57070814 121.77521512 -54.97314453 120.2277832 C-54.11376127 118.00521571 -53.23479119 115.79130618 -52.3515625 113.578125 C-51.95599152 112.53592552 -51.95599152 112.53592552 -51.5524292 111.47267151 C-49.61261351 106.69275495 -49.61261351 106.69275495 -46.91503906 105.53686523 C-46.32174805 105.51825439 -45.72845703 105.49964355 -45.1171875 105.48046875 C-44.71886719 106.72699219 -44.32054687 107.97351563 -43.91015625 109.2578125 C-42.00903006 114.96119108 -39.73294754 120.4923692 -37.4296875 126.04296875 C-37.01396484 127.05166016 -36.59824219 128.06035156 -36.16992188 129.09960938 C-35.15502771 131.56101935 -34.13740497 134.02126158 -33.1171875 136.48046875 C-32.19679687 136.00480469 -32.19679687 136.00480469 -31.2578125 135.51953125 C-29.20724729 134.5241839 -27.33796733 133.95635014 -25.1171875 133.48046875 C-25.4189234 139.51518684 -28.30618215 143.0707269 -32.1171875 147.48046875 C-32.9009375 148.18171875 -33.6846875 148.88296875 -34.4921875 149.60546875 C-36.44127327 151.47869779 -36.44127327 151.47869779 -36.3671875 154.73046875 C-36.2846875 155.63796875 -36.2021875 156.54546875 -36.1171875 157.48046875 C-33.24984229 157.44927465 -33.24984229 157.44927465 -30.1171875 156.48046875 C-27.57139872 153.29823277 -25.94162519 150.12934413 -24.1171875 146.48046875 C-24.4471875 149.45046875 -24.7771875 152.42046875 -25.1171875 155.48046875 C-24.4571875 155.48046875 -23.7971875 155.48046875 -23.1171875 155.48046875 C-21.52892528 153.76549103 -21.52892528 153.76549103 -19.9921875 151.60546875 C-19.45335937 150.88617188 -18.91453125 150.166875 -18.359375 149.42578125 C-16.93779118 147.58420869 -16.93779118 147.58420869 -17.1171875 145.48046875 C-16.4571875 145.81046875 -15.7971875 146.14046875 -15.1171875 146.48046875 C-17.10720132 152.76472291 -19.45786168 158.75367155 -22.12890625 164.78125 C-23.34639775 167.62741805 -23.34639775 167.62741805 -23.1171875 171.48046875 C-18.42245467 170.03126287 -15.39143425 167.25990226 -11.9296875 163.91796875 C-6.32501883 158.58438441 -6.32501883 158.58438441 -4.1171875 157.48046875 C-4.1171875 156.82046875 -4.1171875 156.16046875 -4.1171875 155.48046875 C-3.1271875 156.14046875 -2.1371875 156.80046875 -1.1171875 157.48046875 C1.50812774 157.64760444 1.50812774 157.64760444 3.8828125 157.48046875 C4.2128125 156.49046875 4.5428125 155.50046875 4.8828125 154.48046875 C4.2228125 154.48046875 3.5628125 154.48046875 2.8828125 154.48046875 C3.24420603 147.73445622 5.11997117 143.98253034 8.8828125 138.48046875 C10.25281251 136.16639823 11.56429487 133.82450008 12.8828125 131.48046875 C13.2128125 131.81046875 13.5428125 132.14046875 13.8828125 132.48046875 C13.6953125 135.91796875 13.6953125 135.91796875 12.8828125 139.48046875 C10.8203125 140.91796875 10.8203125 140.91796875 8.8828125 141.48046875 C8.8828125 142.14046875 8.8828125 142.80046875 8.8828125 143.48046875 C9.5428125 143.48046875 10.2028125 143.48046875 10.8828125 143.48046875 C9.8928125 147.44046875 9.8928125 147.44046875 8.8828125 151.48046875 C9.8728125 151.15046875 10.8628125 150.82046875 11.8828125 150.48046875 C12.91383197 148.16067494 13.91217767 145.8261696 14.8828125 143.48046875 C15.4396875 142.98546875 15.9965625 142.49046875 16.5703125 141.98046875 C18.7540417 139.48477824 17.99285585 136.67172601 17.8828125 133.48046875 C18.16801655 131.80489496 18.48236946 130.1322963 18.8828125 128.48046875 C20.2028125 128.48046875 21.5228125 128.48046875 22.8828125 128.48046875 C26.28557424 124.69962237 26.36599791 120.54511948 26.671875 115.6875 C26.8828125 113.48046875 26.8828125 113.48046875 27.8828125 111.48046875 C28.11311206 109.10923629 28.29401192 106.73304932 28.4453125 104.35546875 C28.52910156 103.07414062 28.61289062 101.7928125 28.69921875 100.47265625 C28.75980469 99.48523438 28.82039062 98.4978125 28.8828125 97.48046875 C26.9028125 98.80046875 24.9228125 100.12046875 22.8828125 101.48046875 C23.2128125 104.45046875 23.5428125 107.42046875 23.8828125 110.48046875 C23.2228125 110.48046875 22.5628125 110.48046875 21.8828125 110.48046875 C21.8828125 114.11046875 21.8828125 117.74046875 21.8828125 121.48046875 C20.5628125 121.81046875 19.2428125 122.14046875 17.8828125 122.48046875 C18.01558594 121.69542969 18.14835938 120.91039062 18.28515625 120.1015625 C19.45177333 113.21039652 19.45177333 113.21039652 20.4453125 106.29296875 C20.8828125 103.48046875 20.8828125 103.48046875 21.8828125 102.48046875 C22.26132158 99.32873312 22.35229868 96.15020633 22.5078125 92.98046875 C22.559375 92.08714844 22.6109375 91.19382812 22.6640625 90.2734375 C22.72980469 88.99919922 22.72980469 88.99919922 22.796875 87.69921875 C22.8376416 86.91482422 22.8784082 86.13042969 22.92041016 85.32226562 C23.09510504 83.46191865 23.09510504 83.46191865 21.8828125 82.48046875 C21.44946981 79.42849811 21.3825035 76.52490227 21.8828125 73.48046875 C24.3828125 70.91796875 24.3828125 70.91796875 26.8828125 69.48046875 C25.8928125 66.51046875 24.9028125 63.54046875 23.8828125 60.48046875 C22.8928125 60.48046875 21.9028125 60.48046875 20.8828125 60.48046875 C20.86863281 59.62324219 20.85445312 58.76601562 20.83984375 57.8828125 C20.52000875 49.3693131 20.52000875 49.3693131 16.29296875 42.3125 C13.37175399 38.51734842 11.74619276 33.86535933 9.8828125 29.48046875 C8.8928125 29.81046875 7.9028125 30.14046875 6.8828125 30.48046875 C6.6971875 29.57296875 6.5115625 28.66546875 6.3203125 27.73046875 C4.80632402 24.30753827 4.4796532 23.96505331 1.3828125 22.35546875 C-1.97671989 20.55571926 -2.98943407 19.98903496 -4.1171875 16.48046875 C-5.4371875 16.48046875 -6.7571875 16.48046875 -8.1171875 16.48046875 C-8.1171875 15.16046875 -8.1171875 13.84046875 -8.1171875 12.48046875 C-11.67093508 12.87532959 -13.1308428 14.42573361 -15.51171875 16.953125 C-19.00626219 20.27761767 -23.08528014 22.85879709 -27.1171875 25.48046875 C-28.10912109 26.14175781 -28.10912109 26.14175781 -29.12109375 26.81640625 C-35.78493819 30.73958816 -43.20363743 30.17931698 -50.6171875 28.85546875 C-53.51254534 28.42116507 -54.70172871 28.90113031 -57.1171875 30.48046875 C-56.3540625 30.72796875 -55.5909375 30.97546875 -54.8046875 31.23046875 C-53.5878125 31.64296875 -52.3709375 32.05546875 -51.1171875 32.48046875 C-50.30507812 32.73699219 -49.49296875 32.99351562 -48.65625 33.2578125 C-41.53670961 35.6343926 -35.02216525 38.78481301 -29.1171875 43.48046875 C-28.7871875 44.47046875 -28.4571875 45.46046875 -28.1171875 46.48046875 C-40.87486558 50.28062818 -54.1214995 53.75462596 -66.8046875 47.85546875 C-71.97006989 44.89379569 -75.42817774 41.85848827 -78.1171875 36.48046875 C-91.08360189 40.41146316 -101.23446606 48.5499032 -111.1171875 57.48046875 C-110.4571875 57.81046875 -109.7971875 58.14046875 -109.1171875 58.48046875 C-107.6365085 57.95644244 -106.18231568 57.35740152 -104.7421875 56.73046875 C-96.22459452 53.44657748 -87.12023487 52.62883688 -78.1171875 51.48046875 C-80.55469338 59.9727528 -83.59800065 64.19690189 -91.27734375 68.765625 C-96.43435228 71.45498085 -100.6874438 72.61063399 -106.5390625 72.578125 C-107.56386719 72.57490234 -108.58867187 72.57167969 -109.64453125 72.56835938 C-110.70800781 72.55998047 -111.77148438 72.55160156 -112.8671875 72.54296875 C-113.94613281 72.53845703 -115.02507812 72.53394531 -116.13671875 72.52929688 C-118.79693133 72.51752602 -121.45703115 72.50108274 -124.1171875 72.48046875 C-132.64439682 86.72134116 -138.60360309 101.53132719 -144.24707031 117.09667969 C-145.88169307 121.57492229 -147.56871664 126.03350836 -149.25195312 130.49365234 C-150.25031689 133.14460014 -151.22126806 135.79271042 -152.1171875 138.48046875 C-154.1796875 139.16796875 -154.1796875 139.16796875 -156.1171875 139.48046875 C-156.32432373 138.61566895 -156.32432373 138.61566895 -156.53564453 137.73339844 C-157.08692764 135.59769714 -157.72556353 133.52598749 -158.421875 131.43359375 C-158.67582031 130.67046875 -158.92976563 129.90734375 -159.19140625 129.12109375 C-159.58779297 127.93773437 -159.58779297 127.93773437 -159.9921875 126.73046875 C-160.24871094 125.95703125 -160.50523437 125.18359375 -160.76953125 124.38671875 C-162.44327976 119.37388401 -164.22521278 114.41484041 -166.1171875 109.48046875 C-166.57480469 108.28421875 -167.03242188 107.08796875 -167.50390625 105.85546875 C-167.93316406 104.74171875 -168.36242187 103.62796875 -168.8046875 102.48046875 C-169.24167969 101.34609375 -169.67867187 100.21171875 -170.12890625 99.04296875 C-170.61810547 97.77453125 -170.61810547 97.77453125 -171.1171875 96.48046875 C-169.7971875 96.48046875 -168.4771875 96.48046875 -167.1171875 96.48046875 C-166.99988281 96.98320312 -166.88257813 97.4859375 -166.76171875 98.00390625 C-165.87725107 101.40240631 -164.84601913 104.75254526 -163.8046875 108.10546875 C-163.58321045 108.81896484 -163.3617334 109.53246094 -163.13354492 110.26757812 C-161.62791033 115.04325442 -159.89903785 119.66501651 -157.96484375 124.28515625 C-156.67686399 127.62084576 -155.89215706 130.99310574 -155.1171875 134.48046875 C-154.4571875 134.48046875 -153.7971875 134.48046875 -153.1171875 134.48046875 C-152.86324219 133.70703125 -152.60929687 132.93359375 -152.34765625 132.13671875 C-150.612485 126.88571362 -148.85862917 121.65622665 -146.87890625 116.4921875 C-146.02965889 114.24930344 -145.23209722 111.99053107 -144.4296875 109.73046875 C-143.09826451 105.98256545 -141.63215433 102.32554661 -140.046875 98.6796875 C-139.67908936 97.81504883 -139.31130371 96.95041016 -138.93237305 96.05957031 C-138.19669692 94.33625018 -137.44367154 92.62020357 -136.67114258 90.91308594 C-133.65569427 83.77320506 -133.66862565 77.82615431 -136.1171875 70.48046875 C-137.31185202 57.61104819 -135.55048279 45.82460677 -132.1171875 33.48046875 C-131.68640645 31.62953039 -131.26656372 29.7759364 -130.8671875 27.91796875 C-130.6196875 26.78359375 -130.3721875 25.64921875 -130.1171875 24.48046875 C-128.7971875 24.48046875 -127.4771875 24.48046875 -126.1171875 24.48046875 C-126.0346875 25.53234375 -125.9521875 26.58421875 -125.8671875 27.66796875 C-125.412675 31.48453691 -124.36500019 34.85005718 -123.1171875 38.48046875 C-120.64524307 46.10229741 -120.32116116 53.53569465 -120.1171875 61.48046875 C-119.05231895 60.58745219 -117.99043709 59.69087405 -116.9296875 58.79296875 C-116.33800781 58.29410156 -115.74632812 57.79523438 -115.13671875 57.28125 C-114.47027344 56.68699219 -113.80382812 56.09273438 -113.1171875 55.48046875 C-112.24578125 54.72121094 -111.374375 53.96195312 -110.4765625 53.1796875 C-107.72051462 50.02665922 -107.22648524 48.07702557 -106.5546875 43.98046875 C-103.58890498 28.21239166 -98.69185777 13.26450598 -86.1171875 2.48046875 C-83.81975962 1.30286208 -81.53846463 0.39837697 -79.1171875 -0.51953125 C-79.98377986 10.28053777 -81.62495971 19.4930315 -86.1171875 29.48046875 C-86.72249874 30.91748716 -87.32689996 32.3548899 -87.9296875 33.79296875 C-88.3215625 34.67984375 -88.7134375 35.56671875 -89.1171875 36.48046875 C-82.4847087 34.72126907 -82.4847087 34.72126907 -77.73046875 30.265625 C-77.30121094 29.36714844 -76.87195313 28.46867187 -76.4296875 27.54296875 C-69.61469044 14.49224938 -58.54377304 3.34218613 -46.1171875 -4.51953125 C-44.79490171 -4.89429674 -43.46235233 -5.23771486 -42.1171875 -5.51953125 C-44.11452297 4.86661318 -48.99796997 13.70321167 -55.796875 21.73828125 C-57.31851927 23.3818039 -57.31851927 23.3818039 -57.1171875 25.48046875 C-52.94639552 24.91356499 -50.11983597 22.44563874 -46.8671875 19.98046875 C-38.76761656 14.00154044 -30.12070619 8.98222809 -21.1171875 4.48046875 C-21.1171875 3.82046875 -21.1171875 3.16046875 -21.1171875 2.48046875 C-23.29508943 0.85450087 -25.45501452 -0.62551164 -27.7421875 -2.08203125 C-28.66837891 -2.69981445 -28.66837891 -2.69981445 -29.61328125 -3.33007812 C-33.43625023 -5.7888508 -36.49039096 -7.11379678 -41.1171875 -7.51953125 C-41.1171875 -8.50953125 -41.1171875 -9.49953125 -41.1171875 -10.51953125 C-42.36610364 -11.00151588 -43.61637558 -11.47998802 -44.8671875 -11.95703125 C-45.56328125 -12.22386719 -46.259375 -12.49070312 -46.9765625 -12.765625 C-49.9953806 -13.84469287 -49.9953806 -13.84469287 -53.1171875 -14.51953125 C-53.7771875 -13.85953125 -54.4371875 -13.19953125 -55.1171875 -12.51953125 C-57.10540063 -12.12188862 -59.10663089 -11.78177776 -61.1171875 -11.51953125 C-61.1171875 -12.17953125 -61.1171875 -12.83953125 -61.1171875 -13.51953125 C-71.18112997 -13.63716175 -81.08276717 -13.39754303 -91.1171875 -12.51953125 C-91.1171875 -11.85953125 -91.1171875 -11.19953125 -91.1171875 -10.51953125 C-92.7015192 -10.60721373 -94.28472317 -10.71540454 -95.8671875 -10.83203125 C-97.18976563 -10.91904297 -97.18976563 -10.91904297 -98.5390625 -11.0078125 C-101.46093907 -11.58776073 -102.80537582 -12.70796453 -105.1171875 -14.51953125 C-106.1071875 -14.51953125 -107.0971875 -14.51953125 -108.1171875 -14.51953125 Z " fill="#C1C7B8" transform="translate(277.1171875,112.51953125)"/>
<path d="M0 0 C1.32 0 2.64 0 4 0 C5.71594407 3.92970967 7.42473046 7.86242953 9.12695312 11.7980957 C9.70702526 13.13651159 10.2890445 14.47408536 10.87304688 15.81079102 C11.71217009 17.73235463 12.5442432 19.65683844 13.375 21.58203125 C13.87773437 22.73936768 14.38046875 23.8967041 14.8984375 25.08911133 C16 28 16 28 16 31 C17.11375 29.9790625 17.11375 29.9790625 18.25 28.9375 C21 27 21 27 23.3125 27.25 C23.869375 27.4975 24.42625 27.745 25 28 C24.65557695 34.88846096 20.59798593 39.61266157 15.6875 44.125 C13.44745888 46.61393458 13.29769835 48.72531812 13 52 C17.08730942 50.87799349 19.22221352 50.19555793 21.578125 46.57421875 C22.80703072 44.0775626 23.95083843 41.57697288 25 39 C26.31625194 41.63250388 25.74813658 42.80179056 25.0625 45.625 C24.86785156 46.44226563 24.67320312 47.25953125 24.47265625 48.1015625 C24.31667969 48.72804688 24.16070312 49.35453125 24 50 C24.66 50 25.32 50 26 50 C26.37125 49.195625 26.37125 49.195625 26.75 48.375 C28.29696975 45.43575748 30.13014369 42.74245592 32 40 C33.485 40.495 33.485 40.495 35 41 C33.01767156 47.25998454 30.67554048 53.2102991 27.98828125 59.203125 C26.9946267 62.01520664 26.80056541 64.046212 27 67 C25.515 67.495 25.515 67.495 24 68 C24.41543812 62.28772588 25.64142088 58.02784489 28.16015625 52.8828125 C29.13578957 51.03918383 29.13578957 51.03918383 29 49 C28.608125 49.515625 28.21625 50.03125 27.8125 50.5625 C27.214375 51.036875 26.61625 51.51125 26 52 C25.195625 51.835 24.39125 51.67 23.5625 51.5 C22.716875 51.335 21.87125 51.17 21 51 C20.01 51.7425 20.01 51.7425 19 52.5 C17 54 17 54 14.25 53.6875 C13.5075 53.460625 12.765 53.23375 12 53 C11.67 52.01 11.34 51.02 11 50 C10.46375 50.33 9.9275 50.66 9.375 51 C6.46016327 52.22729967 4.13592513 52.06817229 1 52 C0.01 52.495 0.01 52.495 -1 53 C-2.99960012 53.039992 -5.00047242 53.04346799 -7 53 C-7.495 51.02 -7.495 51.02 -8 49 C-8.886875 49.680625 -9.77375 50.36125 -10.6875 51.0625 C-14 53 -14 53 -16.875 52.75 C-17.57625 52.5025 -18.2775 52.255 -19 52 C-18.67 49.69 -18.34 47.38 -18 45 C-18.40992188 45.5053125 -18.81984375 46.010625 -19.2421875 46.53125 C-19.78101563 47.1809375 -20.31984375 47.830625 -20.875 48.5 C-21.67550781 49.47453125 -21.67550781 49.47453125 -22.4921875 50.46875 C-22.98976562 50.9740625 -23.48734375 51.479375 -24 52 C-24.66 52 -25.32 52 -26 52 C-26.33 51.34 -26.66 50.68 -27 50 C-28.0828125 50.7734375 -28.0828125 50.7734375 -29.1875 51.5625 C-32 53 -32 53 -34.6875 52.8125 C-37 52 -37 52 -39 50 C-39.4125 50.495 -39.825 50.99 -40.25 51.5 C-42 53 -42 53 -46 53 C-46.31563182 47.73946963 -45.66590937 44.55426184 -43 40 C-41.68374806 42.63250388 -42.25186342 43.80179056 -42.9375 46.625 C-43.13214844 47.44226563 -43.32679688 48.25953125 -43.52734375 49.1015625 C-43.68332031 49.72804688 -43.83929688 50.35453125 -44 51 C-41.0981827 48.18353027 -38.49709903 45.37033089 -36 42.1875 C-33.38591644 39.05872642 -33.38591644 39.05872642 -30.125 38.5625 C-29.42375 38.706875 -28.7225 38.85125 -28 39 C-28.37994168 41.75457718 -28.8073633 42.82020574 -30.875 44.75 C-33 46 -33 46 -36 46 C-35.67 47.32 -35.34 48.64 -35 50 C-30.91697767 49.59735218 -30.91697767 49.59735218 -27.3125 47.8125 C-25.53502229 45.35788793 -24.27911512 42.74096097 -23 40 C-22 42 -22 42 -22 46 C-21.59007812 45.4946875 -21.18015625 44.989375 -20.7578125 44.46875 C-20.21898437 43.8190625 -19.68015625 43.169375 -19.125 42.5 C-18.59132812 41.8503125 -18.05765625 41.200625 -17.5078125 40.53125 C-17.01023438 40.0259375 -16.51265625 39.520625 -16 39 C-15.34 39 -14.68 39 -14 39 C-14.50797009 43.3177458 -15.19682779 47.03302114 -17 51 C-12.28562321 48.96794104 -9.03892494 47.40204128 -5.875 43.3125 C-3.68929281 40.50230505 -3.25404639 40.07056844 0.375 39.0625 C1.24125 39.041875 2.1075 39.02125 3 39 C2 41 2 41 -0.4375 41.9375 C-3.29863959 42.84547289 -3.29863959 42.84547289 -5 46 C-5.38499891 47.65549531 -5.72793135 49.3222433 -6 51 C-4.72125 50.773125 -3.4425 50.54625 -2.125 50.3125 C-1.40570313 50.18488281 -0.68640625 50.05726563 0.0546875 49.92578125 C2.20910734 49.1488064 2.20910734 49.1488064 3.0625 46.8125 C3.371875 45.884375 3.68125 44.95625 4 44 C5.02341133 41.88689422 6.06579132 39.78289108 7.125 37.6875 C7.66382813 36.61886719 8.20265625 35.55023438 8.7578125 34.44921875 C9.16773438 33.64097656 9.57765625 32.83273438 10 32 C11.01106962 34.6471641 11.0975873 35.74306129 10.07421875 38.4375 C9.61660156 39.283125 9.15898437 40.12875 8.6875 41 C8.01267578 42.2684375 8.01267578 42.2684375 7.32421875 43.5625 C6.88722656 44.366875 6.45023438 45.17125 6 46 C5.32794436 47.33062521 4.6592284 48.66297339 4 50 C6.48248124 49.66334085 6.48248124 49.66334085 9 48 C10.06020935 45.80385207 10.7154101 43.64809569 11.359375 41.296875 C12 39 12 39 13.4375 36 C14.20634027 31.89951856 12.81064735 29.58496902 10.9453125 25.953125 C10 24 10 24 10 22 C4.72 22 -0.56 22 -6 22 C-6.61875 24.4440625 -6.61875 24.4440625 -7.25 26.9375 C-7.953125 29.71484375 -7.953125 29.71484375 -9 32 C-11.06542969 32.64282227 -11.06542969 32.64282227 -13 33 C-10.94606758 25.58979378 -8.32584753 18.53381235 -5.375 11.4375 C-4.96765625 10.44169922 -4.5603125 9.44589844 -4.140625 8.41992188 C-1.138656 1.138656 -1.138656 1.138656 0 0 Z " fill="#CED2C5" transform="translate(228,218)"/>
<path d="M0 0 C6.93 0 13.86 0 21 0 C21 0.99 21 1.98 21 3 C15.06 3 9.12 3 3 3 C3 6.96 3 10.92 3 15 C8.28 15 13.56 15 19 15 C19 15.66 19 16.32 19 17 C13.72 17 8.44 17 3 17 C3 21.29 3 25.58 3 30 C4.34835938 30 5.69671875 30 7.0859375 30 C12.72395833 30 18.36197917 30 24 30 C24.99 29.67 25.98 29.34 27 29 C26.53482785 34.69835889 25.15958895 38.21274402 22 43 C21.01 43.495 21.01 43.495 20 44 C19.08198558 46.13607005 19.08198558 46.13607005 18.375 48.6875 C17.98441406 49.96173828 17.98441406 49.96173828 17.5859375 51.26171875 C16.79075672 54.5111521 16.79075672 54.5111521 17 60 C17.99 55.38 18.98 50.76 20 46 C20.66 46 21.32 46 22 46 C22 46.66 22 47.32 22 48 C23.96161898 47.81266183 23.96161898 47.81266183 26 47 C27.13070444 45.15272433 27.13070444 45.15272433 27.75 42.9375 C27.99234375 42.20402344 28.2346875 41.47054687 28.484375 40.71484375 C28.65453125 40.14894531 28.8246875 39.58304687 29 39 C29.66 39.99 30.32 40.98 31 42 C31.66 41.34 32.32 40.68 33 40 C35.625 39.875 35.625 39.875 38 40 C37.01 40.66 36.02 41.32 35 42 C31.62503011 44.95309866 29.85060659 47.9286655 28 52 C27.34 52 26.68 52 26 52 C26 51.34 26 50.68 26 50 C24.68 50 23.36 50 22 50 C21.83564453 50.99580078 21.83564453 50.99580078 21.66796875 52.01171875 C19.9772981 61.42724228 19.9772981 61.42724228 17 65 C16.01 65 15.02 65 14 65 C13.37586561 53.257027 15.73426461 44.53147078 21 34 C14.07 33.67 7.14 33.34 0 33 C0 22.11 0 11.22 0 0 Z " fill="#D0D4C8" transform="translate(144,218)"/>
<path d="M0 0 C1.01106962 2.6471641 1.0975873 3.74306129 0.07421875 6.4375 C-0.38339844 7.283125 -0.84101563 8.12875 -1.3125 9 C-1.76238281 9.845625 -2.21226562 10.69125 -2.67578125 11.5625 C-3.11277344 12.366875 -3.54976562 13.17125 -4 14 C-4.67205564 15.33062521 -5.3407716 16.66297339 -6 18 C-2.45481116 16.60240095 -2.45481116 16.60240095 1 15 C1 15.99 1 16.98 1 18 C-2.42587531 20.10823096 -5.0372584 20.08614656 -9 20 C-9.99 20.495 -9.99 20.495 -11 21 C-12.99960012 21.039992 -15.00047242 21.04346799 -17 21 C-17.495 19.02 -17.495 19.02 -18 17 C-18.886875 17.680625 -19.77375 18.36125 -20.6875 19.0625 C-24 21 -24 21 -26.875 20.75 C-27.57625 20.5025 -28.2775 20.255 -29 20 C-28.67 17.69 -28.34 15.38 -28 13 C-28.40992188 13.5053125 -28.81984375 14.010625 -29.2421875 14.53125 C-29.78101563 15.1809375 -30.31984375 15.830625 -30.875 16.5 C-31.40867188 17.1496875 -31.94234375 17.799375 -32.4921875 18.46875 C-32.98976562 18.9740625 -33.48734375 19.479375 -34 20 C-34.66 20 -35.32 20 -36 20 C-36.33 19.34 -36.66 18.68 -37 18 C-38.0828125 18.7734375 -38.0828125 18.7734375 -39.1875 19.5625 C-42 21 -42 21 -44.6875 20.8125 C-47 20 -47 20 -49 18 C-49.4125 18.495 -49.825 18.99 -50.25 19.5 C-52 21 -52 21 -56 21 C-56.31563182 15.73946963 -55.66590937 12.55426184 -53 8 C-51.68374806 10.63250388 -52.25186342 11.80179056 -52.9375 14.625 C-53.13214844 15.44226563 -53.32679688 16.25953125 -53.52734375 17.1015625 C-53.68332031 17.72804688 -53.83929688 18.35453125 -54 19 C-51.0981827 16.18353027 -48.49709903 13.37033089 -46 10.1875 C-43.38591644 7.05872642 -43.38591644 7.05872642 -40.125 6.5625 C-39.42375 6.706875 -38.7225 6.85125 -38 7 C-38.37994168 9.75457718 -38.8073633 10.82020574 -40.875 12.75 C-43 14 -43 14 -46 14 C-45.67 15.32 -45.34 16.64 -45 18 C-40.91697767 17.59735218 -40.91697767 17.59735218 -37.3125 15.8125 C-35.53502229 13.35788793 -34.27911512 10.74096097 -33 8 C-32 10 -32 10 -32 14 C-31.59007812 13.4946875 -31.18015625 12.989375 -30.7578125 12.46875 C-30.21898437 11.8190625 -29.68015625 11.169375 -29.125 10.5 C-28.59132812 9.8503125 -28.05765625 9.200625 -27.5078125 8.53125 C-27.01023438 8.0259375 -26.51265625 7.520625 -26 7 C-25.34 7 -24.68 7 -24 7 C-24.50797009 11.3177458 -25.19682779 15.03302114 -27 19 C-22.28562321 16.96794104 -19.03892494 15.40204128 -15.875 11.3125 C-13.68929281 8.50230505 -13.25404639 8.07056844 -9.625 7.0625 C-8.75875 7.041875 -7.8925 7.02125 -7 7 C-8 9 -8 9 -10.4375 9.9375 C-13.29863959 10.84547289 -13.29863959 10.84547289 -15 14 C-15.38499891 15.65549531 -15.72793135 17.3222433 -16 19 C-14.72125 18.773125 -13.4425 18.54625 -12.125 18.3125 C-11.40570313 18.18488281 -10.68640625 18.05726563 -9.9453125 17.92578125 C-7.79089266 17.1488064 -7.79089266 17.1488064 -6.9375 14.8125 C-6.628125 13.884375 -6.31875 12.95625 -6 12 C-4.97658867 9.88689422 -3.93420868 7.78289108 -2.875 5.6875 C-2.33617187 4.61886719 -1.79734375 3.55023438 -1.2421875 2.44921875 C-0.83226562 1.64097656 -0.42234375 0.83273438 0 0 Z " fill="#D3D7CC" transform="translate(238,250)"/>
<path d="M0 0 C4.49988091 1.12497023 4.49988091 1.12497023 6.5859375 4.28125 C7.04226563 4.95929688 7.49859375 5.63734375 7.96875 6.3359375 C8.4328125 7.05007812 8.896875 7.76421875 9.375 8.5 C9.83132813 9.18320313 10.28765625 9.86640625 10.7578125 10.5703125 C12.18210763 12.7067552 13.59088604 14.85351407 15 17 C16.98 19.97 18.96 22.94 21 26 C21.33 17.42 21.66 8.84 22 0 C22.99 0 23.98 0 25 0 C25 10.89 25 21.78 25 33 C23.68 33 22.36 33 21 33 C18.98535156 30.61328125 18.98535156 30.61328125 16.890625 27.3125 C16.51895203 26.73540283 16.14727905 26.15830566 15.76434326 25.5637207 C14.57948593 23.71732271 13.41472667 21.85914755 12.25 20 C11.45051035 18.74657106 10.64974407 17.49395542 9.84765625 16.2421875 C7.88092072 13.17196268 5.9418462 10.08660269 4 7 C3.67 15.58 3.34 24.16 3 33 C2.01 33 1.02 33 0 33 C0 22.11 0 11.22 0 0 Z " fill="#CACFC1" transform="translate(255,218)"/>
<path d="M0 0 C2.82447215 0.98750342 3.81481475 1.81481475 6 4 C6.875 6.75 6.875 6.75 7 9 C6.01 9 5.02 9 4 9 C2.62131719 7.37064759 1.28725907 5.70250393 0 4 C-3.198543 2.4007285 -6.52101629 2.63872092 -10 3 C-13.43140129 4.37256052 -14.71410041 5.58593853 -16.8125 8.625 C-18.53851577 13.5305185 -19.07225964 18.09665083 -17.23828125 23.0625 C-15.36049732 26.62509402 -13.71925315 28.5627062 -10 30 C-4.67735559 30.6580724 0.0226822 30.04197653 5 28 C5 25.03 5 22.06 5 19 C1.7 19 -1.6 19 -5 19 C-5 18.34 -5 17.68 -5 17 C-0.71 17 3.58 17 8 17 C8 20.96 8 24.92 8 29 C1.72390072 33.67058551 -4.31760121 34.11269 -12 33 C-16.13254739 31.34274977 -18.32896696 28.90914154 -20.9375 25.375 C-22.69279038 19.79937173 -23.25456449 14.14931826 -21.05078125 8.6171875 C-16.02882256 0.03074709 -9.50337949 -1.15581642 0 0 Z " fill="#CACFC1" transform="translate(198,218)"/>
<path d="M0 0 C6.93 0 13.86 0 21 0 C21 0.99 21 1.98 21 3 C15.06 3 9.12 3 3 3 C3 6.96 3 10.92 3 15 C8.28 15 13.56 15 19 15 C19 15.66 19 16.32 19 17 C13.72 17 8.44 17 3 17 C3 21.62 3 26.24 3 31 C8.94 31 14.88 31 21 31 C21 31.33 21 31.66 21 32 C14.07 32 7.14 32 0 32 C0 21.44 0 10.88 0 0 Z " fill="#C8CEBF" transform="translate(144,218)"/>
<path d="M0 0 C0.99 0 1.98 0 3 0 C0.93095311 7.26689638 -1.49402489 14.66268326 -8 19 C-10.6875 19.125 -10.6875 19.125 -13 19 C-12.39252336 12.56074766 -12.39252336 12.56074766 -10.6875 10.125 C-9 9 -9 9 -7 8.6875 C-4.64150721 8.1265471 -4.64150721 8.1265471 -3.375 5.0625 C-2.92125 4.051875 -2.4675 3.04125 -2 2 C-1.34 1.34 -0.68 0.68 0 0 Z " fill="#CFD4C7" transform="translate(235,250)"/>
<path d="M0 0 C2.72178647 2.37083979 3.88769607 4.6533784 5.1875 8 C5.53167969 8.86625 5.87585938 9.7325 6.23046875 10.625 C7 13 7 13 7 16 C3.04 16 -0.92 16 -5 16 C-4.39363767 10.23955788 -2.24341721 5.27985631 0 0 Z " fill="#F9FAF9" transform="translate(229,222)"/>
<path d="M0 0 C0.66 0 1.32 0 2 0 C1.29820257 7.1182311 -0.12103334 10.64057247 -5.51171875 15.328125 C-7.39783216 17.12241351 -7.39783216 17.12241351 -7.4375 20.9375 C-7.293125 21.948125 -7.14875 22.95875 -7 24 C-7.99 23.67 -8.98 23.34 -10 23 C-10.20413361 17.26157749 -10.27141454 12.39460953 -8 7 C-7.34 7.33 -6.68 7.66 -6 8 C-5.59007812 7.4225 -5.18015625 6.845 -4.7578125 6.25 C-4.21898437 5.5075 -3.68015625 4.765 -3.125 4 C-2.59132812 3.2575 -2.05765625 2.515 -1.5078125 1.75 C-0.76144531 0.88375 -0.76144531 0.88375 0 0 Z " fill="#D3D7CC" transform="translate(249,247)"/>
<path d="M0 0 C2.29013653 3.4352048 2.17842973 4.985331 2 9 C1.34 9 0.68 9 0 9 C0.09539062 9.77085937 0.19078125 10.54171875 0.2890625 11.3359375 C0.39992188 12.33882812 0.51078125 13.34171875 0.625 14.375 C0.74101562 15.37273437 0.85703125 16.37046875 0.9765625 17.3984375 C0.98429687 18.25695312 0.99203125 19.11546875 1 20 C0.34 20.66 -0.32 21.32 -1 22 C-3.125 21.625 -3.125 21.625 -5 21 C-4.86722656 20.21496094 -4.73445313 19.42992187 -4.59765625 18.62109375 C-4.42105469 17.57050781 -4.24445313 16.51992187 -4.0625 15.4375 C-3.87816406 14.34566406 -3.69382812 13.25382813 -3.50390625 12.12890625 C-3.11445051 9.71065783 -2.78394188 7.30657501 -2.5 4.875 C-2 2 -2 2 0 0 Z " fill="#D1D6CA" transform="translate(299,214)"/>
<path d="M0 0 C-0.75 7.75 -0.75 7.75 -3 10 C-5.625 10.125 -5.625 10.125 -8 10 C-7.39457203 3.58246347 -7.39457203 3.58246347 -5.6875 1.0625 C-4 0 -4 0 0 0 Z " fill="#FBFCFB" transform="translate(230,259)"/>
<path d="M0 0 C2 3 2 3 1.875 4.875 C0.72556008 7.66649695 -1.12016122 9.65020153 -3 12 C-3.185625 12.7425 -3.37125 13.485 -3.5625 14.25 C-3.706875 14.8275 -3.85125 15.405 -4 16 C-4.99 16.33 -5.98 16.66 -7 17 C-6.34 14.36 -5.68 11.72 -5 9 C-5.66 9 -6.32 9 -7 9 C-6.67 8.01 -6.34 7.02 -6 6 C-5.01 5.67 -4.02 5.34 -3 5 C-2.67 4.34 -2.34 3.68 -2 3 C-1.34 3 -0.68 3 0 3 C0 2.01 0 1.02 0 0 Z " fill="#F3F4F2" transform="translate(293,247)"/>
<path d="M0 0 C0.66 0.66 1.32 1.32 2 2 C1.875 5.5 1.875 5.5 1 9 C-0.875 10.25 -0.875 10.25 -3 11 C-4.70921589 12.5412312 -4.70921589 12.5412312 -6 14 C-6.33 13.01 -6.66 12.02 -7 11 C-5.56640625 8.30078125 -5.56640625 8.30078125 -3.5625 5.3125 C-2.57443359 3.82169922 -2.57443359 3.82169922 -1.56640625 2.30078125 C-1.04949219 1.54152344 -0.53257812 0.78226563 0 0 Z " fill="#CDD2C5" transform="translate(290,243)"/>
<path d="M0 0 C0.66 0 1.32 0 2 0 C1.66506307 5.3589909 -1.57127181 9.10743856 -5 13 C-5.99 13.495 -5.99 13.495 -7 14 C-6.706999 8.13998008 -3.96570849 4.14453354 0 0 Z " fill="#F7F7F5" transform="translate(249,247)"/>
<path d="M0 0 C0.33 0 0.66 0 1 0 C1 10.89 1 21.78 1 33 C-0.485 33.495 -0.485 33.495 -2 34 C-1.84152588 33.14841309 -1.68305176 32.29682617 -1.51977539 31.41943359 C-1.00187484 28.01233398 -0.79415096 24.73212975 -0.68359375 21.2890625 C-0.64169922 20.04511719 -0.59980469 18.80117187 -0.55664062 17.51953125 C-0.51732422 16.23433594 -0.47800781 14.94914063 -0.4375 13.625 C-0.39431641 12.31660156 -0.35113281 11.00820312 -0.30664062 9.66015625 C-0.20087571 6.44020203 -0.09878421 3.22017469 0 0 Z " fill="#F6F7F4" transform="translate(254,218)"/>
<path d="M0 0 C1.5625 1.6875 1.5625 1.6875 3 4 C2.6875 6.75 2.6875 6.75 2 9 C0.68 9.33 -0.64 9.66 -2 10 C-2.33 8.68 -2.66 7.36 -3 6 C-2.34 6 -1.68 6 -1 6 C-1.0309375 4.7934375 -1.0309375 4.7934375 -1.0625 3.5625 C-1 1 -1 1 0 0 Z " fill="#CACFC0" transform="translate(297,226)"/>
<path d="M0 0 C0.66 0 1.32 0 2 0 C1.5547115 5.27315333 0.91626837 10.01770224 -1 15 C-1.33 15 -1.66 15 -2 15 C-2.19392201 9.47322267 -1.7479503 5.24385089 0 0 Z " fill="#F6F7F5" transform="translate(162,265)"/>
<path d="M0 0 C0.99857603 2.63039539 1.09097144 3.75102553 0.109375 6.4375 C-0.56351563 7.7059375 -0.56351563 7.7059375 -1.25 9 C-1.68828125 9.845625 -2.1265625 10.69125 -2.578125 11.5625 C-3.91372218 13.85209517 -5.36222012 15.91905615 -7 18 C-7.66 17.67 -8.32 17.34 -9 17 C-8.60167969 16.35933594 -8.20335937 15.71867187 -7.79296875 15.05859375 C-4.78283052 10.14423182 -2.10055882 5.36809475 0 0 Z " fill="#CDD2C4" transform="translate(238,250)"/>
<path d="M0 0 C0.99 0 1.98 0 3 0 C1.88059018 4.85077588 0.8665284 7.777893 -3 11 C-4 8 -4 8 -3.22265625 5.95703125 C-2.83980469 5.24933594 -2.45695313 4.54164063 -2.0625 3.8125 C-1.68222656 3.09707031 -1.30195313 2.38164062 -0.91015625 1.64453125 C-0.60980469 1.10183594 -0.30945313 0.55914062 0 0 Z " fill="#DDE0D7" transform="translate(168,250)"/>
<path d="M0 0 C0.99 0.33 1.98 0.66 3 1 C2.54554036 2.41791408 2.08625056 3.83428046 1.625 5.25 C1.36976563 6.03890625 1.11453125 6.8278125 0.8515625 7.640625 C0.04826333 9.86627958 -0.89711662 11.90931672 -2 14 C-2.33 13.01 -2.66 12.02 -3 11 C-2.33333333 9.66666667 -1.66666667 8.33333333 -1 7 C-0.61250787 4.67504723 -0.27017161 2.34148732 0 0 Z " fill="#CCD1C4" transform="translate(260,258)"/>
<path d="M0 0 C0.66 0 1.32 0 2 0 C0.88059018 4.85077588 -0.1334716 7.777893 -4 11 C-3.49357808 6.64477147 -2.61588503 3.55760365 0 0 Z " fill="#F4F5F3" transform="translate(235,252)"/>
<path d="M0 0 C0.66 0 1.32 0 2 0 C2 0.66 2 1.32 2 2 C3.65 1.67 5.3 1.34 7 1 C7 2.65 7 4.3 7 6 C6.67 5.34 6.34 4.68 6 4 C4.68 4 3.36 4 2 4 C1.67 4.66 1.34 5.32 1 6 C0.67 4.02 0.34 2.04 0 0 Z " fill="#D9DDD3" transform="translate(164,264)"/>
<path d="M0 0 C0.33 0 0.66 0 1 0 C1 2.31 1 4.62 1 7 C1.66 7.33 2.32 7.66 3 8 C2.67 8.66 2.34 9.32 2 10 C0.35 10 -1.3 10 -3 10 C-2.690625 9.46375 -2.38125 8.9275 -2.0625 8.375 C-0.82172561 5.6015043 -0.4090325 2.99957163 0 0 Z " fill="#E4E7DF" transform="translate(279,260)"/>
<path d="M0 0 C1 2 1 2 0.4375 4.5 C0.293125 5.325 0.14875 6.15 0 7 C0.66 7.66 1.32 8.32 2 9 C0.68 9.33 -0.64 9.66 -2 10 C-2.6875 8.375 -2.6875 8.375 -3 6 C-1.5625 2.75 -1.5625 2.75 0 0 Z " fill="#D5D9CE" transform="translate(205,258)"/>
</svg>
