<?xml version="1.0" encoding="UTF-8" standalone="no"?>
<svg
   xmlns:dc="http://purl.org/dc/elements/1.1/"
   xmlns:cc="http://creativecommons.org/ns#"
   xmlns:rdf="http://www.w3.org/1999/02/22-rdf-syntax-ns#"
   xmlns:svg="http://www.w3.org/2000/svg"
   xmlns="http://www.w3.org/2000/svg"
   viewBox="0 0 2000 2000"
   height="2000"
   width="2000"
   xml:space="preserve"
   id="svg2"
   version="1.1"><metadata
     id="metadata8"><rdf:RDF><cc:Work
         rdf:about=""><dc:format>image/svg+xml</dc:format><dc:type
           rdf:resource="http://purl.org/dc/dcmitype/StillImage" /></cc:Work></rdf:RDF></metadata><defs
     id="defs6"><clipPath
       id="clipPath18"
       clipPathUnits="userSpaceOnUse"><path
         id="path16"
         d="M 0,1500 H 1500 V 0 H 0 Z" /></clipPath></defs><g
     transform="matrix(1.3333333,0,0,-1.3333333,0,2000)"
     id="g10"><g
       id="g12"><g
         clip-path="url(#clipPath18)"
         id="g14"><g
           transform="translate(985.4125,753.7441)"
           id="g20"><path
             id="path22"
             style="fill:#000000;fill-opacity:1;fill-rule:nonzero;stroke:none"
             d="m 0,0 c -0.68,-6.904 3.192,-23.648 -7.326,-12.964 -23.422,18.028 -50.436,30.489 -78.075,40.21 -98.685,36.656 -209.268,34.383 -307.292,-1.803 -27.605,-10.017 -54.812,-28.016 -78.324,-41.971 0.194,111.966 25.844,224.933 80.86,322.781 37.822,68.477 89.667,131.876 154.73,176.164 C -81.041,376.415 -4.524,182.457 -0.291,0 -0.194,0 -0.097,0 0,0" /></g><g
           transform="translate(1004.8578,757.2975)"
           id="g24"><path
             id="path26"
             style="fill:#000000;fill-opacity:1;fill-rule:nonzero;stroke:none"
             d="m 0,0 c 0.454,172.699 -69.829,346.429 -199.3,462.407 -47.497,37.324 -28.086,24.694 18.352,22.253 C 71.071,455.536 302.456,237.1 298.029,-24.776 213.552,58.03 89.13,58.065 0.545,-18.953 -0.719,-12.812 0.329,-6.284 0.006,0 Z" /></g><g
           transform="translate(726.6631,1241.8683)"
           id="g28"><path
             id="path30"
             style="fill:#000000;fill-opacity:1;fill-rule:nonzero;stroke:none"
             d="m 0,0 c -132.601,-100.008 -206.91,-261.638 -225.039,-423.044 -14.214,-102.04 21.266,-92.816 -57.922,-47.052 -79.1,44.517 -187.026,25.412 -247.782,-41.604 C -514.441,-226.63 -278.093,-9.997 5.203,3.648 4.1,1.83 1.69,1.252 0,0" /></g><g
           transform="translate(735.9382,1278.9829)"
           id="g32"><path
             id="path34"
             style="fill:#000000;fill-opacity:1;fill-rule:nonzero;stroke:none"
             d="m 0,0 c 0,3.199 -0.013,6.398 0.006,9.596 0.008,1.399 0.067,2.797 0.129,4.194 0.163,3.662 2.117,6.316 4.842,8.525 0.153,0.124 0.378,0.165 0.518,0.299 4.344,4.154 9.292,4.001 14.476,2.002 0.729,-0.281 1.481,-0.673 2.039,-1.205 2.772,-2.651 5.007,-5.56 5.541,-9.599 0.658,-4.979 0.719,-9.965 0.76,-14.961 0.033,-3.998 0.051,-7.998 -0.023,-11.996 -0.039,-2.114 -1.262,-3.423 -3.336,-3.506 -4.194,-0.167 -8.394,-0.219 -12.591,-0.264 -2.799,-0.03 -5.601,-0.032 -8.396,0.076 -2.631,0.102 -3.697,1.117 -3.77,3.643 C 0.09,-9.599 0.13,-5.999 0.11,-2.4 0.105,-1.6 0.109,-0.8 0.109,0 0.073,0 0.036,0 0,0" /></g><g
           transform="translate(768.6375,439.2025)"
           id="g36"><path
             id="path38"
             style="fill:#000000;fill-opacity:1;fill-rule:nonzero;stroke:none"
             d="m 0,0 c -1.757,2.152 -4.197,4.016 -4.777,6.794 -0.564,2.695 -0.396,5.562 -0.397,8.353 -0.009,46.513 -0.007,275.75 -0.008,322.263 h -27.976 c 0,-46.022 0,-274.769 0,-320.792 0,-2.999 -0.184,-6.011 0.047,-8.992 0.17,-2.193 -0.34,-3.846 -1.969,-5.319 -3.806,-3.44 -5.139,-7.969 -5.39,-12.912 -0.091,-1.797 -0.125,-3.598 -0.112,-5.397 0.061,-8.597 0.134,-17.195 0.235,-25.792 0.024,-1.996 0.172,-3.99 0.272,-5.985 0.16,-3.192 0.434,-6.382 0.473,-9.575 0.146,-11.796 0.241,-23.592 0.306,-35.389 0.073,-13.397 0.121,-26.794 0.106,-40.192 -0.002,-2.182 -0.078,-4.446 -0.638,-6.533 -3.479,-12.971 -10.789,-23.006 -22.805,-29.434 -12.616,-6.75 -26.123,-8.657 -40.092,-6.944 -9.909,1.215 -18.073,6.121 -24.234,14.1 -4.442,5.753 -7.739,12.05 -9.45,19.19 -0.67,2.794 -1.106,5.452 -0.279,8.246 0.752,2.539 0.717,5.162 0.366,7.737 -0.324,2.367 -0.842,4.724 -1.483,7.027 -2.135,7.665 -4.058,10.027 -11.1,13.991 -0.349,0.196 -0.666,0.465 -1.034,0.605 -2.988,1.144 -6.018,2.372 -9.274,1.882 -3.141,-0.472 -6.184,-1.248 -9.019,-2.966 -4.211,-2.553 -7.382,-6.027 -9.969,-10.082 -0.836,-1.309 -1.363,-2.909 -1.665,-4.448 -0.888,-4.529 -1.278,-9.145 -0.791,-13.73 0.865,-8.143 2.015,-16.231 4.224,-24.172 4.943,-17.77 14.646,-32.154 29.334,-43.363 13.074,-9.978 35.762,-18.651 54.814,-18.215 4.213,0.096 8.33,0.638 12.494,1.166 8.591,1.088 16.837,3.249 24.837,6.494 14.834,6.019 26.881,15.696 36.548,28.305 9.244,12.056 15.349,25.682 19.157,40.365 1.464,5.647 2.168,11.402 2.177,17.204 0.055,37.993 0.036,75.986 0.008,113.98 -0.002,2.189 -0.329,4.378 -0.45,6.57 C 2.359,-3.669 1.451,-1.777 0,0" /></g></g></g></g></svg>