<?xml version="1.0" encoding="UTF-8" standalone="no"?>
<svg
   xmlns:dc="http://purl.org/dc/elements/1.1/"
   xmlns:cc="http://creativecommons.org/ns#"
   xmlns:rdf="http://www.w3.org/1999/02/22-rdf-syntax-ns#"
   xmlns:svg="http://www.w3.org/2000/svg"
   xmlns="http://www.w3.org/2000/svg"
   viewBox="0 0 37.795334 37.795334"
   height="37.795334"
   width="37.795334"
   xml:space="preserve"
   id="svg2"
   version="1.1"><metadata
     id="metadata8"><rdf:RDF><cc:Work
         rdf:about=""><dc:format>image/svg+xml</dc:format><dc:type
           rdf:resource="http://purl.org/dc/dcmitype/StillImage" /></cc:Work></rdf:RDF></metadata><defs
     id="defs6"><clipPath
       id="clipPath18"
       clipPathUnits="userSpaceOnUse"><path
         id="path16"
         d="M 0,28.346 H 28.346 V 0 H 0 Z" /></clipPath></defs><g
     transform="matrix(1.3333333,0,0,-1.3333333,0,37.795333)"
     id="g10"><g
       id="g12"><g
         clip-path="url(#clipPath18)"
         id="g14"><g
           transform="translate(18.3965,11.5076)"
           id="g20"><path
             id="path22"
             style="fill:#2b2b2a;fill-opacity:1;fill-rule:nonzero;stroke:none"
             d="m 0,0 c -0.228,-0.231 -0.472,-0.479 -0.788,-0.8 0.567,-0.564 1.154,-1.15 1.746,-1.74 l -10.425,0.005 c 0.65,0.631 1.231,1.194 1.787,1.733 -0.277,0.291 -0.512,0.54 -0.703,0.74 -1.047,-1.027 -2.089,-2.048 -3.109,-3.049 1.022,-1.021 2.048,-2.045 3.045,-3.041 0.228,0.231 0.472,0.478 0.788,0.799 -0.567,0.565 -1.154,1.151 -1.746,1.741 L 1.021,-3.617 c -0.651,-0.631 -1.232,-1.195 -1.788,-1.734 0.278,-0.291 0.513,-0.54 0.704,-0.74 1.046,1.028 2.088,2.049 3.108,3.05 C 2.023,-2.021 0.998,-0.996 0,0" /></g><g
           transform="translate(7.7197,19.0383)"
           id="g24"><path
             id="path26"
             style="fill:#2b2b2a;fill-opacity:1;fill-rule:nonzero;stroke:none"
             d="M 0,0 H 1.487 V -0.52 H -0.578 V 2.765 H 1.439 V 2.246 H 0 V 1.358 H 1.258 V 0.829 L 0,0.829 Z" /></g><g
           transform="translate(12.4458,18.5188)"
           id="g28"><path
             id="path30"
             style="fill:#2b2b2a;fill-opacity:1;fill-rule:nonzero;stroke:none"
             d="M 0,0 H -0.687 L -1.487,1.286 -2.289,0 h -0.687 l 1.141,1.759 -1.025,1.526 h 0.695 l 0.678,-1.063 0.681,1.063 h 0.697 l -1.03,-1.531 z" /></g><g
           transform="translate(15.0273,21.8035)"
           id="g32"><path
             id="path34"
             style="fill:#2b2b2a;fill-opacity:1;fill-rule:nonzero;stroke:none"
             d="M 0,0 V -0.52 H -0.939 V -3.285 H -1.521 V -0.52 H -2.46 V 0 Z" /></g><g
           transform="translate(16.125,21.284)"
           id="g36"><path
             id="path38"
             style="fill:#2b2b2a;fill-opacity:1;fill-rule:nonzero;stroke:none"
             d="m 0,0 v -1.079 h 0.586 c 0.41,0 0.582,0.236 0.582,0.536 C 1.168,-0.242 0.982,0 0.663,0 Z m 1.105,-2.765 -0.81,1.197 H 0 V -2.765 H -0.582 V 0.52 h 1.288 c 0.733,0 1.044,-0.529 1.044,-1.054 0,-0.472 -0.311,-0.95 -0.812,-1.015 l 0.855,-1.216 z" /></g><g
           transform="translate(19.1875,19.8303)"
           id="g40"><path
             id="path42"
             style="fill:#2b2b2a;fill-opacity:1;fill-rule:nonzero;stroke:none"
             d="M 0,0 H 0.938 L 0.472,1.335 Z m 1.4,-1.312 -0.285,0.807 h -1.293 l -0.28,-0.807 h -0.62 l 1.235,3.285 h 0.629 l 1.231,-3.285 z" /></g><g
           transform="translate(11.584,16.0803)"
           id="g44"><path
             id="path46"
             style="fill:#2b2b2a;fill-opacity:1;fill-rule:nonzero;stroke:none"
             d="m 0,0 h 0.625 l -1.11,-3.287 h -0.472 l -0.521,1.875 -0.51,-1.875 H -2.464 L -3.571,0 h 0.625 l 0.725,-2.299 0.515,1.844 h 0.462 l 0.515,-1.854 z" /></g><path
           id="path48"
           style="fill:#2b2b2a;fill-opacity:1;fill-rule:nonzero;stroke:none"
           d="M 12.688,16.08 H 13.27 V 12.793 H 12.688 Z" /><g
           transform="translate(15.3984,13.3132)"
           id="g50"><path
             id="path52"
             style="fill:#2b2b2a;fill-opacity:1;fill-rule:nonzero;stroke:none"
             d="M 0,0 C 0.595,0 0.9,0.505 0.9,1.115 0.9,1.73 0.595,2.245 0,2.245 H -0.706 V 0 Z M 0,2.767 C 0.938,2.767 1.487,2.052 1.487,1.115 1.487,0.186 0.938,-0.52 0,-0.52 h -1.288 v 3.287 z" /></g><g
           transform="translate(18.1133,13.3132)"
           id="g54"><path
             id="path56"
             style="fill:#2b2b2a;fill-opacity:1;fill-rule:nonzero;stroke:none"
             d="M 0,0 H 1.487 V -0.52 H -0.578 V 2.767 H 1.439 V 2.245 H 0 V 1.36 H 1.258 V 0.831 L 0,0.831 Z" /></g></g></g></g></svg>