<svg xmlns="http://www.w3.org/2000/svg" xmlns:xlink="http://www.w3.org/1999/xlink" width="400" zoomAndPan="magnify" viewBox="0 0 300 299.999988" height="400" preserveAspectRatio="xMidYMid meet" version="1.0"><defs><g/></defs><g fill="#000000" fill-opacity="1"><g transform="translate(89.516021, 119.241648)"><g><path d="M 19.066406 0 L 19.066406 -5.222656 L 8.730469 -5.222656 L 8.730469 -9.585938 L 17.53125 -9.585938 L 17.53125 -14.703125 L 8.730469 -14.703125 L 8.730469 -19.425781 L 18.746094 -19.425781 L 18.746094 -24.648438 L 2.753906 -24.648438 L 2.753906 0 Z M 19.066406 0 "/></g></g></g><g fill="#000000" fill-opacity="1"><g transform="translate(110.295857, 119.241648)"><g><path d="M 16.3125 -24.648438 L 12.128906 -17.816406 L 7.976562 -24.648438 L 0.75 -24.648438 L 8.550781 -13.09375 L 0.0703125 0 L 7.082031 0 L 12.128906 -8.335938 L 17.136719 0 L 24.183594 0 L 15.667969 -13.09375 L 23.46875 -24.648438 Z M 16.3125 -24.648438 "/></g></g></g><g fill="#000000" fill-opacity="1"><g transform="translate(134.509196, 119.241648)"><g><path d="M 7.332031 -19.425781 L 7.332031 0 L 13.308594 0 L 13.308594 -19.425781 L 19.675781 -19.425781 L 19.675781 -24.648438 L 0.964844 -24.648438 L 0.964844 -19.425781 Z M 7.332031 -19.425781 "/></g></g></g><g fill="#000000" fill-opacity="1"><g transform="translate(155.14597, 119.241648)"><g><path d="M 8.730469 0 L 8.730469 -8.226562 L 9.265625 -8.226562 L 14.558594 0 L 21.5 0 L 15.492188 -8.515625 C 19.496094 -9.480469 21.394531 -12.949219 21.394531 -16.421875 C 21.394531 -20.535156 18.78125 -24.648438 12.949219 -24.648438 L 2.753906 -24.648438 L 2.753906 0 Z M 12.664062 -19.425781 C 14.632812 -19.425781 15.347656 -17.851562 15.347656 -16.421875 C 15.347656 -14.953125 14.632812 -13.378906 12.664062 -13.378906 L 8.730469 -13.378906 L 8.730469 -19.425781 Z M 12.664062 -19.425781 "/></g></g></g><g fill="#000000" fill-opacity="1"><g transform="translate(178.107519, 119.241648)"><g><path d="M 17.921875 0 L 24.253906 0 L 15.203125 -24.648438 L 8.691406 -24.648438 L -0.394531 0 L 6.011719 0 L 8.085938 -5.652344 L 15.847656 -5.652344 Z M 11.914062 -18.925781 L 14.308594 -10.804688 L 9.695312 -10.804688 Z M 11.914062 -18.925781 "/></g></g></g><g fill="#000000" fill-opacity="1"><g transform="translate(201.957422, 119.241648)"><g/></g></g><g fill="#000000" fill-opacity="1"><g transform="translate(105.465238, 168.741644)"><g><path d="M 18.28125 -21.105469 L 13.308594 -21.105469 L 10.519531 -10.625 L 6.261719 -24.648438 L -0.214844 -24.648438 L 8.085938 0 L 12.734375 0 L 15.742188 -11.984375 L 18.851562 0 L 23.46875 0 L 31.839844 -24.648438 L 25.328125 -24.648438 L 21.035156 -10.625 Z M 18.28125 -21.105469 "/></g></g></g><g fill="#000000" fill-opacity="1"><g transform="translate(137.046305, 168.741644)"><g><path d="M 2.753906 0 L 8.730469 0 L 8.730469 -24.648438 L 2.753906 -24.648438 Z M 2.753906 0 "/></g></g></g><g fill="#000000" fill-opacity="1"><g transform="translate(148.527074, 168.741644)"><g><path d="M 8.765625 -19.320312 L 12.519531 -19.320312 C 15.992188 -19.320312 17.746094 -15.882812 17.746094 -12.269531 C 17.746094 -8.65625 15.992188 -5.332031 12.519531 -5.332031 L 8.765625 -5.332031 Z M 2.753906 0 L 12.519531 0 C 19.640625 0 23.71875 -5.257812 23.71875 -12.269531 C 23.71875 -19.28125 19.640625 -24.648438 12.519531 -24.648438 L 2.753906 -24.648438 Z M 2.753906 0 "/></g></g></g><g fill="#000000" fill-opacity="1"><g transform="translate(173.741851, 168.741644)"><g><path d="M 19.066406 0 L 19.066406 -5.222656 L 8.730469 -5.222656 L 8.730469 -9.585938 L 17.53125 -9.585938 L 17.53125 -14.703125 L 8.730469 -14.703125 L 8.730469 -19.425781 L 18.746094 -19.425781 L 18.746094 -24.648438 L 2.753906 -24.648438 L 2.753906 0 Z M 19.066406 0 "/></g></g></g><path stroke-linecap="butt" transform="matrix(0.750584, -0.00535703, 0.00535273, 0.749981, 84.400912, 191.185604)" fill="none" stroke-linejoin="miter" d="M 4.497553 4.498309 L 170.373597 4.500821 " stroke="#000000" stroke-width="9" stroke-opacity="1" stroke-miterlimit="4"/><path stroke-linecap="round" transform="matrix(6.755256, -0.0482133, 0.0481745, 6.749828, 84.425001, 194.560501)" fill="none" stroke-linejoin="round" d="M 2.500192 -1.499824 L 0.499728 -0.000185359 L 2.500193 1.500253 " stroke="#000000" stroke-width="1" stroke-opacity="1" stroke-miterlimit="4"/><path stroke-linecap="round" transform="matrix(6.755256, -0.0482133, 0.0481745, 6.749828, 215.680476, 193.623719)" fill="none" stroke-linejoin="round" d="M -2.500198 -1.499767 L -0.499728 0.0000926493 L -2.500193 1.499731 " stroke="#000000" stroke-width="1" stroke-opacity="1" stroke-miterlimit="4"/></svg>