<?xml version="1.0" encoding="UTF-8"?><svg id="Layer_2" xmlns="http://www.w3.org/2000/svg" viewBox="0 0 120 120"><g id="Layer_1-2"><path d="m60,0C26.92,0,0,26.92,0,60s26.92,60,60,60,60-26.92,60-60S93.08,0,60,0ZM23.16,53.44c-.43-1.73-.98-3.38-1.62-4.91l1.97-.83c.69,1.62,1.27,3.38,1.73,5.22l-2.07.52Zm2.55,1.62c.33,1.7.57,3.52.73,5.41l-2.13.17c-.15-1.81-.38-3.55-.69-5.17l2.1-.41Zm-5.04-8.4c-.77-1.51-1.65-2.89-2.75-4.35l1.71-1.29,2.95,4.67-1.9.97Zm28.29-2.03c-.11.12-.24.26-.39.42-1.79,1.92-7.25,7.77-7.47,28.18v1.06h-3.83c-.24,1.88-1.26,3.53-2.73,4.59l.44,4.06c.06.54-.12,1.08-.48,1.49-.36.4-.88.64-1.43.64h-4.93c-.53,0-1.05-.23-1.41-.62-.36-.39-.54-.92-.5-1.46l.44-4.13c-1.45-1.06-2.46-2.69-2.7-4.57h-3.74v-1.06c-.23-20.4-5.68-26.25-7.48-28.18-.15-.16-.28-.3-.39-.42l-.51-.58,3.11-5.31,1.84,1.08-2.32,3.97c3.27,3.58,7.5,10.45,7.85,28.36h1.57v-4.1c0-.96.21-1.87.57-2.69,0-.9-.02-1.78-.06-2.63l2.13-.09s0,.06,0,.09c1.13-.86,2.53-1.38,4.05-1.38s3,.54,4.14,1.44c0-.05,0-.1,0-.15l2.13.09c-.04.91-.06,1.86-.06,2.83.31.77.49,1.61.49,2.5v4.1h1.65c.35-17.91,4.58-24.78,7.85-28.36l-2.32-3.97,1.84-1.08,3.11,5.31-.51.58Zm-9.16,3.9c-.65,1.52-1.19,3.17-1.62,4.91l-2.07-.52c.46-1.84,1.04-3.6,1.73-5.22l1.97.83Zm-1.03-2.84c.83-1.62,1.77-3.1,2.95-4.67l1.71,1.29c-1.1,1.46-1.98,2.85-2.75,4.35l-1.9-.97Zm-1.04,9.78c-.31,1.63-.55,3.37-.69,5.17l-2.13-.17c.15-1.89.4-3.7.73-5.41l2.1.41Zm22.28,62.92s-.06,0-.09,0v-48.31h-2.6v-7.35h-7.35v-5.29h7.35v-7.35h2.6V1.6s.06,0,.09,0c32.2,0,58.4,26.2,58.4,58.4s-26.2,58.4-58.4,58.4Z"/><path d="m108.35,52.06c-1.06,0-2.01.46-2.67,1.19l-8.78-2.95,8.72-2.93c.66.77,1.64,1.26,2.73,1.26,1.98,0,3.6-1.61,3.6-3.6s-1.61-3.6-3.6-3.6c-1.88,0-3.43,1.45-3.58,3.29l-12.23,4.11-12.24-4.11c-.16-1.84-1.7-3.29-3.58-3.29-1.98,0-3.6,1.61-3.6,3.6s1.61,3.6,3.6,3.6c1.09,0,2.07-.49,2.73-1.26l8.73,2.93-8.79,2.95c-.66-.73-1.61-1.2-2.67-1.2-1.98,0-3.6,1.61-3.6,3.6s1.61,3.6,3.6,3.6,3.47-1.5,3.59-3.38l12.24-4.11,12.23,4.11c.11,1.88,1.68,3.38,3.59,3.38s3.6-1.61,3.6-3.6-1.61-3.6-3.6-3.6Zm0-9.43c1.33,0,2.41,1.08,2.41,2.41s-1.08,2.41-2.41,2.41c-.55,0-1.05-.19-1.45-.5l1.72-.58c.73-.24,1.12-1.03.87-1.76-.24-.73-1.03-1.12-1.76-.87l-1.66.56c.32-.96,1.21-1.66,2.28-1.66Zm-31.64,4.81c-1.33,0-2.41-1.08-2.41-2.41s1.08-2.41,2.41-2.41c1.06,0,1.96.7,2.28,1.66l-1.65-.56c-.73-.25-1.52.15-1.76.87-.24.73.15,1.52.87,1.76l1.72.58c-.41.31-.91.5-1.45.5Zm0,10.62c-1.33,0-2.41-1.08-2.41-2.41s1.08-2.41,2.41-2.41c.51,0,.99.16,1.38.44l-1.64.55c-.73.24-1.12,1.03-.87,1.76.2.58.74.95,1.32.95.15,0,.3-.02.44-.07l1.68-.57c-.29,1.01-1.21,1.75-2.31,1.75Zm31.64,0c-1.1,0-2.02-.75-2.31-1.76l1.69.57c.15.05.3.07.44.07.58,0,1.12-.37,1.32-.95.24-.73-.15-1.52-.87-1.76l-1.65-.55c.39-.27.86-.44,1.38-.44,1.33,0,2.41,1.08,2.41,2.41s-1.08,2.41-2.41,2.41Z"/><path d="m105.61,67.49c.66.77,1.64,1.26,2.73,1.26,1.98,0,3.6-1.61,3.6-3.6s-1.61-3.6-3.6-3.6c-1.88,0-3.43,1.45-3.58,3.29l-12.23,4.11-12.24-4.11c-.16-1.84-1.7-3.29-3.58-3.29-1.98,0-3.6,1.61-3.6,3.6s1.61,3.6,3.6,3.6c1.09,0,2.07-.49,2.73-1.26l8.73,2.93-8.79,2.95c-.66-.73-1.61-1.2-2.67-1.2-1.98,0-3.6,1.61-3.6,3.6s1.61,3.6,3.6,3.6,3.47-1.5,3.59-3.38l12.24-4.11,12.23,4.11c.11,1.88,1.68,3.38,3.59,3.38s3.6-1.61,3.6-3.6-1.61-3.6-3.6-3.6c-1.06,0-2.01.46-2.67,1.19l-8.78-2.95,8.72-2.93Zm2.73-4.74c1.33,0,2.41,1.08,2.41,2.41s-1.08,2.41-2.41,2.41c-.55,0-1.05-.19-1.45-.5l1.72-.58c.73-.24,1.12-1.03.87-1.76-.24-.73-1.03-1.12-1.76-.87l-1.66.56c.32-.96,1.21-1.66,2.28-1.66Zm-31.64,4.81c-1.33,0-2.41-1.08-2.41-2.41s1.08-2.41,2.41-2.41c1.06,0,1.96.7,2.28,1.66l-1.65-.56c-.73-.25-1.52.15-1.76.87-.24.73.15,1.52.87,1.76l1.72.58c-.41.31-.91.5-1.45.5Zm0,10.62c-1.33,0-2.41-1.08-2.41-2.41s1.08-2.41,2.41-2.41c.51,0,.99.16,1.38.44l-1.64.55c-.73.24-1.12,1.03-.87,1.76.2.58.74.95,1.32.95.15,0,.3-.02.44-.07l1.68-.57c-.29,1.01-1.21,1.75-2.31,1.75Zm31.64-4.81c1.33,0,2.41,1.08,2.41,2.41s-1.08,2.41-2.41,2.41c-1.1,0-2.02-.75-2.31-1.76l1.69.57c.15.05.3.07.44.07.58,0,1.12-.37,1.32-.95.24-.73-.15-1.52-.87-1.76l-1.65-.55c.39-.27.86-.44,1.38-.44Z"/><path d="m30.62,63.5c-2.52,0-4.56,2.05-4.56,4.56v5.4c0,1.02.34,1.96.91,2.72l.21-1.95v-6.61h6.9v6.9h0l.18,1.7c.59-.77.94-1.72.94-2.76v-5.4c0-2.52-2.05-4.56-4.57-4.56Z"/><path d="m28.95,77.7c.52.21,1.08.32,1.67.32s1.13-.11,1.64-.31l-.35-3.19h-2.62l-.34,3.18Z"/><rect x="29.31" y="69.76" width="2.63" height="2.63"/><path d="m30.62,80.16c-.66,0-1.3-.1-1.9-.28l-.33,3.05h4.44l-.33-3.04c-.6.17-1.22.27-1.87.27Z"/><polygon points="62.6 50.09 59.96 50.09 59.96 70.09 62.6 70.09 62.6 62.73 69.95 62.73 69.95 57.44 62.6 57.44 62.6 50.09"/></g></svg>