<?xml version="1.0" encoding="UTF-8" standalone="no"?>
<svg
   xmlns:dc="http://purl.org/dc/elements/1.1/"
   xmlns:cc="http://creativecommons.org/ns#"
   xmlns:rdf="http://www.w3.org/1999/02/22-rdf-syntax-ns#"
   xmlns:svg="http://www.w3.org/2000/svg"
   xmlns="http://www.w3.org/2000/svg"
   viewBox="0 0 37.795334 37.795334"
   height="37.795334"
   width="37.795334"
   xml:space="preserve"
   id="svg2"
   version="1.1"><metadata
     id="metadata8"><rdf:RDF><cc:Work
         rdf:about=""><dc:format>image/svg+xml</dc:format><dc:type
           rdf:resource="http://purl.org/dc/dcmitype/StillImage" /></cc:Work></rdf:RDF></metadata><defs
     id="defs6" /><g
     transform="matrix(1.3333333,0,0,-1.3333333,0,37.795333)"
     id="g10"><path
       id="path12"
       style="fill:#2b2b2a;fill-opacity:1;fill-rule:nonzero;stroke:none"
       d="m 11.079,5.306 h 3.776 v 1.025 h -3.776 z" /><path
       id="path14"
       style="fill:#2b2b2a;fill-opacity:1;fill-rule:nonzero;stroke:none"
       d="m 11.079,7.633 h 3.776 v 1.024 h -3.776 z" /><g
       transform="translate(10.6758,10.7547)"
       id="g16"><path
         id="path18"
         style="fill:#2b2b2a;fill-opacity:1;fill-rule:nonzero;stroke:none"
         d="m 0,0 0.098,-1.02 3.756,0.361 -0.097,1.02 z" /></g><path
       id="path20"
       style="fill:#2b2b2a;fill-opacity:1;fill-rule:nonzero;stroke:none"
       d="m 13.573,4.145 h 3.775 v 1.023 h -3.775 z" /><path
       id="path22"
       style="fill:#2b2b2a;fill-opacity:1;fill-rule:nonzero;stroke:none"
       d="m 13.573,6.469 h 3.775 v 1.024 h -3.775 z" /><path
       id="path24"
       style="fill:#2b2b2a;fill-opacity:1;fill-rule:nonzero;stroke:none"
       d="m 13.573,8.796 h 3.775 V 9.82 h -3.775 z" /><g
       transform="translate(18.0879,11.3699)"
       id="g26"><path
         id="path28"
         style="fill:#2b2b2a;fill-opacity:1;fill-rule:nonzero;stroke:none"
         d="m 0,0 -0.401,-0.944 -3.472,1.476 0.399,0.943 z" /></g><g
       transform="translate(18.998,13.51)"
       id="g30"><path
         id="path32"
         style="fill:#2b2b2a;fill-opacity:1;fill-rule:nonzero;stroke:none"
         d="m 0,0 -0.401,-0.944 -3.474,1.475 0.399,0.944 z" /></g><g
       transform="translate(19.9063,15.6507)"
       id="g34"><path
         id="path36"
         style="fill:#2b2b2a;fill-opacity:1;fill-rule:nonzero;stroke:none"
         d="m 0,0 -0.4,-0.945 -3.476,1.477 0.4,0.942 z" /></g><g
       transform="translate(20.8135,17.7913)"
       id="g38"><path
         id="path40"
         style="fill:#2b2b2a;fill-opacity:1;fill-rule:nonzero;stroke:none"
         d="M 0,0 -0.401,-0.944 -3.873,0.53 -3.474,1.474 Z" /></g><g
       transform="translate(21.7227,19.9314)"
       id="g42"><path
         id="path44"
         style="fill:#2b2b2a;fill-opacity:1;fill-rule:nonzero;stroke:none"
         d="m 0,0 -0.4,-0.944 -3.474,1.475 0.4,0.944 z" /></g><g
       transform="translate(22.6318,22.072)"
       id="g46"><path
         id="path48"
         style="fill:#2b2b2a;fill-opacity:1;fill-rule:nonzero;stroke:none"
         d="M 0,0 -0.4,-0.944 -3.875,0.53 -3.476,1.474 Z" /></g><g
       transform="translate(13.5479,13.7835)"
       id="g50"><path
         id="path52"
         style="fill:#2b2b2a;fill-opacity:1;fill-rule:nonzero;stroke:none"
         d="M 0,0 0.384,-0.95 -3.117,-2.364 -3.5,-1.414 Z" /></g><g
       transform="translate(12.6768,15.9402)"
       id="g54"><path
         id="path56"
         style="fill:#2b2b2a;fill-opacity:1;fill-rule:nonzero;stroke:none"
         d="m 0,0 0.384,-0.951 -3.5,-1.413 -0.384,0.949 z" /></g><g
       transform="translate(11.8057,18.0965)"
       id="g58"><path
         id="path60"
         style="fill:#2b2b2a;fill-opacity:1;fill-rule:nonzero;stroke:none"
         d="M 0,0 0.385,-0.951 -3.116,-2.365 -3.5,-1.415 Z" /></g><g
       transform="translate(10.8608,20.1692)"
       id="g62"><path
         id="path64"
         style="fill:#2b2b2a;fill-opacity:1;fill-rule:nonzero;stroke:none"
         d="M 0,0 0.384,-0.95 -3.117,-2.364 -3.5,-1.414 Z" /></g><g
       transform="translate(10.064,22.199)"
       id="g66"><path
         id="path68"
         style="fill:#2b2b2a;fill-opacity:1;fill-rule:nonzero;stroke:none"
         d="m 0,0 0.384,-0.951 -3.5,-1.414 -0.385,0.95 z" /></g><g
       transform="translate(9.2158,24.2009)"
       id="g70"><path
         id="path72"
         style="fill:#2b2b2a;fill-opacity:1;fill-rule:nonzero;stroke:none"
         d="m 0,0 0.384,-0.951 -3.5,-1.414 -0.385,0.95 z" /></g></g></svg>